SplineFontDB: 3.0
FontName: Vazir-Bold
FullName: Vazir Bold
FamilyName: Vazir
Weight: Bold
Copyright: Copyright (c) 2003 by Bitstream, Inc. All Rights Reserved.\nCopyright (c) 2006 by Tavmjong Bah. All Rights Reserved.\nDejaVu changes are in public domain\nCopyright (c) 2015 by Saber Rastikerdar. All Rights Reserved.
Version: 1.9
ItalicAngle: 0
UnderlinePosition: -100
UnderlineWidth: 100
Ascent: 1536
Descent: 512
LayerCount: 2
Layer: 0 1 "Back"  1
Layer: 1 1 "Fore"  0
XUID: [1021 502 1027637223 9622186]
UniqueID: 4172837
UseUniqueID: 1
FSType: 0
OS2Version: 1
OS2_WeightWidthSlopeOnly: 0
OS2_UseTypoMetrics: 1
CreationTime: 1431850356
ModificationTime: 1446089171
PfmFamily: 33
TTFWeight: 700
TTFWidth: 5
LineGap: 0
VLineGap: 0
Panose: 2 11 6 3 3 8 4 2 2 4
OS2TypoAscent: 2400
OS2TypoAOffset: 0
OS2TypoDescent: -800
OS2TypoDOffset: 0
OS2TypoLinegap: 59
OS2WinAscent: 2400
OS2WinAOffset: 0
OS2WinDescent: 800
OS2WinDOffset: 0
HheadAscent: 2400
HheadAOffset: 0
HheadDescent: -800
HheadDOffset: 0
OS2SubXSize: 1331
OS2SubYSize: 1433
OS2SubXOff: 0
OS2SubYOff: 286
OS2SupXSize: 1331
OS2SupYSize: 1433
OS2SupXOff: 0
OS2SupYOff: 983
OS2StrikeYSize: 102
OS2StrikeYPos: 530
OS2Vendor: 'PfEd'
OS2CodePages: 600001ff.dfff0000
Lookup: 1 0 0 "'case' Case-Sensitive Forms in Latin lookup 0"  {"'case' Case-Sensitive Forms in Latin lookup 0 subtable"  } ['case' ('DFLT' <'dflt' > 'latn' <'CAT ' 'ESP ' 'GAL ' 'dflt' > ) ]
Lookup: 6 1 0 "'ccmp' Glyph Composition/Decomposition lookup 2"  {"'ccmp' Glyph Composition/Decomposition lookup 2 subtable"  } ['ccmp' ('arab' <'KUR ' 'SND ' 'URD ' 'dflt' > 'hebr' <'dflt' > 'nko ' <'dflt' > ) ]
Lookup: 6 0 0 "'ccmp' Glyph Composition/Decomposition lookup 3"  {"'ccmp' Glyph Composition/Decomposition lookup 3 subtable"  } ['ccmp' ('cyrl' <'MKD ' 'SRB ' 'dflt' > 'grek' <'dflt' > 'latn' <'ISM ' 'KSM ' 'LSM ' 'MOL ' 'NSM ' 'ROM ' 'SKS ' 'SSM ' 'dflt' > ) ]

StartChar: exclam
Encoding: 33 33 1
Width: 877
GlyphClass: 2
Flags: W
LayerCount: 2
Fore
SplineSet
269.78 1403.42 m 1,0,-1
 608.18 1403.42 l 1,1,-1
 608.18 864.8 l 1,2,-1
 560.24 471.88 l 1,3,-1
 317.72 471.88 l 1,4,-1
 269.78 864.8 l 1,5,-1
 269.78 1403.42 l 1,0,-1
269.78 334.64 m 1,6,-1
 608.18 334.64 l 1,7,-1
 608.18 1.46484e-05 l 1,8,-1
 269.78 1.46484e-05 l 1,9,-1
 269.78 334.64 l 1,6,-1
EndSplineSet
EndChar

StartChar: quotedbl
Encoding: 34 34 2
Width: 1002
GlyphClass: 2
Flags: W
LayerCount: 2
Fore
SplineSet
819.68 1403.42 m 1,0,-1
 819.68 881.72 l 1,1,-1
 596.9 881.72 l 1,2,-1
 596.9 1403.42 l 1,3,-1
 819.68 1403.42 l 1,0,-1
406.08 1403.42 m 1,4,-1
 406.08 881.72 l 1,5,-1
 183.3 881.72 l 1,6,-1
 183.3 1403.42 l 1,7,-1
 406.08 1403.42 l 1,4,-1
EndSplineSet
EndChar

StartChar: numbersign
Encoding: 35 35 3
Width: 1613
GlyphClass: 2
Flags: W
LayerCount: 2
Fore
SplineSet
856.34 1381.8 m 1,0,-1
 766.1 1019.9 l 1,1,-1
 1014.26 1019.9 l 1,2,-1
 1105.44 1381.8 l 1,3,-1
 1313.18 1381.8 l 1,4,-1
 1222 1019.9 l 1,5,-1
 1482.38 1019.9 l 1,6,-1
 1482.38 819.68 l 1,7,-1
 1172.18 819.68 l 1,8,-1
 1107.32 562.12 l 1,9,-1
 1374.28 562.12 l 1,10,-1
 1374.28 360.02 l 1,11,-1
 1058.44 360.02 l 1,12,-1
 968.2 5.00488e-05 l 1,13,-1
 760.46 5.00488e-05 l 1,14,-1
 850.7 360.02 l 1,15,-1
 602.54 360.02 l 1,16,-1
 512.3 5.00488e-05 l 1,17,-1
 302.68 5.00488e-05 l 1,18,-1
 392.92 360.02 l 1,19,-1
 130.66 360.02 l 1,20,-1
 130.66 562.12 l 1,21,-1
 438.98 562.12 l 1,22,-1
 504.78 819.68 l 1,23,-1
 238.76 819.68 l 1,24,-1
 238.76 1019.9 l 1,25,-1
 556.48 1019.9 l 1,26,-1
 646.72 1381.8 l 1,27,-1
 856.34 1381.8 l 1,0,-1
962.56 819.68 m 1,28,-1
 714.4 819.68 l 1,29,-1
 648.6 562.12 l 1,30,-1
 896.76 562.12 l 1,31,-1
 962.56 819.68 l 1,28,-1
EndSplineSet
EndChar

StartChar: dollar
Encoding: 36 36 4
Width: 1339
GlyphClass: 2
Flags: W
LayerCount: 2
Fore
SplineSet
747.3 -282.94 m 1,0,-1
 595.02 -282.94 l 1,1,-1
 594.08 -2.44141e-06 l 1,2,3
 476.58 4.7002 476.58 4.7002 366.6 26.3203 c 128,-1,4
 256.62 47.9404 256.62 47.9404 152.28 86.4805 c 1,5,-1
 152.28 332.76 l 1,6,7
 260.38 277.301 260.38 277.301 370.83 247.69 c 128,-1,8
 481.28 218.08 481.28 218.08 595.02 214.32 c 1,9,-1
 595.02 506.66 l 1,10,-1
 564 512.3 l 1,11,12
 339.34 551.78 339.34 551.78 244.87 636.38 c 128,-1,13
 150.4 720.981 150.4 720.981 150.4 879.841 c 0,14,15
 150.4 1048.1 150.4 1048.1 265.55 1142.57 c 128,-1,16
 380.7 1237.04 380.7 1237.04 594.08 1245.5 c 1,17,-1
 595.02 1462.64 l 1,18,-1
 747.3 1462.64 l 1,19,-1
 747.3 1249.26 l 1,20,21
 841.3 1241.74 841.3 1241.74 935.3 1225.76 c 128,-1,22
 1029.3 1209.78 1029.3 1209.78 1124.24 1184.4 c 1,23,-1
 1124.24 945.641 l 1,24,25
 1030.24 985.121 1030.24 985.121 936.24 1007.21 c 128,-1,26
 842.24 1029.3 842.24 1029.3 747.3 1034 c 1,27,-1
 747.3 764.221 l 1,28,-1
 777.38 758.581 l 1,29,30
 1016.14 720.981 1016.14 720.981 1112.49 633.091 c 128,-1,31
 1208.84 545.201 1208.84 545.201 1208.84 373.181 c 0,32,33
 1208.84 200.221 1208.84 200.221 1094.16 107.631 c 128,-1,34
 979.48 15.0406 979.48 15.0406 747.3 1.88063 c 1,35,-1
 747.3 -282.94 l 1,0,-1
595.02 785.84 m 1,36,-1
 595.02 1031.18 l 1,37,38
 528.28 1027.42 528.28 1027.42 488.33 994.99 c 128,-1,39
 448.38 962.56 448.38 962.56 448.38 912.74 c 0,40,41
 448.38 857.28 448.38 857.28 485.04 825.79 c 128,-1,42
 521.7 794.3 521.7 794.3 595.02 785.84 c 1,36,-1
747.3 479.4 m 1,43,-1
 747.3 218.08 l 1,44,45
 829.08 219.02 829.08 219.02 869.97 250.04 c 128,-1,46
 910.86 281.06 910.86 281.06 910.86 343.1 c 0,47,48
 910.86 407.02 910.86 407.02 873.26 438.51 c 128,-1,49
 835.66 470 835.66 470 747.3 479.4 c 1,43,-1
EndSplineSet
EndChar

StartChar: percent
Encoding: 37 37 5
Width: 1928
GlyphClass: 2
Flags: W
LayerCount: 2
Fore
SplineSet
1491.78 579.04 m 128,-1,1
 1425.04 579.04 1425.04 579.04 1388.38 521.23 c 128,-1,2
 1351.72 463.42 1351.72 463.42 1351.72 356.26 c 0,3,4
 1351.72 248.16 1351.72 248.16 1387.91 190.35 c 128,-1,5
 1424.1 132.54 1424.1 132.54 1491.78 132.54 c 128,-1,6
 1559.46 132.54 1559.46 132.54 1595.18 190.35 c 128,-1,7
 1630.9 248.16 1630.9 248.16 1630.9 356.26 c 0,8,9
 1630.9 463.42 1630.9 463.42 1594.71 521.23 c 128,-1,0
 1558.52 579.04 1558.52 579.04 1491.78 579.04 c 128,-1,1
1491.78 736.96 m 128,-1,11
 1666.62 736.96 1666.62 736.96 1767.2 635.44 c 128,-1,12
 1867.78 533.92 1867.78 533.92 1867.78 356.26 c 128,-1,13
 1867.78 178.6 1867.78 178.6 1767.2 75.67 c 128,-1,14
 1666.62 -27.26 1666.62 -27.26 1491.78 -27.26 c 128,-1,15
 1316.94 -27.26 1316.94 -27.26 1215.89 75.67 c 128,-1,16
 1114.84 178.6 1114.84 178.6 1114.84 356.26 c 0,17,18
 1114.84 532.98 1114.84 532.98 1215.89 634.97 c 128,-1,10
 1316.94 736.96 1316.94 736.96 1491.78 736.96 c 128,-1,11
629.8 -27.2598 m 1,19,-1
 422.06 -27.2598 l 1,20,-1
 1299.08 1428.8 l 1,21,-1
 1507.76 1428.8 l 1,22,-1
 629.8 -27.2598 l 1,19,-1
437.1 1428.8 m 128,-1,24
 611.94 1428.8 611.94 1428.8 712.05 1326.81 c 128,-1,25
 812.16 1224.82 812.16 1224.82 812.16 1047.16 c 128,-1,26
 812.16 869.5 812.16 869.5 712.05 767.04 c 128,-1,27
 611.94 664.58 611.94 664.58 437.1 664.58 c 128,-1,28
 262.26 664.58 262.26 664.58 162.15 767.04 c 128,-1,29
 62.04 869.5 62.04 869.5 62.04 1047.16 c 128,-1,30
 62.04 1224.82 62.04 1224.82 162.15 1326.81 c 128,-1,23
 262.26 1428.8 262.26 1428.8 437.1 1428.8 c 128,-1,24
437.1 1270.88 m 0,31,32
 369.42 1270.88 369.42 1270.88 332.76 1212.6 c 128,-1,33
 296.1 1154.32 296.1 1154.32 296.1 1047.16 c 0,34,35
 296.1 939.06 296.1 939.06 332.76 880.31 c 128,-1,36
 369.42 821.56 369.42 821.56 437.1 821.56 c 128,-1,37
 504.78 821.56 504.78 821.56 540.97 880.31 c 128,-1,38
 577.16 939.06 577.16 939.06 577.16 1047.16 c 0,39,40
 577.16 1154.32 577.16 1154.32 540.5 1212.6 c 128,-1,41
 503.84 1270.88 503.84 1270.88 437.1 1270.88 c 0,31,32
EndSplineSet
EndChar

StartChar: ampersand
Encoding: 38 38 6
Width: 1678
GlyphClass: 2
Flags: W
LayerCount: 2
Fore
SplineSet
751.06 931.54 m 2,0,-1
 1135.52 508.54 l 1,1,2
 1185.34 574.34 1185.34 574.34 1211.19 656.12 c 128,-1,3
 1237.04 737.9 1237.04 737.9 1241.74 841.3 c 1,4,-1
 1534.08 841.3 l 1,5,6
 1519.98 670.22 1519.98 670.22 1467.81 536.74 c 128,-1,7
 1415.64 403.26 1415.64 403.26 1322.58 302.68 c 1,8,-1
 1598 -7.32422e-06 l 1,9,-1
 1199.44 -7.32422e-06 l 1,10,-1
 1107.32 102.46 l 1,11,12
 1008.62 36.6602 1008.62 36.6602 899.58 4.70019 c 128,-1,13
 790.54 -27.2598 790.54 -27.2598 668.34 -27.2598 c 0,14,15
 421.12 -27.2598 421.12 -27.2598 268.37 102.93 c 128,-1,16
 115.62 233.12 115.62 233.12 115.62 438.98 c 0,17,18
 115.62 576.22 115.62 576.22 182.83 681.97 c 128,-1,19
 250.04 787.72 250.04 787.72 402.32 887.36 c 1,20,21
 362.84 937.18 362.84 937.18 344.04 987 c 128,-1,22
 325.24 1036.82 325.24 1036.82 325.24 1091.34 c 0,23,24
 325.24 1244.56 325.24 1244.56 444.62 1336.68 c 128,-1,25
 564 1428.8 564 1428.8 762.34 1428.8 c 0,26,27
 847.88 1428.8 847.88 1428.8 940.47 1415.17 c 128,-1,28
 1033.06 1401.54 1033.06 1401.54 1133.64 1374.28 c 1,29,-1
 1133.64 1112.96 l 1,30,31
 1045.28 1158.08 1045.28 1158.08 966.32 1179.7 c 128,-1,32
 887.36 1201.32 887.36 1201.32 812.16 1201.32 c 0,33,34
 739.78 1201.32 739.78 1201.32 699.83 1173.59 c 128,-1,35
 659.88 1145.86 659.88 1145.86 659.88 1095.1 c 0,36,37
 659.88 1063.14 659.88 1063.14 682.91 1022.25 c 128,-1,38
 705.94 981.36 705.94 981.36 751.06 931.54 c 2,0,-1
564 698.42 m 1,39,40
 502.9 654.24 502.9 654.24 471.88 598.31 c 128,-1,41
 440.86 542.38 440.86 542.38 440.86 475.64 c 0,42,43
 440.86 367.54 440.86 367.54 520.76 291.4 c 128,-1,44
 600.66 215.26 600.66 215.26 712.52 215.26 c 0,45,46
 775.5 215.26 775.5 215.26 830.02 234.53 c 128,-1,47
 884.54 253.8 884.54 253.8 931.54 292.34 c 1,48,-1
 564 698.42 l 1,39,40
EndSplineSet
EndChar

StartChar: quotesingle
Encoding: 39 39 7
Width: 589
GlyphClass: 2
Flags: W
LayerCount: 2
Fore
SplineSet
406.08 1403.42 m 1,0,-1
 406.08 881.72 l 1,1,-1
 183.3 881.72 l 1,2,-1
 183.3 1403.42 l 1,3,-1
 406.08 1403.42 l 1,0,-1
EndSplineSet
EndChar

StartChar: parenleft
Encoding: 40 40 8
Width: 879
GlyphClass: 2
Flags: W
GlyphCompositionVertical: 3  uni239D%0,0,44,2703 uni239C%1,44,44,2731 uni239B%0,44,0,2740
LayerCount: 2
Fore
SplineSet
725.68 -253.8 m 1,0,-1
 446.5 -253.8 l 1,1,2
 302.68 -21.62 302.68 -21.62 234.06 187.53 c 128,-1,3
 165.44 396.68 165.44 396.68 165.44 602.54 c 128,-1,4
 165.44 808.4 165.44 808.4 234.53 1019.43 c 128,-1,5
 303.62 1230.46 303.62 1230.46 446.5 1460.76 c 1,6,-1
 725.68 1460.76 l 1,7,8
 605.36 1237.98 605.36 1237.98 545.2 1025.07 c 128,-1,9
 485.04 812.16 485.04 812.16 485.04 604.42 c 128,-1,10
 485.04 396.68 485.04 396.68 544.73 183.3 c 128,-1,11
 604.42 -30.08 604.42 -30.08 725.68 -253.8 c 1,0,-1
EndSplineSet
EndChar

StartChar: parenright
Encoding: 41 41 9
Width: 879
GlyphClass: 2
Flags: W
GlyphCompositionVertical: 3  uni23A0%0,0,44,2703 uni239F%1,44,44,2731 uni239E%0,44,0,2740
LayerCount: 2
Fore
SplineSet
154.16 -253.8 m 0,0,1
 274.48 -30.08 274.48 -30.08 334.64 183.3 c 128,-1,2
 394.8 396.68 394.8 396.68 394.8 604.42 c 128,-1,3
 394.8 812.16 394.8 812.16 334.64 1025.07 c 128,-1,4
 274.48 1237.98 274.48 1237.98 154.16 1460.76 c 1,5,-1
 433.34 1460.76 l 1,6,7
 576.22 1230.46 576.22 1230.46 645.31 1019.43 c 128,-1,8
 714.4 808.4 714.4 808.4 714.4 602.54 c 128,-1,9
 714.4 396.68 714.4 396.68 645.78 187.53 c 128,-1,10
 577.16 -21.6201 577.16 -21.6201 433.34 -253.8 c 1,11,-1
 154.16 -253.8 l 0,0,1
EndSplineSet
EndChar

StartChar: asterisk
Encoding: 42 42 10
Width: 1006
GlyphClass: 2
Flags: W
LayerCount: 2
Fore
SplineSet
968.2 1143.98 m 1,0,-1
 658 981.36 l 1,1,-1
 968.2 817.8 l 1,2,-1
 896.76 685.26 l 1,3,-1
 583.74 858.22 l 1,4,-1
 583.74 534.86 l 1,5,-1
 423.94 534.86 l 1,6,-1
 423.94 858.22 l 1,7,-1
 109.98 685.26 l 1,8,-1
 38.54 817.8 l 1,9,-1
 352.5 981.36 l 1,10,-1
 38.54 1143.98 l 1,11,-1
 109.98 1276.52 l 1,12,-1
 423.94 1105.44 l 1,13,-1
 423.94 1428.8 l 1,14,-1
 583.74 1428.8 l 1,15,-1
 583.74 1105.44 l 1,16,-1
 896.76 1276.52 l 1,17,-1
 968.2 1143.98 l 1,0,-1
EndSplineSet
EndChar

StartChar: plus
Encoding: 43 43 11
Width: 1613
GlyphClass: 2
Flags: W
LayerCount: 2
Fore
SplineSet
918.38 1206.96 m 1,0,-1
 918.38 714.4 l 1,1,-1
 1409.06 714.4 l 1,2,-1
 1409.06 492.56 l 1,3,-1
 918.38 492.56 l 1,4,-1
 918.38 -3.2959e-05 l 1,5,-1
 694.66 -3.2959e-05 l 1,6,-1
 694.66 492.56 l 1,7,-1
 203.98 492.56 l 1,8,-1
 203.98 714.4 l 1,9,-1
 694.66 714.4 l 1,10,-1
 694.66 1206.96 l 1,11,-1
 918.38 1206.96 l 1,0,-1
EndSplineSet
EndChar

StartChar: comma
Encoding: 44 44 12
Width: 731
GlyphClass: 2
Flags: W
LayerCount: 2
Fore
SplineSet
196.46 363.78 m 1,0,-1
 534.86 363.78 l 1,1,-1
 534.86 77.08 l 1,2,-1
 302.68 -273.54 l 1,3,-1
 102.46 -273.54 l 1,4,-1
 196.46 77.08 l 1,5,-1
 196.46 363.78 l 1,0,-1
EndSplineSet
EndChar

StartChar: hyphen
Encoding: 45 45 13
Width: 799
GlyphClass: 2
Flags: W
LayerCount: 2
Fore
SplineSet
104.34 690.9 m 1,0,-1
 694.66 690.9 l 1,1,-1
 694.66 417.36 l 1,2,-1
 104.34 417.36 l 1,3,-1
 104.34 690.9 l 1,0,-1
EndSplineSet
EndChar

StartChar: period
Encoding: 46 46 14
Width: 731
GlyphClass: 2
Flags: W
LayerCount: 2
Fore
SplineSet
196.46 363.78 m 1,0,-1
 534.86 363.78 l 1,1,-1
 534.86 -1.2207e-06 l 1,2,-1
 196.46 -1.2207e-06 l 1,3,-1
 196.46 363.78 l 1,0,-1
EndSplineSet
EndChar

StartChar: slash
Encoding: 47 47 15
Width: 703
GlyphClass: 2
Flags: W
LayerCount: 2
Fore
SplineSet
494.44 1403.42 m 1,0,-1
 703.12 1403.42 l 1,1,-1
 207.74 -178.6 l 1,2,-1
 -9.76562e-06 -178.6 l 1,3,-1
 494.44 1403.42 l 1,0,-1
EndSplineSet
EndChar

StartChar: colon
Encoding: 58 58 16
Width: 769
GlyphClass: 2
Flags: W
LayerCount: 2
Fore
SplineSet
215.26 1052.8 m 1,0,-1
 554.6 1052.8 l 1,1,-1
 554.6 689.02 l 1,2,-1
 215.26 689.02 l 1,3,-1
 215.26 1052.8 l 1,0,-1
215.26 363.78 m 1,4,-1
 554.6 363.78 l 1,5,-1
 554.6 -1.2207e-06 l 1,6,-1
 215.26 -1.2207e-06 l 1,7,-1
 215.26 363.78 l 1,4,-1
EndSplineSet
EndChar

StartChar: semicolon
Encoding: 59 59 17
Width: 769
GlyphClass: 2
Flags: W
LayerCount: 2
Fore
SplineSet
215.26 363.78 m 1,0,-1
 554.6 363.78 l 1,1,-1
 554.6 77.08 l 1,2,-1
 321.48 -273.54 l 1,3,-1
 121.26 -273.54 l 1,4,-1
 215.26 77.08 l 1,5,-1
 215.26 363.78 l 1,0,-1
215.26 1052.8 m 1,6,-1
 554.6 1052.8 l 1,7,-1
 554.6 689.02 l 1,8,-1
 215.26 689.02 l 1,9,-1
 215.26 1052.8 l 1,6,-1
EndSplineSet
EndChar

StartChar: less
Encoding: 60 60 18
Width: 1613
GlyphClass: 2
Flags: W
LayerCount: 2
Fore
SplineSet
1409.06 914.62 m 1,0,-1
 502.9 602.54 l 1,1,-1
 1409.06 292.34 l 1,2,-1
 1409.06 57.34 l 1,3,-1
 203.98 492.56 l 1,4,-1
 203.98 714.4 l 1,5,-1
 1409.06 1149.62 l 1,6,-1
 1409.06 914.62 l 1,0,-1
EndSplineSet
EndChar

StartChar: equal
Encoding: 61 61 19
Width: 1613
GlyphClass: 2
Flags: W
GlyphCompositionHorizontal: 2  equal%0,0,44,1433 equal%1,44,0,1433
LayerCount: 2
Fore
SplineSet
203.98 927.78 m 1,0,-1
 1409.06 927.78 l 1,1,-1
 1409.06 706.88 l 1,2,-1
 203.98 706.88 l 1,3,-1
 203.98 927.78 l 1,0,-1
203.98 500.08 m 1,4,-1
 1409.06 500.08 l 1,5,-1
 1409.06 277.3 l 1,6,-1
 203.98 277.3 l 1,7,-1
 203.98 500.08 l 1,4,-1
EndSplineSet
EndChar

StartChar: greater
Encoding: 62 62 20
Width: 1613
GlyphClass: 2
Flags: W
LayerCount: 2
Fore
SplineSet
203.98 914.62 m 1,0,-1
 203.98 1149.62 l 1,1,-1
 1409.06 714.4 l 1,2,-1
 1409.06 492.56 l 1,3,-1
 203.98 57.34 l 1,4,-1
 203.98 292.34 l 1,5,-1
 1111.08 602.54 l 1,6,-1
 203.98 914.62 l 1,0,-1
EndSplineSet
EndChar

StartChar: question
Encoding: 63 63 21
Width: 1116
GlyphClass: 2
Flags: W
LayerCount: 2
Fore
SplineSet
666.46 473.76 m 1,0,-1
 327.12 473.76 l 1,1,-1
 327.12 519.82 l 2,2,3
 327.12 596.9 327.12 596.9 358.14 656.59 c 128,-1,4
 389.16 716.28 389.16 716.28 488.8 808.4 c 1,5,-1
 548.96 862.92 l 2,6,7
 602.54 911.8 602.54 911.8 627.45 955.04 c 128,-1,8
 652.36 998.28 652.36 998.28 652.36 1041.52 c 0,9,10
 652.36 1107.32 652.36 1107.32 607.24 1144.45 c 128,-1,11
 562.12 1181.58 562.12 1181.58 481.28 1181.58 c 0,12,13
 405.14 1181.58 405.14 1181.58 316.78 1150.09 c 128,-1,14
 228.42 1118.6 228.42 1118.6 132.54 1056.56 c 1,15,-1
 132.54 1351.72 l 1,16,17
 246.28 1391.2 246.28 1391.2 340.28 1410 c 128,-1,18
 434.28 1428.8 434.28 1428.8 521.7 1428.8 c 0,19,20
 751.06 1428.8 751.06 1428.8 871.38 1335.27 c 128,-1,21
 991.7 1241.74 991.7 1241.74 991.7 1062.2 c 0,22,23
 991.7 970.08 991.7 970.08 955.04 897.23 c 128,-1,24
 918.38 824.38 918.38 824.38 830.02 740.72 c 1,25,-1
 769.86 687.14 l 1,26,27
 705.94 628.86 705.94 628.86 686.2 593.61 c 128,-1,28
 666.46 558.36 666.46 558.36 666.46 516.06 c 2,29,-1
 666.46 473.76 l 1,0,-1
327.12 334.64 m 1,30,-1
 666.46 334.64 l 1,31,-1
 666.46 1.46484e-05 l 1,32,-1
 327.12 1.46484e-05 l 1,33,-1
 327.12 334.64 l 1,30,-1
EndSplineSet
EndChar

StartChar: at
Encoding: 64 64 22
Width: 1925
GlyphClass: 2
Flags: W
LayerCount: 2
Fore
SplineSet
781.14 506.66 m 0,0,1
 781.14 391.04 781.14 391.04 830.49 324.3 c 128,-1,2
 879.84 257.56 879.84 257.56 964.44 257.56 c 0,3,4
 1048.1 257.56 1048.1 257.56 1097.92 324.77 c 128,-1,5
 1147.74 391.98 1147.74 391.98 1147.74 506.66 c 0,6,7
 1147.74 620.4 1147.74 620.4 1097.45 686.67 c 128,-1,8
 1047.16 752.94 1047.16 752.94 962.56 752.94 c 0,9,10
 879.84 752.94 879.84 752.94 830.49 686.67 c 128,-1,11
 781.14 620.4 781.14 620.4 781.14 506.66 c 0,0,1
1166.54 223.72 m 1,12,13
 1138.34 156.98 1138.34 156.98 1075.83 119.85 c 128,-1,14
 1013.32 82.7197 1013.32 82.7197 929.66 82.7197 c 0,15,16
 767.98 82.7197 767.98 82.7197 666.93 199.75 c 128,-1,17
 565.88 316.78 565.88 316.78 565.88 504.78 c 128,-1,18
 565.88 692.78 565.88 692.78 667.4 810.28 c 128,-1,19
 768.92 927.78 768.92 927.78 929.66 927.78 c 0,20,21
 1013.32 927.78 1013.32 927.78 1075.83 890.18 c 128,-1,22
 1138.34 852.58 1138.34 852.58 1166.54 785.84 c 1,23,-1
 1166.54 908.98 l 1,24,-1
 1363 908.98 l 1,25,-1
 1363 257.56 l 1,26,27
 1479.56 275.42 1479.56 275.42 1546.3 369.89 c 128,-1,28
 1613.04 464.36 1613.04 464.36 1613.04 611.94 c 0,29,30
 1613.04 705.94 1613.04 705.94 1585.78 788.19 c 128,-1,31
 1558.52 870.44 1558.52 870.44 1503.06 939.06 c 1,32,33
 1413.76 1053.74 1413.76 1053.74 1279.81 1115.78 c 128,-1,34
 1145.86 1177.82 1145.86 1177.82 989.82 1177.82 c 0,35,36
 880.78 1177.82 880.78 1177.82 781.14 1149.15 c 128,-1,37
 681.5 1120.48 681.5 1120.48 596.9 1065.02 c 0,38,39
 457.78 972.9 457.78 972.9 380.23 826.73 c 128,-1,40
 302.68 680.56 302.68 680.56 302.68 510.42 c 0,41,42
 302.68 370.36 302.68 370.36 352.97 247.69 c 128,-1,43
 403.26 125.02 403.26 125.02 498.2 31.0187 c 0,44,45
 592.2 -61.1004 592.2 -61.1004 713.93 -109.511 c 128,-1,46
 835.66 -157.921 835.66 -157.921 973.84 -157.921 c 0,47,48
 1092.28 -157.921 1092.28 -157.921 1210.72 -113.741 c 128,-1,49
 1329.16 -69.5609 1329.16 -69.5609 1412.82 5.63869 c 1,50,-1
 1513.4 -146.641 l 1,51,52
 1395.9 -237.821 1395.9 -237.821 1257.25 -286.231 c 128,-1,53
 1118.6 -334.641 1118.6 -334.641 975.72 -334.641 c 0,54,55
 801.82 -334.641 801.82 -334.641 647.66 -273.071 c 128,-1,56
 493.5 -211.501 493.5 -211.501 373.18 -94.0013 c 128,-1,57
 252.86 23.4987 252.86 23.4987 189.88 178.129 c 128,-1,58
 126.9 332.759 126.9 332.759 126.9 510.419 c 0,59,60
 126.9 681.499 126.9 681.499 190.82 836.599 c 128,-1,61
 254.74 991.699 254.74 991.699 373.18 1109.2 c 0,62,63
 491.62 1225.76 491.62 1225.76 649.07 1289.68 c 128,-1,64
 806.52 1353.6 806.52 1353.6 975.72 1353.6 c 0,65,66
 1186.28 1353.6 1186.28 1353.6 1358.3 1273.23 c 128,-1,67
 1530.32 1192.86 1530.32 1192.86 1645.94 1041.52 c 0,68,69
 1716.44 949.399 1716.44 949.399 1752.63 841.769 c 128,-1,70
 1788.82 734.139 1788.82 734.139 1788.82 615.699 c 0,71,72
 1788.82 360.959 1788.82 360.959 1635.6 219.959 c 128,-1,73
 1482.38 78.9587 1482.38 78.9587 1203.2 78.9587 c 2,74,-1
 1166.54 78.9587 l 1,75,-1
 1166.54 223.72 l 1,12,13
EndSplineSet
EndChar

StartChar: bracketleft
Encoding: 91 91 23
Width: 879
GlyphClass: 2
Flags: W
GlyphCompositionVertical: 3  uni23A3%0,0,44,2703 uni23A2%1,44,44,2731 uni23A1%0,44,0,2699
LayerCount: 2
Fore
SplineSet
165.44 1462.64 m 1,0,-1
 749.18 1462.64 l 1,1,-1
 749.18 1251.14 l 1,2,-1
 485.04 1251.14 l 1,3,-1
 485.04 -42.3 l 1,4,-1
 749.18 -42.3 l 1,5,-1
 749.18 -253.8 l 1,6,-1
 165.44 -253.8 l 1,7,-1
 165.44 1462.64 l 1,0,-1
EndSplineSet
EndChar

StartChar: backslash
Encoding: 92 92 24
Width: 703
GlyphClass: 2
Flags: W
LayerCount: 2
Fore
SplineSet
494.44 -178.6 m 1,0,-1
 2.44141e-06 1403.42 l 1,1,-1
 207.74 1403.42 l 1,2,-1
 703.12 -178.6 l 1,3,-1
 494.44 -178.6 l 1,0,-1
EndSplineSet
EndChar

StartChar: bracketright
Encoding: 93 93 25
Width: 879
GlyphClass: 2
Flags: W
GlyphCompositionVertical: 3  uni23A6%0,0,44,2687 uni23A5%1,44,44,2713 uni23A4%0,44,0,2699
LayerCount: 2
Fore
SplineSet
714.4 -253.8 m 1,0,-1
 130.66 -253.8 l 1,1,-1
 130.66 -42.3 l 1,2,-1
 394.8 -42.3 l 1,3,-1
 394.8 1251.14 l 1,4,-1
 130.66 1251.14 l 1,5,-1
 130.66 1462.64 l 1,6,-1
 714.4 1462.64 l 1,7,-1
 714.4 -253.8 l 1,0,-1
EndSplineSet
EndChar

StartChar: asciicircum
Encoding: 94 94 26
Width: 1613
GlyphClass: 2
Flags: W
LayerCount: 2
Fore
SplineSet
922.14 1403.42 m 1,0,-1
 1418.46 879.84 l 1,1,-1
 1191.92 879.84 l 1,2,-1
 806.52 1162.78 l 1,3,-1
 422.06 879.84 l 1,4,-1
 194.58 879.84 l 1,5,-1
 690.9 1403.42 l 1,6,-1
 922.14 1403.42 l 1,0,-1
EndSplineSet
EndChar

StartChar: underscore
Encoding: 95 95 27
Width: 962
GlyphClass: 2
Flags: W
GlyphCompositionHorizontal: 2  underscore%0,0,44,1188 underscore%1,44,0,1188
LayerCount: 2
Fore
SplineSet
962.56 -275.42 m 1,0,-1
 962.56 -454.02 l 1,1,-1
 -2.44141e-06 -454.02 l 1,2,-1
 -2.44141e-06 -275.42 l 1,3,-1
 962.56 -275.42 l 1,0,-1
EndSplineSet
EndChar

StartChar: grave
Encoding: 96 96 28
Width: 962
GlyphClass: 2
Flags: W
LayerCount: 2
Fore
SplineSet
354.38 1539.72 m 1,0,-1
 619.46 1186.28 l 1,1,-1
 435.22 1186.28 l 1,2,-1
 88.36 1539.72 l 1,3,-1
 354.38 1539.72 l 1,0,-1
EndSplineSet
EndChar

StartChar: braceleft
Encoding: 123 123 29
Width: 1370
GlyphClass: 2
Flags: W
GlyphCompositionVertical: 5  uni23A9%0,0,44,2700 uni23AA%1,44,44,2742 uni23A8%0,44,44,2727 uni23AA%1,44,44,2742 uni23A7%0,44,0,2719
LayerCount: 2
Fore
SplineSet
1129.88 -102.46 m 1,0,-1
 1129.88 -313.96 l 1,1,-1
 925.9 -313.96 l 2,2,3
 720.98 -313.96 720.98 -313.96 626.98 -231.24 c 128,-1,4
 532.98 -148.52 532.98 -148.52 532.98 32.9 c 2,5,-1
 532.98 213.38 l 2,6,7
 532.98 354.38 532.98 354.38 482.22 409.37 c 128,-1,8
 431.46 464.36 431.46 464.36 297.98 464.36 c 2,9,-1
 240.64 464.36 l 1,10,-1
 240.64 673.98 l 1,11,-1
 297.98 673.98 l 2,12,13
 431.46 673.98 431.46 673.98 482.22 728.5 c 128,-1,14
 532.98 783.02 532.98 783.02 532.98 924.02 c 2,15,-1
 532.98 1116.72 l 2,16,17
 532.98 1298.14 532.98 1298.14 626.98 1380.39 c 128,-1,18
 720.98 1462.64 720.98 1462.64 925.9 1462.64 c 2,19,-1
 1129.88 1462.64 l 1,20,-1
 1129.88 1251.14 l 1,21,-1
 1065.02 1251.14 l 2,22,23
 932.48 1251.14 932.48 1251.14 892.53 1210.25 c 128,-1,24
 852.58 1169.36 852.58 1169.36 852.58 1035.88 c 2,25,-1
 852.58 879.84 l 2,26,27
 852.58 732.26 852.58 732.26 810.28 665.52 c 128,-1,28
 767.98 598.78 767.98 598.78 664.58 575.28 c 1,29,30
 768.92 549.9 768.92 549.9 810.75 483.16 c 128,-1,31
 852.58 416.42 852.58 416.42 852.58 269.78 c 2,32,-1
 852.58 113.74 l 2,33,34
 852.58 -20.68 852.58 -20.68 892.53 -61.57 c 128,-1,35
 932.48 -102.46 932.48 -102.46 1065.02 -102.46 c 2,36,-1
 1129.88 -102.46 l 1,0,-1
EndSplineSet
EndChar

StartChar: bar
Encoding: 124 124 30
Width: 703
GlyphClass: 2
Flags: W
GlyphCompositionVertical: 2  bar%0,0,44,2287 bar%1,44,0,2287
LayerCount: 2
Fore
SplineSet
457.78 1471.1 m 1,0,-1
 457.78 -454.02 l 1,1,-1
 244.4 -454.02 l 1,2,-1
 244.4 1471.1 l 1,3,-1
 457.78 1471.1 l 1,0,-1
EndSplineSet
EndChar

StartChar: braceright
Encoding: 125 125 31
Width: 1370
GlyphClass: 2
Flags: W
GlyphCompositionVertical: 5  uni23AD%0,0,44,2700 uni23AA%1,44,44,2742 uni23AC%0,44,44,2727 uni23AA%1,44,44,2742 uni23AB%0,44,0,2719
LayerCount: 2
Fore
SplineSet
240.64 -102.46 m 1,0,-1
 306.44 -102.46 l 2,1,2
 438.04 -102.46 438.04 -102.46 477.99 -61.5703 c 128,-1,3
 517.94 -20.6797 517.94 -20.6797 517.94 113.74 c 2,4,-1
 517.94 269.78 l 2,5,6
 517.94 416.42 517.94 416.42 560.24 483.16 c 128,-1,7
 602.54 549.9 602.54 549.9 706.88 575.28 c 1,8,9
 602.54 598.78 602.54 598.78 560.24 665.52 c 128,-1,10
 517.94 732.26 517.94 732.26 517.94 879.84 c 2,11,-1
 517.94 1035.88 l 2,12,13
 517.94 1169.36 517.94 1169.36 477.99 1210.25 c 128,-1,14
 438.04 1251.14 438.04 1251.14 306.44 1251.14 c 2,15,-1
 240.64 1251.14 l 1,16,-1
 240.64 1462.64 l 1,17,-1
 444.62 1462.64 l 2,18,19
 649.54 1462.64 649.54 1462.64 743.54 1380.39 c 128,-1,20
 837.54 1298.14 837.54 1298.14 837.54 1116.72 c 2,21,-1
 837.54 924.02 l 2,22,23
 837.54 783.02 837.54 783.02 888.3 728.5 c 128,-1,24
 939.06 673.98 939.06 673.98 1072.54 673.98 c 2,25,-1
 1129.88 673.98 l 1,26,-1
 1129.88 464.36 l 1,27,-1
 1072.54 464.36 l 2,28,29
 939.06 464.36 939.06 464.36 888.3 409.37 c 128,-1,30
 837.54 354.38 837.54 354.38 837.54 213.38 c 2,31,-1
 837.54 32.8997 l 2,32,33
 837.54 -148.52 837.54 -148.52 743.54 -231.24 c 128,-1,34
 649.54 -313.96 649.54 -313.96 444.62 -313.96 c 2,35,-1
 240.64 -313.96 l 1,36,-1
 240.64 -102.46 l 1,0,-1
EndSplineSet
EndChar

StartChar: asciitilde
Encoding: 126 126 32
Width: 1613
GlyphClass: 2
Flags: W
LayerCount: 2
Fore
SplineSet
1409.06 799 m 1,0,-1
 1409.06 569.64 l 1,1,2
 1309.42 494.44 1309.42 494.44 1225.29 462.01 c 128,-1,3
 1141.16 429.58 1141.16 429.58 1050.92 429.58 c 0,4,5
 950.34 429.58 950.34 429.58 815.92 484.1 c 0,6,7
 802.76 489.74 802.76 489.74 795.24 492.56 c 0,8,9
 788.66 495.38 788.66 495.38 774.56 501.02 c 0,10,11
 628.86 558.36 628.86 558.36 540.5 558.36 c 0,12,13
 457.78 558.36 457.78 558.36 376.94 522.17 c 128,-1,14
 296.1 485.98 296.1 485.98 203.98 407.96 c 1,15,-1
 203.98 637.32 l 1,16,17
 304.56 712.52 304.56 712.52 388.22 744.95 c 128,-1,18
 471.88 777.38 471.88 777.38 562.12 777.38 c 0,19,20
 662.7 777.38 662.7 777.38 797.12 722.86 c 0,21,22
 811.22 717.22 811.22 717.22 817.8 714.4 c 128,-1,23
 824.38 711.58 824.38 711.58 838.48 705.94 c 0,24,25
 984.18 648.6 984.18 648.6 1072.54 648.6 c 0,26,27
 1153.38 648.6 1153.38 648.6 1232.81 683.85 c 128,-1,28
 1312.24 719.1 1312.24 719.1 1409.06 799 c 1,0,-1
EndSplineSet
EndChar

StartChar: afii57388
Encoding: 1548 1548 34
Width: 743
GlyphClass: 2
Flags: W
LayerCount: 2
Fore
SplineSet
203.706 102.999 m 4,0,1
 191.25 161.217 191.25 161.217 212.745 254.832 c 4,2,3
 251.683 424.416 251.683 424.416 429.767 593.39 c 6,4,-1
 439.896 603 l 5,5,-1
 658.632 603 l 5,6,-1
 582.521 540.885 l 6,7,8
 435.566 420.951 435.566 420.951 411.03 284.902 c 5,9,10
 483.515 275.378 483.515 275.378 519.393 225.453 c 132,-1,11
 555.271 175.528 555.271 175.528 550.762 97.084 c 4,12,13
 547.06 31.8857 547.06 31.8857 499.069 -1.55762 c 132,-1,14
 451.08 -35 451.08 -35 373.818 -35 c 4,15,16
 306.831 -35 306.831 -35 262.295 1.15527 c 132,-1,17
 217.759 37.3105 217.759 37.3105 203.706 102.999 c 4,0,1
EndSplineSet
EndChar

StartChar: uni0615
Encoding: 1557 1557 35
Width: 0
GlyphClass: 4
Flags: W
LayerCount: 2
Fore
SplineSet
466.096 1456.96 m 1,0,-1
 552.12 1456.96 l 2,1,2
 639.138 1456.96 639.138 1456.96 665.862 1472.75 c 0,3,4
 697.288 1492.32 697.288 1492.32 713.059 1508.3 c 128,-1,5
 728.83 1524.27 728.83 1524.27 728.83 1541.65 c 0,6,7
 728.83 1583.09 728.83 1583.09 689.03 1604.94 c 1,8,9
 681.399 1607.6 681.399 1607.6 672.751 1605.46 c 128,-1,10
 664.102 1603.31 664.102 1603.31 640.309 1592.64 c 128,-1,11
 616.515 1581.97 616.515 1581.97 601.865 1576.19 c 0,12,13
 543.049 1552.44 543.049 1552.44 483.147 1478.12 c 2,14,-1
 466.096 1456.96 l 1,0,-1
576.73 1374.89 m 2,15,-1
 282.64 1374.89 l 1,16,-1
 282.64 1456.96 l 1,17,-1
 369.31 1456.96 l 1,18,-1
 369.31 1883.89 l 1,19,-1
 452.45 1883.89 l 1,20,-1
 452.45 1497.67 l 1,21,-1
 477.109 1547.67 l 2,22,23
 513.381 1621.22 513.381 1621.22 619.878 1662.18 c 0,24,25
 682.718 1686.12 682.718 1686.12 752.956 1660.03 c 0,26,27
 814.11 1636.51 814.11 1636.51 814.11 1557.7 c 0,28,29
 814.11 1466.67 814.11 1466.67 750.648 1417.09 c 0,30,31
 696.384 1374.89 696.384 1374.89 576.73 1374.89 c 2,15,-1
EndSplineSet
EndChar

StartChar: uni061B
Encoding: 1563 1563 36
Width: 698
GlyphClass: 2
Flags: W
LayerCount: 2
Fore
SplineSet
149.834 630.936 m 4,0,1
 137.377 689.153 137.377 689.153 158.873 782.769 c 4,2,3
 197.811 952.353 197.811 952.353 375.895 1121.33 c 6,4,-1
 386.023 1130.94 l 5,5,-1
 604.76 1130.94 l 5,6,-1
 528.648 1068.82 l 6,7,8
 381.693 948.888 381.693 948.888 357.158 812.839 c 5,9,10
 429.643 803.314 429.643 803.314 465.52 753.39 c 132,-1,11
 501.398 703.465 501.398 703.465 496.889 625.021 c 4,12,13
 493.188 559.822 493.188 559.822 445.197 526.379 c 132,-1,14
 397.207 492.937 397.207 492.937 319.945 492.937 c 4,15,16
 252.959 492.937 252.959 492.937 208.422 529.092 c 132,-1,17
 163.887 565.247 163.887 565.247 149.834 630.936 c 4,0,1
184.55 334.903 m 1,18,-1
 468.214 334.903 l 1,19,-1
 468.214 7.99002 l 1,20,-1
 184.55 7.99002 l 1,21,-1
 184.55 334.903 l 1,18,-1
EndSplineSet
EndChar

StartChar: uni061F
Encoding: 1567 1567 37
Width: 1093
GlyphClass: 2
Flags: W
LayerCount: 2
Fore
SplineSet
739.78 334.903 m 1,0,-1
 739.78 7.99002 l 1,1,-1
 464.162 7.99002 l 1,2,-1
 464.162 334.903 l 1,3,-1
 739.78 334.903 l 1,0,-1
470.197 411.315 m 1,4,-1
 470.197 570.749 l 2,5,6
 470.197 621.269 470.197 621.269 467.357 649.671 c 0,7,8
 464.747 675.774 464.747 675.774 459.658 694.151 c 0,9,10
 453.108 713.826 453.108 713.826 437.419 735.147 c 0,11,12
 419.406 759.626 419.406 759.626 374.188 804.845 c 2,13,-1
 285.971 891.058 l 1,14,15
 191.359 981.463 191.359 981.463 152.44 1055.53 c 0,16,17
 112.133 1132.23 112.133 1132.23 112.133 1217.48 c 0,18,19
 112.133 1393.66 112.133 1393.66 236.553 1501.91 c 0,20,21
 358.777 1608.25 358.777 1608.25 557.213 1608.25 c 0,22,23
 665.881 1608.25 665.881 1608.25 767.822 1578.66 c 0,24,25
 865.845 1550.22 865.845 1550.22 961.761 1493.16 c 2,26,-1
 985.195 1479.22 l 1,27,-1
 985.195 1203.53 l 1,28,-1
 910.773 1252.85 l 2,29,30
 826.293 1308.83 826.293 1308.83 748.884 1339.11 c 0,31,32
 665.156 1371.85 665.156 1371.85 592.416 1371.85 c 0,33,34
 496.794 1371.85 496.794 1371.85 440.881 1324.9 c 0,35,36
 387.75 1280.29 387.75 1280.29 387.75 1207.42 c 0,37,38
 387.75 1167.21 387.75 1167.21 409.073 1127.9 c 0,39,40
 431.935 1085.77 431.935 1085.77 485.384 1036.06 c 1,41,-1
 576.067 946.392 l 1,42,43
 671.775 854.736 671.775 854.736 702.669 783.022 c 0,44,45
 733.745 710.884 733.745 710.884 733.745 601.929 c 2,46,-1
 733.745 411.315 l 1,47,-1
 470.197 411.315 l 1,4,-1
EndSplineSet
EndChar

StartChar: uni0621
Encoding: 1569 1569 38
Width: 1081
VWidth: 2237
GlyphClass: 2
Flags: W
LayerCount: 2
Fore
SplineSet
136.41 92.2627 m 1,0,-1
 136.41 358.018 l 1,1,-1
 179.388 364.863 l 2,2,3
 226.139 372.31 226.139 372.31 302.627 395.35 c 0,4,5
 318.36 399.977 318.36 399.977 333.107 405.24 c 1,6,7
 245.812 438.936 245.812 438.936 203.845 501.479 c 0,8,9
 140.69 595.609 140.69 595.609 140.69 697.061 c 0,10,11
 140.69 771.336 140.69 771.336 164.445 856.669 c 1,12,13
 200.745 997.778 200.745 997.778 323.595 1072.92 c 0,14,15
 438.625 1143.8 438.625 1143.8 554.26 1143.8 c 0,16,17
 669.683 1143.8 669.683 1143.8 766.597 1121.7 c 2,18,-1
 806.26 1112.66 l 1,19,-1
 806.26 833.875 l 1,20,-1
 741.038 852.815 l 2,21,22
 650.342 879.152 650.342 879.152 587.271 877.351 c 0,23,24
 541.599 876.455 541.599 876.455 496.765 852.668 c 1,25,26
 453.241 830.906 453.241 830.906 434.245 798.976 c 128,-1,27
 415.248 767.045 415.248 767.045 415.71 715.42 c 0,28,29
 415.71 621.872 415.71 621.872 600.871 575.579 c 0,30,31
 652.465 562.907 652.465 562.907 705.188 576.545 c 0,32,33
 765.967 592.582 765.967 592.582 816.573 619.987 c 2,34,-1
 891.86 660.759 l 1,35,-1
 891.86 378.879 l 1,36,-1
 868.582 363.804 l 2,37,38
 768.068 298.709 768.068 298.709 552.005 214.393 c 0,39,40
 316.755 122.733 316.755 122.733 195.906 102.314 c 2,41,-1
 136.41 92.2627 l 1,0,-1
EndSplineSet
EndChar

StartChar: uni0627
Encoding: 1575 1575 44
Width: 544
VWidth: 2237
GlyphClass: 2
Flags: W
AnchorPoint: "Anchor-10" 254.5 1494 basechar 0
AnchorPoint: "Anchor-7" 244.5 -60.5 basechar 0
LayerCount: 2
Fore
SplineSet
112.06 1400.96 m 5,0,-1
 380.94 1400.96 l 5,1,-1
 380.94 1.5 l 1,2,-1
 112.06 1.5 l 1,3,-1
 112.06 1400.96 l 5,0,-1
EndSplineSet
Substitution2: "'fina' Terminal Forms in Arabic lookup 9 subtable" uniFE8E
EndChar

StartChar: uni062D
Encoding: 1581 1581 50
Width: 1425
VWidth: 2232
GlyphClass: 2
Flags: W
AnchorPoint: "Anchor-10" 597.5 1121.5 basechar 0
AnchorPoint: "Anchor-7" 626.84 -591.5 basechar 0
LayerCount: 2
Fore
SplineSet
68.7744 831.36 m 2,0,1
 361.726 897.4 361.726 897.4 570.96 897.4 c 0,2,3
 880.674 897.4 880.674 897.4 1093.21 840.965 c 2,4,-1
 1131.12 830.898 l 1,5,-1
 1131.12 606.777 l 1,6,-1
 1088.75 599.501 l 2,7,8
 442.562 488.534 442.562 488.534 363.621 176.928 c 0,9,10
 313.398 -19.5762 313.398 -19.5762 428.258 -134.438 c 0,11,12
 575.982 -282.16 575.982 -282.16 905.077 -222.322 c 0,13,14
 999.328 -205.186 999.328 -205.186 1228.05 -117.012 c 2,15,-1
 1297.4 -90.2783 l 1,16,-1
 1297.4 -365.004 l 1,17,-1
 1267.96 -378.736 l 2,18,19
 1069.35 -471.363 1069.35 -471.363 865.899 -494.18 c 0,20,21
 524.91 -532.803 524.91 -532.803 297.208 -390.774 c 0,22,23
 176.247 -315.337 176.247 -315.337 119.872 -186.391 c 128,-1,24
 63.4971 -57.4453 63.4971 -57.4453 71.2461 116.788 c 0,25,26
 85.5127 433.026 85.5127 433.026 415.482 631.509 c 1,27,28
 365.895 627.351 365.895 627.351 317.583 621.578 c 0,29,30
 198.819 607.438 198.819 607.438 99.0156 567.31 c 2,31,-1
 28.9902 539.154 l 1,32,-1
 28.9902 822.392 l 1,33,-1
 68.7744 831.36 l 2,0,1
EndSplineSet
Substitution2: "'fina' Terminal Forms in Arabic lookup 9 subtable" uniFEA2
Substitution2: "'medi' Medial Forms in Arabic lookup 11 subtable" uniFEA4
Substitution2: "'init' Initial Forms in Arabic lookup 13 subtable" uniFEA3
EndChar

StartChar: uni062F
Encoding: 1583 1583 52
Width: 953
VWidth: 2237
GlyphClass: 2
Flags: W
AnchorPoint: "Anchor-10" 270.58 1111.5 basechar 0
AnchorPoint: "Anchor-7" 330.5 -119 basechar 0
LayerCount: 2
Fore
SplineSet
538.889 299.34 m 0,0,1
 584.28 309.443 584.28 309.443 595.34 336.587 c 0,2,3
 607.156 365.588 607.156 365.588 591.51 413.47 c 0,4,5
 533.609 586.801 533.609 586.801 235.274 764.007 c 2,6,-1
 189.296 791.319 l 1,7,-1
 339.393 1018.69 l 1,8,-1
 381.241 993.719 l 2,9,10
 814.997 734.865 814.997 734.865 859.015 418.662 c 0,11,12
 882.147 253.756 882.147 253.756 789.622 151.336 c 0,13,14
 653.981 2.50098 653.981 2.50098 396.447 3.71094 c 0,15,16
 167.661 4.78906 167.661 4.78906 82.1641 22.9297 c 2,17,-1
 41.75 31.5049 l 1,18,-1
 41.75 312.335 l 1,19,-1
 100.97 302.664 l 2,20,21
 364.246 259.672 364.246 259.672 538.889 299.34 c 0,0,1
EndSplineSet
Substitution2: "'fina' Terminal Forms in Arabic lookup 9 subtable" uniFEAA
EndChar

StartChar: uni0631
Encoding: 1585 1585 54
Width: 839
VWidth: 2237
GlyphClass: 2
Flags: W
AnchorPoint: "Anchor-10" 372.7 849.348 basechar 0
AnchorPoint: "Anchor-7" 264.291 -554.16 basechar 0
LayerCount: 2
Fore
SplineSet
491.116 156.422 m 0,0,1
 511.021 319.371 511.021 319.371 411.377 462.944 c 2,2,-1
 378.563 510.224 l 1,3,-1
 616.704 636.077 l 1,4,-1
 642.307 598.042 l 2,5,6
 787.928 381.703 787.928 381.703 755.85 119.153 c 1,7,8
 722.722 -139.682 722.722 -139.682 538.808 -286.772 c 128,-1,9
 354.895 -433.863 354.895 -433.863 35.0439 -465.348 c 2,10,-1
 -11.7969 -469.959 l 1,11,-1
 -59.501 -205.254 l 1,12,-1
 -2.95215 -200.6 l 2,13,14
 233.555 -180.933 233.555 -180.933 352.717 -92.248 c 128,-1,15
 471.879 -3.56348 471.879 -3.56348 491.116 156.422 c 0,0,1
EndSplineSet
PairPos2: "'kern' Horizontal Kerning lookup 15-1" uniFEDF dx=-70 dy=0 dh=-70 dv=0 dx=0 dy=0 dh=0 dv=0
PairPos2: "'kern' Horizontal Kerning lookup 15-1" uniFBAC dx=-70 dy=0 dh=-70 dv=0 dx=0 dy=0 dh=0 dv=0
PairPos2: "'kern' Horizontal Kerning lookup 15-1" uniFB90 dx=-70 dy=0 dh=-70 dv=0 dx=0 dy=0 dh=0 dv=0
PairPos2: "'kern' Horizontal Kerning lookup 15-1" uni06A9 dx=-70 dy=0 dh=-70 dv=0 dx=0 dy=0 dh=0 dv=0
PairPos2: "'kern' Horizontal Kerning lookup 15-1" uni0649 dx=-70 dy=0 dh=-70 dv=0 dx=0 dy=0 dh=0 dv=0
PairPos2: "'kern' Horizontal Kerning lookup 15-1" uni0647 dx=-70 dy=0 dh=-70 dv=0 dx=0 dy=0 dh=0 dv=0
PairPos2: "'kern' Horizontal Kerning lookup 15-1" uniFEE7 dx=-70 dy=0 dh=-70 dv=0 dx=0 dy=0 dh=0 dv=0
PairPos2: "'kern' Horizontal Kerning lookup 15-1" uniFEE3 dx=-70 dy=0 dh=-70 dv=0 dx=0 dy=0 dh=0 dv=0
PairPos2: "'kern' Horizontal Kerning lookup 15-1" uni0645 dx=-70 dy=0 dh=-70 dv=0 dx=0 dy=0 dh=0 dv=0
PairPos2: "'kern' Horizontal Kerning lookup 15-1" uni0644 dx=-70 dy=0 dh=-70 dv=0 dx=0 dy=0 dh=0 dv=0
PairPos2: "'kern' Horizontal Kerning lookup 15-1" uniFEDB dx=-70 dy=0 dh=-70 dv=0 dx=0 dy=0 dh=0 dv=0
PairPos2: "'kern' Horizontal Kerning lookup 15-1" uniFED7 dx=-70 dy=0 dh=-70 dv=0 dx=0 dy=0 dh=0 dv=0
PairPos2: "'kern' Horizontal Kerning lookup 15-1" uni0642 dx=-70 dy=0 dh=-70 dv=0 dx=0 dy=0 dh=0 dv=0
PairPos2: "'kern' Horizontal Kerning lookup 15-1" uniFED3 dx=-70 dy=0 dh=-70 dv=0 dx=0 dy=0 dh=0 dv=0
PairPos2: "'kern' Horizontal Kerning lookup 15-1" uni0641 dx=-70 dy=0 dh=-70 dv=0 dx=0 dy=0 dh=0 dv=0
PairPos2: "'kern' Horizontal Kerning lookup 15-1" uniFECF dx=-70 dy=0 dh=-70 dv=0 dx=0 dy=0 dh=0 dv=0
PairPos2: "'kern' Horizontal Kerning lookup 15-1" uniFECB dx=-70 dy=0 dh=-70 dv=0 dx=0 dy=0 dh=0 dv=0
PairPos2: "'kern' Horizontal Kerning lookup 15-1" uniFEC7 dx=-70 dy=0 dh=-70 dv=0 dx=0 dy=0 dh=0 dv=0
PairPos2: "'kern' Horizontal Kerning lookup 15-1" uni0638 dx=-70 dy=0 dh=-70 dv=0 dx=0 dy=0 dh=0 dv=0
PairPos2: "'kern' Horizontal Kerning lookup 15-1" uniFEC3 dx=-70 dy=0 dh=-70 dv=0 dx=0 dy=0 dh=0 dv=0
PairPos2: "'kern' Horizontal Kerning lookup 15-1" uni0637 dx=-70 dy=0 dh=-70 dv=0 dx=0 dy=0 dh=0 dv=0
PairPos2: "'kern' Horizontal Kerning lookup 15-1" uniFEBF dx=-70 dy=0 dh=-70 dv=0 dx=0 dy=0 dh=0 dv=0
PairPos2: "'kern' Horizontal Kerning lookup 15-1" uni0636 dx=-70 dy=0 dh=-70 dv=0 dx=0 dy=0 dh=0 dv=0
PairPos2: "'kern' Horizontal Kerning lookup 15-1" uniFEBB dx=-70 dy=0 dh=-70 dv=0 dx=0 dy=0 dh=0 dv=0
PairPos2: "'kern' Horizontal Kerning lookup 15-1" uni0635 dx=-70 dy=0 dh=-70 dv=0 dx=0 dy=0 dh=0 dv=0
PairPos2: "'kern' Horizontal Kerning lookup 15-1" uniFEB7 dx=-70 dy=0 dh=-70 dv=0 dx=0 dy=0 dh=0 dv=0
PairPos2: "'kern' Horizontal Kerning lookup 15-1" uni0634 dx=-70 dy=0 dh=-70 dv=0 dx=0 dy=0 dh=0 dv=0
PairPos2: "'kern' Horizontal Kerning lookup 15-1" uniFEB3 dx=-70 dy=0 dh=-70 dv=0 dx=0 dy=0 dh=0 dv=0
PairPos2: "'kern' Horizontal Kerning lookup 15-1" uni0633 dx=-70 dy=0 dh=-70 dv=0 dx=0 dy=0 dh=0 dv=0
PairPos2: "'kern' Horizontal Kerning lookup 15-1" uni0630 dx=-70 dy=0 dh=-70 dv=0 dx=0 dy=0 dh=0 dv=0
PairPos2: "'kern' Horizontal Kerning lookup 15-1" uni062F dx=-70 dy=0 dh=-70 dv=0 dx=0 dy=0 dh=0 dv=0
PairPos2: "'kern' Horizontal Kerning lookup 15-1" uniFEA7 dx=-70 dy=0 dh=-70 dv=0 dx=0 dy=0 dh=0 dv=0
PairPos2: "'kern' Horizontal Kerning lookup 15-1" uniFEA3 dx=-70 dy=0 dh=-70 dv=0 dx=0 dy=0 dh=0 dv=0
PairPos2: "'kern' Horizontal Kerning lookup 15-1" uniFE9F dx=-70 dy=0 dh=-70 dv=0 dx=0 dy=0 dh=0 dv=0
PairPos2: "'kern' Horizontal Kerning lookup 15-1" uniFE9B dx=-70 dy=0 dh=-70 dv=0 dx=0 dy=0 dh=0 dv=0
PairPos2: "'kern' Horizontal Kerning lookup 15-1" uni062B dx=-70 dy=0 dh=-70 dv=0 dx=0 dy=0 dh=0 dv=0
PairPos2: "'kern' Horizontal Kerning lookup 15-1" uniFE97 dx=-70 dy=0 dh=-70 dv=0 dx=0 dy=0 dh=0 dv=0
PairPos2: "'kern' Horizontal Kerning lookup 15-1" uni062A dx=-70 dy=0 dh=-70 dv=0 dx=0 dy=0 dh=0 dv=0
PairPos2: "'kern' Horizontal Kerning lookup 15-1" uni0629 dx=-70 dy=0 dh=-70 dv=0 dx=0 dy=0 dh=0 dv=0
PairPos2: "'kern' Horizontal Kerning lookup 15-1" uniFE91 dx=-70 dy=0 dh=-70 dv=0 dx=0 dy=0 dh=0 dv=0
PairPos2: "'kern' Horizontal Kerning lookup 15-1" uni0628 dx=-70 dy=0 dh=-70 dv=0 dx=0 dy=0 dh=0 dv=0
PairPos2: "'kern' Horizontal Kerning lookup 15-1" uni0627 dx=-70 dy=0 dh=-70 dv=0 dx=0 dy=0 dh=0 dv=0
PairPos2: "'kern' Horizontal Kerning lookup 15-1" uni0622 dx=-70 dy=0 dh=-70 dv=0 dx=0 dy=0 dh=0 dv=0
PairPos2: "'kern' Horizontal Kerning lookup 15-1" uniFB94 dx=-70 dy=0 dh=-70 dv=0 dx=0 dy=0 dh=0 dv=0
PairPos2: "'kern' Horizontal Kerning lookup 15-1" afii57509 dx=-70 dy=0 dh=-70 dv=0 dx=0 dy=0 dh=0 dv=0
PairPos2: "'kern' Horizontal Kerning lookup 15-1" uniFB56 dx=-70 dy=0 dh=-70 dv=0 dx=0 dy=0 dh=0 dv=0
PairPos2: "'kern' Horizontal Kerning lookup 15-1" afii57506 dx=-70 dy=0 dh=-70 dv=0 dx=0 dy=0 dh=0 dv=0
Substitution2: "'fina' Terminal Forms in Arabic lookup 9 subtable" uniFEAE
EndChar

StartChar: uni0633
Encoding: 1587 1587 56
Width: 2426
VWidth: 2237
GlyphClass: 2
Flags: W
AnchorPoint: "Anchor-10" 547.51 902.5 basechar 0
AnchorPoint: "Anchor-7" 481.5 -558.03 basechar 0
LayerCount: 2
Fore
SplineSet
1052 239.083 m 0,0,1
 1051.43 364.569 1051.43 364.569 972.387 584.081 c 2,2,-1
 947.799 652.36 l 1,3,-1
 1228.96 652.36 l 1,4,-1
 1238.57 613.648 l 2,5,6
 1266.24 502.209 1266.24 502.209 1303.56 413.203 c 0,7,8
 1333.77 341.16 1333.77 341.16 1378.3 309.37 c 128,-1,9
 1422.84 277.579 1422.84 277.579 1489.04 278.154 c 0,10,11
 1511.06 278.346 1511.06 278.346 1529.84 293.686 c 128,-1,12
 1548.62 309.025 1548.62 309.025 1565.66 343.604 c 128,-1,13
 1582.7 378.183 1582.7 378.183 1592.75 444.134 c 128,-1,14
 1602.8 510.085 1602.8 510.085 1603.36 601.673 c 2,15,-1
 1603.67 652.36 l 1,16,-1
 1826.13 652.36 l 1,17,-1
 1826.12 601.346 l 2,18,19
 1826.1 512.411 1826.1 512.411 1835.29 446.528 c 128,-1,20
 1844.48 380.646 1844.48 380.646 1860.13 344.92 c 128,-1,21
 1875.79 309.193 1875.79 309.193 1892.89 291.998 c 128,-1,22
 1909.99 274.802 1909.99 274.802 1929.28 272.726 c 0,23,24
 1968.97 268.725 1968.97 268.725 1996.95 290.462 c 0,25,26
 2031.2 316.417 2031.2 316.417 2046.76 386.63 c 128,-1,27
 2062.33 456.843 2062.33 456.843 2050.11 573.185 c 1,28,29
 2040.57 640.362 2040.57 640.362 2027.23 735.899 c 2,30,-1
 2020.49 783.834 l 1,31,-1
 2284.16 835.054 l 1,32,-1
 2296.76 789.623 l 2,33,34
 2327.01 680.462 2327.01 680.462 2334.46 487.601 c 0,35,36
 2343.42 272.973 2343.42 272.973 2225.69 134.771 c 1,37,38
 2113.9 5.40625 2113.9 5.40625 1988.43 -0.510742 c 0,39,40
 1812.3 -9.3252 1812.3 -9.3252 1720.76 90.418 c 1,41,42
 1639.83 1.72559 1639.83 1.72559 1458.66 1.55859 c 0,43,44
 1361.64 1.45605 1361.64 1.45605 1297.66 33.75 c 1,45,46
 1268.91 -100.553 1268.91 -100.553 1217.96 -187.652 c 0,47,48
 1066.93 -443.056 1066.93 -443.056 693.613 -439.798 c 0,49,50
 361.326 -437.658 361.326 -437.658 201.4 -273.316 c 0,51,52
 39 -105.431 39 -105.431 39 151.201 c 0,53,54
 39 394.582 39 394.582 151.575 594.249 c 2,55,-1
 171.522 629.628 l 1,56,-1
 433.736 552.05 l 1,57,-1
 412.141 499.739 l 2,58,59
 325.866 290.76 325.866 290.76 323.998 149.721 c 1,60,61
 323.134 -1.77148 323.134 -1.77148 409.509 -77.3525 c 0,62,63
 501.471 -157.168 501.471 -157.168 688.083 -160.811 c 0,64,65
 826.587 -163.99 826.587 -163.99 906.402 -119.694 c 128,-1,66
 986.217 -75.3975 986.217 -75.3975 1020.11 17.124 c 0,67,68
 1052 104.166 1052 104.166 1052 239.083 c 0,0,1
EndSplineSet
Substitution2: "'fina' Terminal Forms in Arabic lookup 9 subtable" uniFEB2
Substitution2: "'medi' Medial Forms in Arabic lookup 11 subtable" uniFEB4
Substitution2: "'init' Initial Forms in Arabic lookup 13 subtable" uniFEB3
EndChar

StartChar: uni0635
Encoding: 1589 1589 58
Width: 2427
VWidth: 2237
GlyphClass: 2
Flags: W
AnchorPoint: "Anchor-10" 481.84 902.5 basechar 0
AnchorPoint: "Anchor-7" 481.84 -595.5 basechar 0
LayerCount: 2
Fore
SplineSet
1301.21 37.6494 m 1,0,1
 1272.19 -105.159 1272.19 -105.159 1218.97 -196.151 c 0,2,3
 1069.51 -451.674 1069.51 -451.674 694.563 -448.4 c 0,4,5
 362.276 -446.261 362.276 -446.261 202.343 -281.911 c 0,6,7
 39.9502 -114.034 39.9502 -114.034 39.9502 142.598 c 0,8,9
 39.9502 385.979 39.9502 385.979 152.524 585.646 c 2,10,-1
 172.473 621.025 l 1,11,-1
 434.687 543.447 l 1,12,-1
 413.091 491.137 l 2,13,14
 327.035 282.687 327.035 282.687 324.947 141.078 c 1,15,16
 324.373 -10.6279 324.373 -10.6279 410.458 -85.9551 c 0,17,18
 502.421 -165.771 502.421 -165.771 689.023 -169.413 c 0,19,20
 832.303 -172.649 832.303 -172.649 914.705 -124.71 c 128,-1,21
 997.108 -76.7695 997.108 -76.7695 1031.71 24.1387 c 0,22,23
 1052.95 86.0947 1052.95 86.0947 1052.95 230.598 c 0,24,25
 1052.95 360.318 1052.95 360.318 1013.65 501.307 c 2,26,-1
 995.621 566 l 1,27,-1
 1260.42 566 l 1,28,-1
 1266.59 522.085 l 2,29,30
 1275.65 457.433 1275.65 457.433 1306.44 412.269 c 1,31,32
 1430.27 613.191 1430.27 613.191 1489.22 673.299 c 0,33,34
 1625.7 812.415 1625.7 812.415 1742.9 862.899 c 0,35,36
 1961.49 956.803 1961.49 956.803 2132.92 881.622 c 0,37,38
 2235.5 836.975 2235.5 836.975 2285.65 735.223 c 128,-1,39
 2335.8 633.471 2335.8 633.471 2335.8 485.455 c 0,40,41
 2335.8 273.157 2335.8 273.157 2142.25 139.224 c 0,42,43
 1944.61 2.08398 1944.61 2.08398 1661.85 -0.0605469 c 2,44,-1
 1420.62 -1.6543 l 2,45,46
 1355.12 -2.08691 1355.12 -2.08691 1301.21 37.6494 c 1,0,1
1517.02 289.744 m 1,47,-1
 1612.46 289.744 l 2,48,49
 1781.88 289.744 1781.88 289.744 1920.79 354.255 c 0,50,51
 2043.42 411.202 2043.42 411.202 2059.24 503.82 c 1,52,53
 2067.33 559.867 2067.33 559.867 2045.75 589.823 c 128,-1,54
 2024.01 619.978 2024.01 619.978 1968.38 629.641 c 0,55,56
 1860.29 647.936 1860.29 647.936 1747.47 554.501 c 1,57,58
 1619.92 446.023 1619.92 446.023 1517.02 289.744 c 1,47,-1
EndSplineSet
Substitution2: "'fina' Terminal Forms in Arabic lookup 9 subtable" uniFEBA
Substitution2: "'medi' Medial Forms in Arabic lookup 11 subtable" uniFEBC
Substitution2: "'init' Initial Forms in Arabic lookup 13 subtable" uniFEBB
EndChar

StartChar: uni0637
Encoding: 1591 1591 60
Width: 1447
VWidth: 2237
GlyphClass: 2
Flags: W
AnchorPoint: "Anchor-10" 287.72 1527.47 basechar 0
AnchorPoint: "Anchor-7" 284.72 -114 basechar 0
LayerCount: 2
Fore
SplineSet
589.821 292.009 m 1,0,-1
 685.264 292.009 l 2,1,2
 854.683 292.009 854.683 292.009 993.599 356.518 c 0,3,4
 1116.21 413.459 1116.21 413.459 1132.05 506.083 c 1,5,6
 1140.15 562.117 1140.15 562.117 1118.55 592.084 c 128,-1,7
 1096.82 622.24 1096.82 622.24 1041.17 631.907 c 0,8,9
 933.102 650.197 933.102 650.197 820.284 556.772 c 1,10,11
 692.652 448.214 692.652 448.214 589.821 292.009 c 1,0,-1
743.536 5.83008 m 2,12,-1
 186.463 0.5 l 1,13,-1
 -43.25 0.5 l 1,14,-1
 -43.25 281.38 l 1,15,-1
 152.28 281.38 l 1,16,-1
 152.28 1398.89 l 1,17,-1
 421.16 1398.89 l 1,18,-1
 421.16 497.218 l 1,19,20
 597.874 773.133 597.874 773.133 825.902 880.471 c 0,21,22
 1004.34 963.865 1004.34 963.865 1186.73 888.415 c 0,23,24
 1291.96 844.527 1291.96 844.527 1343.86 744.065 c 128,-1,25
 1395.76 643.604 1395.76 643.604 1395.76 497.639 c 0,26,27
 1395.76 285.411 1395.76 285.411 1208.88 146.763 c 0,28,29
 1023.02 8.50415 1023.02 8.50415 743.536 5.83008 c 2,12,-1
EndSplineSet
Substitution2: "'fina' Terminal Forms in Arabic lookup 9 subtable" uniFEC2
Substitution2: "'medi' Medial Forms in Arabic lookup 11 subtable" uniFEC4
Substitution2: "'init' Initial Forms in Arabic lookup 13 subtable" uniFEC3
EndChar

StartChar: uni0639
Encoding: 1593 1593 62
Width: 1362
VWidth: 2237
GlyphClass: 2
Flags: W
AnchorPoint: "Anchor-10" 520.325 1403.51 basechar 0
AnchorPoint: "Anchor-7" 724.235 -598.76 basechar 0
LayerCount: 2
Fore
SplineSet
665.802 -238.473 m 0,0,1
 918.222 -226.565 918.222 -226.565 1110.13 -127.533 c 2,2,-1
 1169.46 -96.918 l 1,3,-1
 1226.65 -364.833 l 1,4,-1
 1190.62 -382.254 l 2,5,6
 1005.73 -471.645 1005.73 -471.645 778.889 -496.858 c 0,7,8
 641.748 -512.418 641.748 -512.418 522.382 -500.749 c 0,9,10
 272.271 -477.321 272.271 -477.321 143.234 -320.678 c 0,11,12
 12.3652 -162.118 12.3652 -162.118 31.5117 78.041 c 0,13,14
 50.2539 317.507 50.2539 317.507 315.801 521.219 c 1,15,16
 296.555 532.723 296.555 532.723 277.224 547.545 c 0,17,18
 153.561 642.357 153.561 642.357 147.282 817.316 c 0,19,20
 142.856 960.486 142.856 960.486 215.898 1059.1 c 128,-1,21
 288.94 1157.72 288.94 1157.72 430.533 1201.84 c 0,22,23
 614.78 1259.66 614.78 1259.66 853.651 1136.34 c 2,24,-1
 891.073 1117.01 l 1,25,-1
 821.376 880.311 l 1,26,-1
 767.167 906.688 l 2,27,28
 630.128 973.36 630.128 973.36 536.139 958.677 c 0,29,30
 465.012 947.565 465.012 947.565 436.446 917.648 c 128,-1,31
 407.88 887.732 407.88 887.732 407.88 829.72 c 0,32,33
 407.88 781.929 407.88 781.929 422.769 754.662 c 128,-1,34
 437.658 727.395 437.658 727.395 469.131 711.6 c 0,35,36
 502.986 694.608 502.986 694.608 525.065 690.386 c 1,37,-1
 999.04 733.75 l 1,38,-1
 999.04 461.021 l 1,39,-1
 953.078 456.457 l 2,40,41
 687.314 430.075 687.314 430.075 538.33 345.028 c 0,42,43
 313.843 215.34 313.843 215.34 306.54 49.7842 c 0,44,45
 300.487 -95.3037 300.487 -95.3037 392.986 -165.175 c 0,46,47
 501.444 -245.909 501.444 -245.909 665.802 -238.473 c 0,0,1
EndSplineSet
Substitution2: "'fina' Terminal Forms in Arabic lookup 9 subtable" uniFECA
Substitution2: "'medi' Medial Forms in Arabic lookup 11 subtable" uniFECC
Substitution2: "'init' Initial Forms in Arabic lookup 13 subtable" uniFECB
EndChar

StartChar: afii57440
Encoding: 1600 1600 64
Width: 642
VWidth: 2237
GlyphClass: 2
Flags: W
AnchorPoint: "Anchor-10" 321 1330.5 basechar 0
AnchorPoint: "Anchor-7" 321 -60.5 basechar 0
LayerCount: 2
Fore
SplineSet
-59.4004 0 m 1,0,-1
 -59.4004 280.979 l 1,1,-1
 701.4 280.979 l 1,2,-1
 701.4 0 l 1,3,-1
 -59.4004 0 l 1,0,-1
EndSplineSet
EndChar

StartChar: uni0643
Encoding: 1603 1603 67
Width: 1785
VWidth: 2237
GlyphClass: 2
Flags: W
AnchorPoint: "Anchor-10" 531 1450.5 basechar 0
AnchorPoint: "Anchor-7" 789 -167.5 basechar 0
LayerCount: 2
Fore
SplineSet
1100.77 1296.26 m 1,0,-1
 1100.77 1132.8 l 1,1,-1
 1053.22 1129.58 l 2,2,3
 988.292 1125.18 988.292 1125.18 956.135 1113.32 c 0,4,5
 907.515 1095.09 907.515 1095.09 895.363 1079.21 c 1,6,7
 895.823 1065.62 895.823 1065.62 900.854 1057.7 c 1,8,9
 917.407 1048.87 917.407 1048.87 963.44 1042.1 c 0,10,11
 1029.79 1032.34 1029.79 1032.34 1067.38 998.013 c 0,12,13
 1110.05 959.047 1110.05 959.047 1110.05 894.298 c 0,14,15
 1110.05 831.706 1110.05 831.706 1079.4 781.285 c 128,-1,16
 1048.74 730.865 1048.74 730.865 992.405 699.007 c 0,17,18
 910.948 652.94 910.948 652.94 801.924 651.929 c 0,19,20
 734.224 651.929 734.224 651.929 675.33 662.268 c 2,21,-1
 633.147 669.672 l 1,22,-1
 633.147 839.298 l 1,23,-1
 691.029 831.415 l 2,24,25
 751.656 823.158 751.656 823.158 792.059 823.158 c 0,26,27
 856.247 823.158 856.247 823.158 894.815 838.346 c 0,28,29
 916.78 846.781 916.78 846.781 928.853 855.565 c 128,-1,30
 940.926 864.351 940.926 864.351 942.188 867.422 c 128,-1,31
 943.45 870.493 943.45 870.493 943.45 872.898 c 2,32,33
 943.45 872.898 943.45 872.898 941.537 878.277 c 1,34,35
 932.52 887.603 932.52 887.603 892.791 894.076 c 0,36,37
 817.767 905.508 817.767 905.508 773.923 950.351 c 0,38,39
 726.64 998.711 726.64 998.711 728.389 1079.2 c 0,40,41
 729.691 1131.89 729.691 1131.89 756.751 1173.62 c 128,-1,42
 783.812 1215.35 783.812 1215.35 831.628 1239.58 c 0,43,44
 924.4 1286.52 924.4 1286.52 1046.96 1293.29 c 2,45,-1
 1100.77 1296.26 l 1,0,-1
805.406 281.79 m 0,46,47
 1007.07 275.876 1007.07 275.876 1125.35 288.159 c 0,48,49
 1397.67 316.437 1397.67 316.437 1410.92 442.888 c 2,50,-1
 1416.43 495.479 l 1,51,-1
 1416.43 1538.96 l 1,52,-1
 1689.3 1538.96 l 1,53,-1
 1689.3 462.811 l 2,54,55
 1689.3 443.238 1689.3 443.238 1686.52 402.676 c 0,56,57
 1677.84 275.945 1677.84 275.945 1588.99 186.933 c 128,-1,58
 1500.15 97.9209 1500.15 97.9209 1342.84 48.8164 c 0,59,60
 1186.15 -0.0917969 1186.15 -0.0917969 910.594 1.99805 c 0,61,62
 562.537 4.87207 562.537 4.87207 435.984 40.4004 c 0,63,64
 261.074 90.2256 261.074 90.2256 160.593 207.735 c 128,-1,65
 60.1104 325.245 60.1104 325.245 41.2842 502.625 c 0,66,67
 27.4953 632.794 27.4953 632.794 80.0684 777.421 c 2,68,-1
 94.9893 818.468 l 1,69,-1
 350.633 768.183 l 1,70,-1
 337.985 718.272 l 6,71,72
 308.318 601.198 308.318 601.198 317.481 536.255 c 0,73,74
 331.532 440.346 331.532 440.346 384.432 383.965 c 128,-1,75
 437.331 327.585 437.331 327.585 536.949 303.577 c 0,76,77
 602.701 287.73 602.701 287.73 805.406 281.79 c 0,46,47
EndSplineSet
Substitution2: "'fina' Terminal Forms in Arabic lookup 9 subtable" uniFEDA
Substitution2: "'medi' Medial Forms in Arabic lookup 11 subtable" uniFEDC
Substitution2: "'init' Initial Forms in Arabic lookup 13 subtable" uniFEDB
EndChar

StartChar: uni0644
Encoding: 1604 1604 68
Width: 1314
VWidth: 2237
GlyphClass: 2
Flags: W
AnchorPoint: "Anchor-10" 443.01 1201.5 basechar 0
AnchorPoint: "Anchor-7" 503.15 -412.616 basechar 0
LayerCount: 2
Fore
SplineSet
918.768 220.736 m 0,0,1
 920.91 245.827 920.91 245.827 920.91 502.32 c 2,2,-1
 920.91 1400.03 l 5,3,-1
 1188.79 1400.03 l 1,4,-1
 1188.79 502.32 l 2,5,6
 1188.79 310.385 1188.79 310.385 1186.44 244.835 c 1,7,8
 1181.56 -13.1758 1181.56 -13.1758 1027.35 -186.693 c 1,9,10
 891.438 -336.825 891.438 -336.825 645.522 -342.282 c 0,11,12
 369.49 -348.441 369.49 -348.441 210.968 -210.628 c 0,13,14
 52.7383 -73.417 52.7383 -73.417 41.0928 171.883 c 0,15,16
 33.583 332.529 33.583 332.529 89.3477 474.621 c 2,17,-1
 104.962 514.407 l 1,18,-1
 361.093 462.965 l 1,19,-1
 345.089 409.381 l 2,20,21
 305.633 277.276 305.633 277.276 310.729 198.87 c 0,22,23
 318.772 64.2168 318.772 64.2168 398.742 -10.1152 c 0,24,25
 471.18 -77.8711 471.18 -77.8711 643.216 -71.5791 c 0,26,27
 741.276 -68.21 741.276 -68.21 810.581 -18.2461 c 0,28,29
 904.119 49.1887 904.119 49.1887 918.768 220.736 c 0,0,1
EndSplineSet
Substitution2: "'fina' Terminal Forms in Arabic lookup 9 subtable" uniFEDE
Substitution2: "'medi' Medial Forms in Arabic lookup 11 subtable" uniFEE0
Substitution2: "'init' Initial Forms in Arabic lookup 13 subtable" uniFEDF
EndChar

StartChar: uni0645
Encoding: 1605 1605 69
Width: 1113
VWidth: 2237
GlyphClass: 2
Flags: W
AnchorPoint: "Anchor-10" 544.5 1062.31 basechar 0
AnchorPoint: "Anchor-7" 125.631 -660.952 basechar 0
LayerCount: 2
Fore
SplineSet
496.927 415.685 m 4,0,1
 620.244 409.52 620.244 409.52 632.167 409.341 c 4,2,3
 717.686 409.438 717.686 409.438 759.294 421.196 c 4,4,5
 765.182 422.835 765.182 422.835 769.433 424.781 c 5,6,7
 762.858 513.324 762.858 513.324 728.287 558.979 c 132,-1,8
 693.716 604.636 693.716 604.636 626.315 621.007 c 5,9,10
 537.826 640.479 537.826 640.479 502.566 599.834 c 5,11,12
 464.193 543.371 464.193 543.371 469.133 417.399 c 5,13,14
 481.806 416.382 481.806 416.382 496.927 415.685 c 4,0,1
376 154 m 0,15,16
 334.209 154 334.209 154 302.435 91.833 c 0,17,18
 278 43.7783 278 43.7783 278 -33 c 2,19,-1
 278 -630 l 1,20,-1
 10 -630 l 1,21,-1
 10 -19 l 2,22,23
 10 187.745 10 187.745 96.9443 297.568 c 0,24,25
 145.193 359.062 145.193 359.062 216.655 384.062 c 1,26,27
 211.957 662.903 211.957 662.903 338.634 779.979 c 0,28,29
 492.72 921.223 492.72 921.223 723.192 851.793 c 1,30,31
 848.046 813.082 848.046 813.082 920.059 716.372 c 128,-1,32
 992.072 619.662 992.072 619.662 1007.7 474.519 c 0,33,34
 1018.9 372.605 1018.9 372.605 987.166 295.119 c 128,-1,35
 955.437 217.632 955.437 217.632 879.848 175.462 c 2,36,-1
 877.485 174.145 l 1,37,-1
 874.997 173.084 l 2,38,39
 803.521 142.619 803.521 142.619 655.216 148.031 c 0,40,41
 477.143 154 477.143 154 376 154 c 0,15,16
EndSplineSet
Substitution2: "'init' Initial Forms in Arabic lookup 13 subtable" uniFEE3
Substitution2: "'medi' Medial Forms in Arabic lookup 11 subtable" uniFEE4
Substitution2: "'fina' Terminal Forms in Arabic lookup 9 subtable" uniFEE2
EndChar

StartChar: uni0647
Encoding: 1607 1607 71
Width: 1002
VWidth: 2237
GlyphClass: 2
Flags: W
AnchorPoint: "Anchor-10" 438.924 1205.58 basechar 0
AnchorPoint: "Anchor-7" 471.864 -55.5596 basechar 0
LayerCount: 2
Fore
SplineSet
330.689 434.777 m 0,0,1
 309.452 380.625 309.452 380.625 326.661 340.32 c 128,-1,2
 343.828 300.112 343.828 300.112 401.277 276.738 c 0,3,4
 468.085 249.871 468.085 249.871 559.221 270.066 c 0,5,6
 589.177 276.444 589.177 276.444 604.205 289.567 c 128,-1,7
 619.233 302.691 619.233 302.691 626.717 326.686 c 0,8,9
 638.568 368.498 638.568 368.498 610.128 450.05 c 1,10,11
 566.097 550.362 566.097 550.362 461.322 626.833 c 1,12,13
 362.752 517.108 362.752 517.108 330.689 434.777 c 0,0,1
116.146 612.557 m 1,14,15
 140.153 662.01 140.153 662.01 245.567 787.469 c 1,16,-1
 192.7 818.08 l 1,17,-1
 331.723 1016.58 l 1,18,-1
 371.293 996.237 l 2,19,20
 740.221 806.545 740.221 806.545 850.432 573.24 c 0,21,22
 902.732 462.526 902.732 462.526 909.99 366.583 c 128,-1,23
 917.248 270.641 917.248 270.641 876.279 191.854 c 128,-1,24
 835.311 113.068 835.311 113.068 746.223 60.2578 c 1,25,26
 651.553 2.87207 651.553 2.87207 483.019 4.43555 c 0,27,28
 327 5.9043 327 5.9043 237.997 48.4297 c 0,29,30
 69.6797 129 69.6797 129 42.0039 282.271 c 0,31,32
 16.8779 421.417 16.8779 421.417 116.146 612.557 c 1,14,15
EndSplineSet
Substitution2: "'fina' Terminal Forms in Arabic lookup 9 subtable" uniFEEA
Substitution2: "'medi' Medial Forms in Arabic lookup 11 subtable" uniFEEC
Substitution2: "'init' Initial Forms in Arabic lookup 13 subtable" uniFEEB
EndChar

StartChar: uni0648
Encoding: 1608 1608 72
Width: 946
VWidth: 2237
GlyphClass: 2
Flags: W
AnchorPoint: "Anchor-10" 454.282 1128.17 basechar 0
AnchorPoint: "Anchor-7" 463.191 -527.141 basechar 0
LayerCount: 2
Fore
SplineSet
488.754 526.572 m 0,0,1
 466.957 529.111 466.957 529.111 452.928 523.703 c 128,-1,2
 438.899 518.295 438.899 518.295 424.711 501.95 c 0,3,4
 390.165 463.751 390.165 463.751 389.535 377.328 c 0,5,6
 389.213 345.354 389.213 345.354 398.911 326.512 c 128,-1,7
 408.609 307.669 408.609 307.669 430.272 294.5 c 0,8,9
 473.602 268.158 473.602 268.158 583.622 281.331 c 1,10,11
 586.874 424.924 586.874 424.924 539.427 499.225 c 0,12,13
 524.242 523.002 524.242 523.002 488.754 526.572 c 0,0,1
76.9902 -468.772 m 1,14,-1
 30.249 -206.008 l 1,15,-1
 85.6201 -201.018 l 2,16,17
 422.073 -170.698 422.073 -170.698 529.438 3.0918 c 1,18,19
 510.809 3.12207 510.809 3.12207 489.952 2.7998 c 0,20,21
 302.425 -0.410156 302.425 -0.410156 207.438 127.978 c 0,22,23
 124.327 240.315 124.327 240.315 131.646 401.201 c 0,24,25
 138.497 557.502 138.497 557.502 237.108 683.088 c 0,26,27
 339.336 813.278 339.336 813.278 495.579 814.633 c 0,28,29
 602.936 814.633 602.936 814.633 682.428 758.017 c 128,-1,30
 761.919 701.4 761.919 701.4 806.522 595.605 c 0,31,32
 852.429 486.847 852.429 486.847 853.014 312.455 c 0,33,34
 853.039 175.149 853.039 175.149 831.601 52.498 c 0,35,36
 790.641 -173.01 790.641 -173.01 606.46 -306.299 c 0,37,38
 421.926 -439.999 421.926 -439.999 123.302 -464.909 c 2,39,-1
 76.9902 -468.772 l 1,14,-1
EndSplineSet
Substitution2: "'fina' Terminal Forms in Arabic lookup 9 subtable" uniFEEE
EndChar

StartChar: uni0649
Encoding: 1609 1609 73
Width: 1583
VWidth: 2237
GlyphClass: 2
Flags: W
AnchorPoint: "Anchor-10" 377.847 1084.66 basechar 0
AnchorPoint: "Anchor-7" 671.548 -447.146 basechar 0
LayerCount: 2
Fore
SplineSet
1313.25 -119.547 m 0,0,1
 1076.87 -323.518 1076.87 -323.518 672.577 -313.001 c 0,2,3
 250.671 -303.071 250.671 -303.071 109.396 -25.6426 c 0,4,5
 21.0469 147.853 21.0469 147.853 40.5283 348.409 c 0,6,7
 59.0488 540.088 59.0488 540.088 167.05 721.346 c 2,8,-1
 188.339 757.074 l 1,9,-1
 451.077 665.67 l 1,10,-1
 415.481 611.066 l 2,11,12
 338.405 492.835 338.405 492.835 319.971 352.51 c 0,13,14
 298.692 198.301 298.692 198.301 352.729 106.964 c 0,15,16
 438.707 -38.2676 438.707 -38.2676 692.31 -40.0928 c 0,17,18
 946.258 -41.9404 946.258 -41.9404 1090.28 54.0371 c 0,19,20
 1153.67 96.2832 1153.67 96.2832 1182.77 132.304 c 128,-1,21
 1211.87 168.324 1211.87 168.324 1212.54 191.058 c 1,22,23
 1193.9 203.463 1193.9 203.463 1128.12 195.755 c 1,24,25
 1078.56 191.821 1078.56 191.821 947.123 199.146 c 0,26,27
 806.562 206.982 806.562 206.982 735.848 302.057 c 0,28,29
 678.194 379.349 678.194 379.349 690.176 510.551 c 0,30,31
 700.499 624.056 700.499 624.056 776.03 724.665 c 1,32,33
 895.994 880.886 895.994 880.886 1081.35 893.939 c 0,34,35
 1313.55 910.521 1313.55 910.521 1480.76 753.91 c 2,36,-1
 1518.46 718.603 l 1,37,-1
 1338.85 531.637 l 1,38,-1
 1303.46 554.771 l 2,39,40
 1238.37 597.314 1238.37 597.314 1184.39 613.214 c 128,-1,41
 1130.4 629.114 1130.4 629.114 1089.17 621.188 c 128,-1,42
 1047.94 613.261 1047.94 613.261 1011.63 584.106 c 0,43,44
 954.729 538.404 954.729 538.404 959.406 465.353 c 1,45,-1
 959.531 464.007 l 1,46,47
 974.353 460.906 974.353 460.906 1003.5 462.694 c 0,48,49
 1122.98 470.026 1122.98 470.026 1239.93 458.753 c 0,50,51
 1381.97 444.63 1381.97 444.63 1453.92 329.109 c 0,52,53
 1485.35 279.092 1485.35 279.092 1473.42 181.041 c 0,54,55
 1453.28 1.27734 1453.28 1.27734 1313.25 -119.547 c 0,0,1
EndSplineSet
Substitution2: "'fina' Terminal Forms in Arabic lookup 9 subtable" uniFEF0
Substitution2: "'medi' Medial Forms in Arabic lookup 11 subtable" uniFBE9
Substitution2: "'init' Initial Forms in Arabic lookup 13 subtable" uniFBE8
EndChar

StartChar: uni064B
Encoding: 1611 1611 75
Width: 0
VWidth: 2186
GlyphClass: 4
Flags: W
AnchorPoint: "Anchor-10" 547.84 1024.5 mark 0
AnchorPoint: "Anchor-9" 547.84 1024.5 mark 0
AnchorPoint: "Anchor-1" 547.84 1559.5 basemark 0
AnchorPoint: "Anchor-1" 547.84 1024.5 mark 0
LayerCount: 2
Fore
SplineSet
269.4 960.41 m 5,0,-1
 269.4 1087.48 l 5,1,-1
 827.28 1315.79 l 5,2,-1
 827.28 1188.72 l 5,3,-1
 269.4 960.41 l 5,0,-1
269.4 1217.21 m 5,4,-1
 269.4 1344.28 l 5,5,-1
 827.28 1572.59 l 5,6,-1
 827.28 1445.52 l 5,7,-1
 269.4 1217.21 l 5,4,-1
EndSplineSet
EndChar

StartChar: uni064C
Encoding: 1612 1612 76
Width: 0
VWidth: 2186
GlyphClass: 4
Flags: W
AnchorPoint: "Anchor-10" 549.458 1130.73 mark 0
AnchorPoint: "Anchor-9" 549.458 1130.73 mark 0
AnchorPoint: "Anchor-1" 546.458 1799.23 basemark 0
AnchorPoint: "Anchor-1" 549.458 1130.73 mark 0
LayerCount: 2
Fore
SplineSet
567.29 1287.01 m 4,0,1
 608.462 1327.07 608.462 1327.07 631.916 1373.98 c 6,2,-1
 639.437 1389.02 l 5,3,-1
 622.985 1392.51 l 6,4,5
 589.629 1399.58 589.629 1399.58 566.604 1412.6 c 4,6,7
 457.809 1470.02 457.809 1470.02 457.809 1562.76 c 4,8,9
 457.809 1649.37 457.809 1649.37 526.438 1701.09 c 4,10,11
 552.933 1720.96 552.933 1720.96 616.008 1720.96 c 4,12,13
 688.83 1720.96 688.83 1720.96 727.811 1682.95 c 4,14,15
 782.769 1629 782.769 1629 782.769 1549.92 c 4,16,17
 782.769 1510.19 782.769 1510.19 770.532 1471.44 c 6,18,-1
 765.475 1455.43 l 5,19,-1
 782.246 1454.55 l 6,20,21
 802.319 1453.49 802.319 1453.49 817.877 1453.46 c 4,22,23
 831.277 1452.74 831.277 1452.74 845.898 1452.49 c 5,24,-1
 845.898 1360.73 l 5,25,26
 806.304 1360.98 806.304 1360.98 788.452 1362.77 c 6,27,-1
 723.341 1369.03 l 5,28,-1
 719.609 1360.28 l 6,29,30
 692.725 1297.2 692.725 1297.2 614.192 1215.53 c 5,31,32
 527.115 1127.43 527.115 1127.43 431.968 1127.43 c 4,33,34
 319.091 1127.43 319.091 1127.43 262.277 1283.68 c 4,35,36
 247.961 1322.8 247.961 1322.8 247.066 1430.99 c 5,37,-1
 317.37 1430.99 l 5,38,39
 318.214 1335.4 318.214 1335.4 331.378 1306.88 c 4,40,41
 372.331 1219.13 372.331 1219.13 431.968 1219.13 c 4,42,43
 497.148 1219.13 497.148 1219.13 567.29 1287.01 c 4,0,1
669.364 1470.93 m 5,44,-1
 680.389 1496.65 l 6,45,46
 691.068 1521.57 691.068 1521.57 691.068 1549.92 c 4,47,48
 691.068 1592.44 691.068 1592.44 668.143 1611.31 c 4,49,50
 646.353 1629.26 646.353 1629.26 620.288 1629.26 c 4,51,52
 591.859 1629.26 591.859 1629.26 575.947 1616.92 c 4,53,54
 551.648 1598.63 551.648 1598.63 551.648 1562.76 c 4,55,56
 551.648 1514.37 551.648 1514.37 607.97 1491.84 c 4,57,58
 629.874 1483.08 629.874 1483.08 658.195 1474.37 c 6,59,-1
 669.364 1470.93 l 5,44,-1
EndSplineSet
EndChar

StartChar: uni064D
Encoding: 1613 1613 77
Width: 0
VWidth: 2186
GlyphClass: 4
Flags: W
AnchorPoint: "Anchor-7" 533.84 64.5 mark 0
AnchorPoint: "Anchor-6" 533.84 64.5 mark 0
AnchorPoint: "Anchor-0" 547.84 -438.5 basemark 0
AnchorPoint: "Anchor-0" 533.84 64.5 mark 0
LayerCount: 2
Fore
SplineSet
270.96 -511.18 m 1,0,-1
 270.96 -384.11 l 1,1,-1
 828.84 -155.8 l 1,2,-1
 828.84 -282.87 l 1,3,-1
 270.96 -511.18 l 1,0,-1
270.96 -254.38 m 1,4,-1
 270.96 -127.31 l 1,5,-1
 828.84 101 l 1,6,-1
 828.84 -26.0703 l 1,7,-1
 270.96 -254.38 l 1,4,-1
EndSplineSet
EndChar

StartChar: uni064E
Encoding: 1614 1614 78
Width: 0
VWidth: 2186
GlyphClass: 4
Flags: W
AnchorPoint: "Anchor-10" 547.84 1279.5 mark 0
AnchorPoint: "Anchor-9" 547.84 1279.5 mark 0
AnchorPoint: "Anchor-1" 547.84 1600.5 basemark 0
AnchorPoint: "Anchor-1" 547.84 1279.5 mark 0
LayerCount: 2
Fore
SplineSet
237.4 1237.41 m 1,0,-1
 237.4 1364.48 l 1,1,-1
 795.28 1592.79 l 1,2,-1
 795.28 1465.72 l 1,3,-1
 237.4 1237.41 l 1,0,-1
EndSplineSet
EndChar

StartChar: uni064F
Encoding: 1615 1615 79
Width: 0
VWidth: 2186
GlyphClass: 4
Flags: W
AnchorPoint: "Anchor-10" 526.868 1176.04 mark 0
AnchorPoint: "Anchor-9" 526.868 1176.04 mark 0
AnchorPoint: "Anchor-1" 541.868 1802.54 basemark 0
AnchorPoint: "Anchor-1" 526.868 1176.04 mark 0
LayerCount: 2
Fore
SplineSet
588.557 1404.35 m 6,0,1
 580.626 1406.11 580.626 1406.11 561.762 1416.04 c 4,2,3
 453.218 1472.32 453.218 1472.32 453.218 1566.07 c 4,4,5
 453.218 1652.68 453.218 1652.68 521.847 1704.4 c 4,6,7
 548.342 1724.27 548.342 1724.27 611.418 1724.27 c 4,8,9
 684.239 1724.27 684.239 1724.27 723.22 1686.26 c 4,10,11
 778.178 1632.31 778.178 1632.31 778.178 1553.23 c 4,12,13
 778.178 1520.97 778.178 1520.97 763.784 1474.7 c 6,14,-1
 758.849 1458.84 l 5,15,-1
 775.435 1457.86 l 6,16,17
 793.838 1456.78 793.838 1456.78 813.286 1456.24 c 4,18,19
 826.257 1455.88 826.257 1455.88 841.308 1455.75 c 5,20,-1
 841.308 1364.07 l 5,21,22
 811.057 1364.39 811.057 1364.39 783.482 1366.11 c 4,23,24
 751.628 1368.24 751.628 1368.24 721.942 1371.42 c 6,25,-1
 714.34 1372.23 l 5,26,-1
 709.933 1365.98 l 6,27,28
 665.478 1302.91 665.478 1302.91 593.907 1259.35 c 4,29,30
 392.321 1135.39 392.321 1135.39 242.428 1129.9 c 5,31,-1
 242.428 1221.55 l 5,32,33
 402.698 1226.19 402.698 1226.19 548.809 1340.76 c 4,34,35
 574.17 1360.61 574.17 1360.61 595.163 1382.7 c 6,36,-1
 610.989 1399.37 l 5,37,-1
 588.557 1404.35 l 6,0,1
664.773 1474.24 m 5,38,-1
 675.798 1499.96 l 6,39,40
 686.478 1524.88 686.478 1524.88 686.478 1553.23 c 4,41,42
 686.478 1595.75 686.478 1595.75 663.552 1614.62 c 4,43,44
 641.762 1632.57 641.762 1632.57 615.697 1632.57 c 4,45,46
 587.269 1632.57 587.269 1632.57 571.356 1620.23 c 4,47,48
 547.058 1601.94 547.058 1601.94 547.058 1566.07 c 4,49,50
 547.058 1517.68 547.058 1517.68 603.38 1495.15 c 4,51,52
 625.283 1486.39 625.283 1486.39 653.604 1477.68 c 6,53,-1
 664.773 1474.24 l 5,38,-1
EndSplineSet
EndChar

StartChar: uni0650
Encoding: 1616 1616 80
Width: 0
VWidth: 2186
GlyphClass: 4
Flags: W
AnchorPoint: "Anchor-7" 531.84 -13.5 mark 0
AnchorPoint: "Anchor-6" 531.84 -13.5 mark 0
AnchorPoint: "Anchor-0" 547.84 -288.5 basemark 0
AnchorPoint: "Anchor-0" 531.84 -13.5 mark 0
LayerCount: 2
Fore
SplineSet
267.96 -354.836 m 1,0,-1
 267.96 -227.766 l 1,1,-1
 825.84 0.543945 l 1,2,-1
 825.84 -126.526 l 1,3,-1
 267.96 -354.836 l 1,0,-1
EndSplineSet
EndChar

StartChar: uni0651
Encoding: 1617 1617 81
Width: 0
VWidth: 2186
GlyphClass: 4
Flags: W
AnchorPoint: "Anchor-10" 547.84 1295.5 mark 0
AnchorPoint: "Anchor-9" 547.84 1295.5 mark 0
AnchorPoint: "Anchor-1" 538.84 1844.5 basemark 0
AnchorPoint: "Anchor-1" 547.84 1295.5 mark 0
LayerCount: 2
Fore
SplineSet
507.838 1339.09 m 128,-1,1
 469.58 1294.39 469.58 1294.39 378.78 1294.39 c 0,2,3
 301.302 1294.39 301.302 1294.39 261.261 1355.91 c 0,4,5
 227 1408.31 227 1408.31 227 1486.07 c 0,6,7
 227 1527.41 227 1527.41 242.222 1626.56 c 1,8,-1
 320.73 1626.56 l 1,9,10
 310.14 1502.98 310.14 1502.98 310.14 1459.89 c 0,11,12
 310.14 1394.86 310.14 1394.86 398.84 1393.09 c 0,13,14
 497.128 1391.16 497.128 1391.16 506.266 1518.54 c 0,15,16
 508.184 1545.08 508.184 1545.08 508.4 1680.83 c 1,17,-1
 586.06 1680.83 l 1,18,19
 588.34 1645.85 588.34 1645.85 588.34 1597.53 c 0,20,21
 588.34 1452.09 588.34 1452.09 700.84 1452.09 c 0,22,23
 785.54 1452.09 785.54 1452.09 785.54 1599.06 c 0,24,25
 785.54 1708.64 785.54 1708.64 774.521 1770.1 c 1,26,-1
 857.705 1770.1 l 1,27,28
 868.68 1694.87 868.68 1694.87 868.68 1580.87 c 0,29,30
 868.68 1511.69 868.68 1511.69 841.188 1456.65 c 0,31,32
 796.118 1367.28 796.118 1367.28 722.84 1358.99 c 0,33,34
 657.525 1351.76 657.525 1351.76 616.258 1379.33 c 0,35,36
 556.63 1418.62 556.63 1418.62 554.84 1431.09 c 1,37,0
 546.096 1383.79 546.096 1383.79 507.838 1339.09 c 128,-1,1
EndSplineSet
EndChar

StartChar: uni0652
Encoding: 1618 1618 82
Width: 0
VWidth: 2186
GlyphClass: 4
Flags: W
AnchorPoint: "Anchor-10" 559.84 1158.5 mark 0
AnchorPoint: "Anchor-9" 559.84 1158.5 mark 0
AnchorPoint: "Anchor-1" 547.84 1738 basemark 0
AnchorPoint: "Anchor-1" 559.84 1158.5 mark 0
LayerCount: 2
Fore
SplineSet
674.569 1404.62 m 0,0,1
 674.569 1449.15 674.569 1449.15 643.439 1480.28 c 128,-1,2
 612.312 1511.41 612.312 1511.41 567.126 1511.41 c 0,3,4
 521.285 1511.41 521.285 1511.41 490.485 1480.61 c 128,-1,5
 459.686 1449.81 459.686 1449.81 459.686 1404.62 c 0,6,7
 459.686 1358.78 459.686 1358.78 490.485 1327.98 c 128,-1,8
 521.285 1297.18 521.285 1297.18 567.126 1297.18 c 0,9,10
 612.314 1297.18 612.314 1297.18 643.439 1328.31 c 128,-1,11
 674.569 1359.44 674.569 1359.44 674.569 1404.62 c 0,0,1
750.396 1404.73 m 128,-1,13
 750.396 1327.88 750.396 1327.88 697.316 1274.46 c 128,-1,14
 644.259 1221.07 644.259 1221.07 567.436 1221.07 c 128,-1,15
 490.613 1221.07 490.613 1221.07 437.557 1274.46 c 128,-1,16
 384.476 1327.88 384.476 1327.88 384.476 1404.73 c 128,-1,17
 384.476 1481.56 384.476 1481.56 437.537 1534.63 c 128,-1,18
 490.596 1587.69 490.596 1587.69 567.436 1587.69 c 128,-1,19
 644.276 1587.69 644.276 1587.69 697.335 1534.63 c 128,-1,12
 750.396 1481.56 750.396 1481.56 750.396 1404.73 c 128,-1,13
EndSplineSet
EndChar

StartChar: uni0653
Encoding: 1619 1619 83
Width: 0
VWidth: 2186
GlyphClass: 4
Flags: W
AnchorPoint: "Anchor-10" 442.84 1264.52 mark 0
AnchorPoint: "Anchor-9" 442.84 1264.52 mark 0
AnchorPoint: "Anchor-1" 442.84 1600.5 basemark 0
AnchorPoint: "Anchor-1" 442.84 1264.52 mark 0
LayerCount: 2
Fore
SplineSet
109.638 1365.05 m 5,0,1
 212.289 1479.87 212.289 1479.87 287.73 1453.49 c 4,2,3
 442.183 1397.9 442.183 1397.9 515.207 1405.97 c 4,4,5
 587.354 1413.79 587.354 1413.79 656.914 1479.92 c 5,6,-1
 704.93 1408.22 l 5,7,8
 617.699 1349.9 617.699 1349.9 559.504 1324.21 c 4,9,10
 491.236 1295.05 491.236 1295.05 293.235 1356.78 c 4,11,12
 239.766 1372.07 239.766 1372.07 165.102 1302.38 c 5,13,-1
 109.638 1365.05 l 5,0,1
EndSplineSet
EndChar

StartChar: uni0657
Encoding: 1623 1623 86
Width: 0
VWidth: 2186
GlyphClass: 4
Flags: W
AnchorPoint: "Anchor-10" 547.84 1279.5 mark 0
AnchorPoint: "Anchor-9" 547.84 1279.5 mark 0
AnchorPoint: "Anchor-1" 547.84 1975 basemark 0
AnchorPoint: "Anchor-1" 547.84 1279.5 mark 0
LayerCount: 2
Fore
SplineSet
501.148 1675.55 m 2,0,1
 509.083 1673.79 509.083 1673.79 527.945 1663.86 c 0,2,3
 636.49 1607.58 636.49 1607.58 636.49 1513.83 c 0,4,5
 636.49 1427.22 636.49 1427.22 567.86 1375.5 c 0,6,7
 541.366 1355.63 541.366 1355.63 478.29 1355.63 c 0,8,9
 405.468 1355.63 405.468 1355.63 366.487 1393.64 c 0,10,11
 311.53 1447.59 311.53 1447.59 311.53 1526.67 c 0,12,13
 311.53 1558.94 311.53 1558.94 325.923 1605.2 c 2,14,-1
 330.858 1621.06 l 1,15,-1
 314.272 1622.04 l 2,16,17
 295.871 1623.12 295.871 1623.12 276.421 1623.66 c 0,18,19
 263.452 1624.02 263.452 1624.02 248.4 1624.15 c 1,20,-1
 248.4 1715.83 l 1,21,22
 278.631 1715.51 278.631 1715.51 306.226 1713.79 c 0,23,24
 338.082 1711.66 338.082 1711.66 367.766 1708.48 c 2,25,-1
 375.369 1707.67 l 1,26,-1
 379.775 1713.92 l 2,27,28
 424.231 1776.99 424.231 1776.99 495.801 1820.55 c 0,29,30
 697.387 1944.51 697.387 1944.51 847.28 1950 c 1,31,-1
 847.28 1858.35 l 1,32,33
 687.009 1853.71 687.009 1853.71 540.898 1739.14 c 0,34,35
 515.54 1719.29 515.54 1719.29 494.545 1697.2 c 2,36,-1
 478.72 1680.54 l 1,37,-1
 501.148 1675.55 l 2,0,1
424.935 1605.66 m 1,38,-1
 413.911 1579.94 l 2,39,40
 403.23 1555.02 403.23 1555.02 403.23 1526.67 c 0,41,42
 403.23 1484.16 403.23 1484.16 426.155 1465.28 c 0,43,44
 447.946 1447.33 447.946 1447.33 474.01 1447.33 c 0,45,46
 502.438 1447.33 502.438 1447.33 518.352 1459.67 c 0,47,48
 542.65 1477.96 542.65 1477.96 542.65 1513.83 c 0,49,50
 542.65 1562.22 542.65 1562.22 486.328 1584.75 c 0,51,52
 464.442 1593.51 464.442 1593.51 436.104 1602.22 c 2,53,-1
 424.935 1605.66 l 1,38,-1
EndSplineSet
EndChar

StartChar: uni065A
Encoding: 1626 1626 87
Width: 1095
VWidth: 2186
GlyphClass: 4
Flags: W
AnchorPoint: "Anchor-10" 547.84 1279.5 mark 0
AnchorPoint: "Anchor-9" 547.84 1279.5 mark 0
AnchorPoint: "Anchor-1" 545.7 1761 basemark 0
AnchorPoint: "Anchor-1" 547.84 1279.5 mark 0
LayerCount: 2
Fore
SplineSet
476.032 1358.84 m 1,0,-1
 282.934 1681.66 l 1,1,-1
 401.783 1681.66 l 1,2,-1
 547.84 1462.57 l 1,3,-1
 693.896 1681.66 l 1,4,-1
 812.746 1681.66 l 1,5,-1
 619.646 1358.84 l 1,6,-1
 476.032 1358.84 l 1,0,-1
EndSplineSet
EndChar

StartChar: afii57392
Encoding: 1632 1632 88
Width: 1177
VWidth: 2237
GlyphClass: 2
Flags: W
LayerCount: 2
Fore
SplineSet
504.087 661.143 m 132,-1,1
 504.087 623.585 504.087 623.585 531.451 596.223 c 132,-1,2
 558.814 568.858 558.814 568.858 596.371 568.858 c 132,-1,3
 633.926 568.858 633.926 568.858 661.291 596.223 c 132,-1,4
 688.654 623.585 688.654 623.585 688.654 661.143 c 132,-1,5
 688.654 698.695 688.654 698.695 661.291 726.062 c 132,-1,6
 633.924 753.426 633.924 753.426 596.371 753.426 c 132,-1,7
 558.816 753.426 558.816 753.426 531.451 726.062 c 132,-1,0
 504.087 698.697 504.087 698.697 504.087 661.143 c 132,-1,1
301.267 656.562 m 128,-1,9
 301.267 781.415 301.267 781.415 389.389 870.052 c 128,-1,10
 477.597 958.775 477.597 958.775 601.947 958.775 c 128,-1,11
 726.302 958.775 726.302 958.775 814.507 870.051 c 128,-1,12
 902.626 781.413 902.626 781.413 902.626 656.562 c 128,-1,13
 902.626 531.701 902.626 531.701 814.506 443.073 c 128,-1,14
 726.291 354.351 726.291 354.351 601.947 354.351 c 128,-1,15
 477.596 354.351 477.596 354.351 389.39 443.073 c 128,-1,8
 301.267 531.707 301.267 531.707 301.267 656.562 c 128,-1,9
EndSplineSet
EndChar

StartChar: afii57393
Encoding: 1633 1633 89
Width: 1177
VWidth: 2237
GlyphClass: 2
Flags: W
LayerCount: 2
Fore
SplineSet
787.039 8.5 m 1,0,-1
 518.459 8.5 l 1,1,-1
 518.393 59.4346 l 2,2,3
 517.826 501.46 517.826 501.46 479.339 730.332 c 0,4,5
 428.908 1027.74 428.908 1027.74 270.091 1404.7 c 2,6,-1
 240.264 1475.5 l 1,7,-1
 532.635 1475.5 l 1,8,-1
 545.645 1443.93 l 2,9,10
 674.236 1131.92 674.236 1131.92 752.005 744.185 c 0,11,12
 786.553 576.858 786.553 576.858 786.995 59.5439 c 2,13,-1
 787.039 8.5 l 1,0,-1
EndSplineSet
EndChar

StartChar: afii57394
Encoding: 1634 1634 90
Width: 1177
VWidth: 2237
GlyphClass: 2
Flags: W
LayerCount: 2
Fore
SplineSet
508.344 899.818 m 1,0,1
 526.259 823.606 526.259 823.606 542.28 744.216 c 0,2,3
 576.833 576.812 576.833 576.812 577.275 59.5439 c 2,4,-1
 577.318 8.5 l 1,5,-1
 308.736 8.5 l 1,6,-1
 308.672 59.4365 l 2,7,8
 308.119 501.428 308.119 501.428 269.622 730.311 c 0,9,10
 219.188 1027.74 219.188 1027.74 60.3701 1404.7 c 2,11,-1
 30.543 1475.5 l 1,12,-1
 325.787 1475.5 l 1,13,-1
 338.997 1444.49 l 2,14,15
 400.223 1300.74 400.223 1300.74 408.197 1283.87 c 1,16,17
 448.202 1210.57 448.202 1210.57 507.755 1176.12 c 128,-1,18
 567.307 1141.66 567.307 1141.66 655.088 1141.66 c 1,19,20
 742.504 1140.54 742.504 1140.54 784.303 1166.97 c 128,-1,21
 826.101 1193.4 826.101 1193.4 838.74 1248.78 c 1,22,23
 840.866 1272.87 840.866 1272.87 847.463 1426.69 c 2,24,-1
 849.557 1475.5 l 1,25,-1
 1119.68 1475.5 l 1,26,-1
 1115.37 1420.52 l 2,27,28
 1100.04 1224.9 1100.04 1224.9 1072.9 1143.06 c 0,29,30
 1029.16 1010.04 1029.16 1010.04 922.979 941.552 c 128,-1,31
 816.799 873.061 816.799 873.061 660.19 873.061 c 0,32,33
 578.907 873.061 578.907 873.061 508.344 899.818 c 1,0,1
EndSplineSet
EndChar

StartChar: afii57395
Encoding: 1635 1635 91
Width: 1177
VWidth: 2237
GlyphClass: 2
Flags: W
LayerCount: 2
Fore
SplineSet
475.361 928.75 m 1,0,1
 501.834 887.15 501.834 887.15 527.084 743.016 c 0,2,3
 561.34 547.454 561.34 547.454 561.854 59.5527 c 2,4,-1
 561.907 8.5 l 1,5,-1
 293.315 8.5 l 1,6,-1
 293.252 59.4365 l 2,7,8
 292.701 501.409 292.701 501.409 254.202 730.311 c 0,9,10
 203.776 1027.7 203.776 1027.7 44.9502 1404.7 c 2,11,-1
 15.123 1475.5 l 1,12,-1
 307.564 1475.5 l 1,13,-1
 320.528 1443.81 l 2,14,15
 384.753 1286.82 384.753 1286.82 411.295 1194.5 c 0,16,17
 419.731 1165.16 419.731 1165.16 490 1162 c 0,18,19
 558.5 1158.7 558.5 1158.7 561.18 1209.38 c 0,20,21
 566.241 1330.3 566.241 1330.3 566.568 1423.48 c 2,22,-1
 566.745 1473.76 l 1,23,-1
 783.824 1473.76 l 1,24,-1
 783.908 1423.37 l 2,25,26
 784.111 1301.83 784.111 1301.83 786.823 1245.81 c 0,27,28
 788.755 1205.96 788.755 1205.96 792.827 1192.34 c 1,29,30
 812.6 1165.01 812.6 1165.01 866 1164 c 0,31,32
 921.701 1163.07 921.701 1163.07 931.293 1188.12 c 1,33,34
 942.964 1229.24 942.964 1229.24 943.357 1424.6 c 2,35,-1
 943.46 1475.5 l 1,36,-1
 1173.1 1475.5 l 1,37,-1
 1172.95 1424.35 l 2,38,39
 1172.44 1250.63 1172.44 1250.63 1163.21 1160.76 c 0,40,41
 1137.8 914.181 1137.8 914.181 933.361 900.75 c 0,42,43
 771.907 889.418 771.907 889.418 699.361 952.75 c 1,44,45
 675.865 919.891 675.865 919.891 617.611 911.75 c 0,46,47
 533.711 901.015 533.711 901.015 475.361 928.75 c 1,0,1
EndSplineSet
EndChar

StartChar: afii57396
Encoding: 1636 1636 92
Width: 1177
VWidth: 2237
GlyphClass: 2
Flags: W
LayerCount: 2
Fore
SplineSet
815.154 1481.79 m 1,0,-1
 799.449 1230.18 l 1,1,-1
 746.599 1235.66 l 2,2,3
 631.435 1247.6 631.435 1247.6 562.487 1215.44 c 0,4,5
 521.069 1196.12 521.069 1196.12 505.843 1171.49 c 128,-1,6
 490.617 1146.87 490.617 1146.87 493.703 1107.5 c 0,7,8
 497.092 1064.85 497.092 1064.85 518.386 1038.01 c 128,-1,9
 539.68 1011.18 539.68 1011.18 585.904 993.678 c 0,10,11
 618.435 981.362 618.435 981.362 752.819 967.994 c 2,12,-1
 798.77 963.423 l 1,13,-1
 798.77 722.773 l 1,14,-1
 757.084 715.03 l 2,15,16
 611.186 687.93 611.186 687.93 529.16 634.087 c 0,17,18
 431.277 569.042 431.277 569.042 417.598 450.871 c 0,19,20
 413.46 415.116 413.46 415.116 417.391 386.461 c 0,21,22
 422.468 349.455 422.468 349.455 441.047 324.023 c 128,-1,23
 459.626 298.591 459.626 298.591 499.044 279.692 c 0,24,25
 538.754 260.655 538.754 260.655 598.589 259.641 c 0,26,27
 690.937 257.226 690.937 257.226 759.08 274.262 c 0,28,29
 839.08 294.262 839.08 294.262 1014.91 375.125 c 1,30,-1
 1014.91 79.2754 l 1,31,-1
 982.528 66.2285 l 2,32,33
 850.341 12.9694 850.341 12.9694 675.622 0.883789 c 0,34,35
 471.509 -12.7354 471.509 -12.7354 340.745 54.2412 c 128,-1,36
 209.98 121.217 209.98 121.217 169.81 270.758 c 0,37,38
 149.25 347.299 149.25 347.299 149.25 455.24 c 0,39,40
 149.25 615.753 149.25 615.753 272.724 760.118 c 0,41,42
 318.045 813.107 318.045 813.107 373.462 845.119 c 1,43,44
 266.793 913.759 266.793 913.759 239.953 1040.15 c 0,45,46
 211.609 1174.84 211.609 1174.84 258.955 1274.62 c 128,-1,47
 306.3 1374.39 306.3 1374.39 425.081 1424.19 c 0,48,49
 556.651 1479.34 556.651 1479.34 760.352 1481.27 c 2,50,-1
 815.154 1481.79 l 1,0,-1
EndSplineSet
EndChar

StartChar: afii57397
Encoding: 1637 1637 93
Width: 1177
VWidth: 2237
GlyphClass: 2
Flags: W
LayerCount: 2
Fore
SplineSet
557.2 1025.05 m 5,0,1
 449.079 930.448 449.079 930.448 381.908 790.035 c 4,2,3
 323.765 672.633 323.765 672.633 321.303 544.664 c 4,4,5
 319.827 399.319 319.827 399.319 396.009 341.167 c 4,6,7
 471.431 283.576 471.431 283.576 625.995 288.475 c 4,8,9
 788.711 293.632 788.711 293.632 836.052 381.819 c 4,10,11
 880.653 466.355 880.653 466.355 865.58 594.045 c 4,12,13
 850.019 730.752 850.019 730.752 726.25 883.135 c 4,14,15
 643.654 984.826 643.654 984.826 557.2 1025.05 c 5,0,1
282.318 1185.22 m 1,16,-1
 398.226 1401.57 l 1,17,-1
 433.631 1393.42 l 2,18,19
 600.794 1354.94 600.794 1354.94 748.458 1255.05 c 0,20,21
 946.737 1120.92 946.737 1120.92 1028.56 959.771 c 1,22,23
 1133.29 774.734 1133.29 774.734 1142.93 576.569 c 0,24,25
 1156.75 298.673 1156.75 298.673 1036.76 171.159 c 0,26,27
 890.215 16.8262 890.215 16.8262 594.156 17.958 c 1,28,29
 293.808 17.958 293.808 17.958 151.405 171.521 c 0,30,31
 4.0127 331.526 4.0127 331.526 34.9072 580.319 c 0,32,33
 58.7588 770.29 58.7588 770.29 154.282 932.849 c 0,34,35
 238.166 1075.6 238.166 1075.6 329.849 1167.4 c 1,36,-1
 282.318 1185.22 l 1,16,-1
EndSplineSet
EndChar

StartChar: afii57398
Encoding: 1638 1638 94
Width: 1177
VWidth: 2237
GlyphClass: 2
Flags: W
LayerCount: 2
Fore
SplineSet
943.247 1421.22 m 2,0,1
 944.307 1116.68 944.307 1116.68 982.604 751.307 c 0,2,3
 1012.69 463.963 1012.69 463.963 1113.32 72.1875 c 2,4,-1
 1129.68 8.5 l 1,5,-1
 841.573 8.5 l 1,6,-1
 831.658 46.6816 l 2,7,8
 741.976 392.042 741.976 392.042 709.027 743.793 c 0,9,10
 683.361 1016.9 683.361 1016.9 678.024 1161.07 c 1,11,12
 584.076 1141.4 584.076 1141.4 460.1 1141.4 c 0,13,14
 269.34 1141.4 269.34 1141.4 89.7051 1193.65 c 2,15,-1
 52.9502 1204.34 l 1,16,-1
 52.9502 1486.88 l 1,17,-1
 117.1 1469.77 l 2,18,19
 296.107 1422 296.107 1422 460.1 1422 c 0,20,21
 671.984 1422 671.984 1422 880.656 1470.71 c 2,22,-1
 943.024 1485.26 l 1,23,-1
 943.247 1421.22 l 2,0,1
EndSplineSet
EndChar

StartChar: afii57399
Encoding: 1639 1639 95
Width: 1177
VWidth: 2237
GlyphClass: 2
Flags: W
LayerCount: 2
Fore
SplineSet
453.438 55.6289 m 2,0,1
 434.064 310.148 434.064 310.148 332.873 634.389 c 0,2,3
 170.38 1155.57 170.38 1155.57 40.8662 1400.67 c 2,4,-1
 1.32617 1475.5 l 1,5,-1
 297.533 1475.5 l 1,6,-1
 311.572 1447.1 l 2,7,8
 475.403 1115.67 475.403 1115.67 571.538 779.189 c 0,9,10
 580.544 747.742 580.544 747.742 588.5 719.687 c 1,11,12
 596.47 747.7 596.47 747.7 605.462 779.189 c 0,13,14
 701.612 1115.73 701.612 1115.73 865.428 1447.1 c 2,15,-1
 879.467 1475.5 l 1,16,-1
 1176.17 1475.5 l 1,17,18
 1169.25 1462.95 1169.25 1462.95 1155.76 1437.84 c 128,-1,19
 1142.27 1412.72 1142.27 1412.72 1135.91 1400.4 c 0,20,21
 967.866 1086.98 967.866 1086.98 844.493 635.639 c 0,22,23
 756.351 314.139 756.351 314.139 723.9 53.2061 c 2,24,-1
 718.341 8.5 l 1,25,-1
 457.024 8.5 l 1,26,-1
 453.438 55.6289 l 2,0,1
EndSplineSet
EndChar

StartChar: afii57400
Encoding: 1640 1640 96
Width: 1177
VWidth: 2237
GlyphClass: 2
Flags: W
LayerCount: 2
Fore
SplineSet
457.024 1475.5 m 1,0,-1
 718.34 1475.5 l 1,1,-1
 723.9 1430.79 l 2,2,3
 756.353 1169.85 756.353 1169.85 844.497 848.351 c 0,4,5
 967.874 396.995 967.874 396.995 1135.91 83.5986 c 2,6,-1
 1176.17 8.5 l 1,7,-1
 879.467 8.5 l 1,8,-1
 865.428 36.8984 l 2,9,10
 701.625 368.23 701.625 368.23 605.462 704.811 c 0,11,12
 596.493 736.211 596.493 736.211 588.5 764.313 c 1,13,14
 580.541 736.314 580.541 736.314 571.538 704.811 c 0,15,16
 475.375 368.23 475.375 368.23 311.572 36.8984 c 2,17,-1
 297.533 8.5 l 1,18,-1
 1.32422 8.5 l 1,19,-1
 40.8672 83.3281 l 2,20,21
 170.372 328.399 170.372 328.399 332.877 849.62 c 0,22,23
 434.062 1173.85 434.062 1173.85 453.438 1428.37 c 2,24,-1
 457.024 1475.5 l 1,0,-1
EndSplineSet
EndChar

StartChar: afii57401
Encoding: 1641 1641 97
Width: 1177
VWidth: 2237
GlyphClass: 2
Flags: W
LayerCount: 2
Fore
SplineSet
718.404 647.432 m 1,0,1
 541.163 648.99 541.163 648.99 459.073 667.247 c 0,2,3
 260.062 711.939 260.062 711.939 170.179 811.1 c 0,4,5
 69 922.719 69 922.719 69 1057.65 c 0,6,7
 69 1232.45 69 1232.45 179.773 1343.31 c 0,8,9
 325.579 1490.35 325.579 1490.35 499.855 1489.2 c 1,10,11
 703.526 1489.2 703.526 1489.2 803.216 1393.08 c 0,12,13
 937.286 1262.66 937.286 1262.66 952.746 1055.11 c 0,14,15
 963.372 911.607 963.372 911.607 982.538 751.896 c 0,16,17
 1020.94 433.191 1020.94 433.191 1113.34 72.1436 c 2,18,-1
 1129.62 8.5 l 1,19,-1
 840.437 8.5 l 1,20,-1
 831.62 48.5303 l 2,21,22
 743.678 447.826 743.678 447.826 718.404 647.432 c 1,0,1
688.53 917.21 m 1,23,-1
 688.53 972.05 l 2,24,25
 688.53 1082.26 688.53 1082.26 651.603 1132.62 c 0,26,27
 590.55 1218.36 590.55 1218.36 505.266 1217.6 c 0,28,29
 435.857 1217.6 435.857 1217.6 385.896 1169.4 c 0,30,31
 337.6 1122.83 337.6 1122.83 337.6 1063 c 0,32,33
 337.6 1019.4 337.6 1019.4 388.562 975.908 c 1,34,35
 420.593 950.808 420.593 950.808 490.349 934.106 c 0,36,37
 552.968 919.113 552.968 919.113 688.53 917.21 c 1,23,-1
EndSplineSet
EndChar

StartChar: afii57381
Encoding: 1642 1642 98
Width: 1177
VWidth: 2237
GlyphClass: 2
Flags: W
LayerCount: 2
Fore
SplineSet
788.04 352 m 1,0,-1
 1056.64 352 l 1,1,-1
 1056.64 8.5 l 1,2,-1
 788.04 8.5 l 1,3,-1
 788.04 352 l 1,0,-1
119.29 1475.5 m 1,4,-1
 387.89 1475.5 l 1,5,-1
 387.89 1132 l 1,6,-1
 119.29 1132 l 1,7,-1
 119.29 1475.5 l 1,4,-1
840.389 1475.5 m 1,8,-1
 1097.2 1475.5 l 1,9,-1
 336.611 8.5 l 1,10,-1
 79.8047 8.5 l 1,11,-1
 840.389 1475.5 l 1,8,-1
EndSplineSet
EndChar

StartChar: uni066B
Encoding: 1643 1643 99
Width: 711
VWidth: 2186
GlyphClass: 2
Flags: W
LayerCount: 2
Fore
SplineSet
443.218 502.139 m 1,0,-1
 568.799 501.203 l 1,1,2
 342.799 113.203 342.799 113.203 130 -230.265 c 1,3,-1
 1.59766 -228.502 l 1,4,5
 94.7988 -78.7969 94.7988 -78.7969 443.218 502.139 c 1,0,-1
EndSplineSet
EndChar

StartChar: uni066C
Encoding: 1644 1644 100
Width: 696
VWidth: 2186
GlyphClass: 2
Flags: W
LayerCount: 2
Fore
SplineSet
291.2 1580.01 m 1,0,-1
 490.97 1580.01 l 1,1,-1
 490.97 1433.52 l 1,2,-1
 320.557 1102.04 l 1,3,-1
 207.225 1102.04 l 1,4,-1
 291.2 1428.73 l 1,5,-1
 291.2 1580.01 l 1,0,-1
EndSplineSet
EndChar

StartChar: afii63167
Encoding: 1645 1645 101
Width: 1194
VWidth: 2237
GlyphClass: 2
Flags: W
LayerCount: 2
Fore
SplineSet
-23.2812 896.63 m 1,0,-1
 449.703 896.63 l 1,1,-1
 597.062 1345.28 l 1,2,-1
 744.417 896.63 l 1,3,-1
 1217.4 896.63 l 1,4,-1
 835.389 617.365 l 1,5,-1
 981.707 167.859 l 1,6,-1
 597.061 445.808 l 1,7,-1
 212.413 167.86 l 1,8,-1
 358.731 617.365 l 1,9,-1
 -23.2812 896.63 l 1,0,-1
EndSplineSet
EndChar

StartChar: uni066E
Encoding: 1646 1646 102
Width: 1727
VWidth: 2237
GlyphClass: 2
Flags: W
AnchorPoint: "Anchor-10" 763.22 1107.5 basechar 0
AnchorPoint: "Anchor-7" 763.22 -123 basechar 0
LayerCount: 2
Fore
SplineSet
1685.94 496.516 m 0,0,1
 1677.52 323.071 1677.52 323.071 1577.54 206.745 c 128,-1,2
 1477.55 90.4199 1477.55 90.4199 1295.38 38.6992 c 0,3,4
 1154.72 -0.204102 1154.72 -0.204102 890.863 0 c 1,5,6
 576.634 1.44922 576.634 1.44922 425.456 44.8145 c 0,7,8
 253.228 95.0205 253.228 95.0205 155.182 211.006 c 128,-1,9
 57.1357 326.992 57.1357 326.992 40.6221 500.984 c 0,10,11
 29.293 622.14 29.293 622.14 75.3311 779.006 c 2,12,-1
 88.7295 824.659 l 1,13,-1
 347.375 767.883 l 1,14,-1
 338.419 719.383 l 2,15,16
 311.672 574.529 311.672 574.529 315.314 536.246 c 0,17,18
 323.329 441.356 323.329 441.356 376.067 386.115 c 128,-1,19
 428.806 330.875 428.806 330.875 537.059 307.453 c 0,20,21
 654.268 282.076 654.268 282.076 805.123 282.017 c 0,22,23
 855.221 281.992 855.221 281.992 892.898 282.066 c 0,24,25
 982.354 282.242 982.354 282.242 997.919 282.958 c 0,26,27
 1147.8 288.311 1147.8 288.311 1188.47 298.135 c 4,28,29
 1300.23 325.131 1300.23 325.131 1353.04 380.869 c 128,-1,30
 1405.85 436.608 1405.85 436.608 1411.14 527.564 c 0,31,32
 1414.11 580.406 1414.11 580.406 1388.89 713.504 c 2,33,-1
 1379.58 762.629 l 1,34,-1
 1634.08 816.103 l 1,35,-1
 1648.31 772.671 l 2,36,37
 1692.87 636.607 1692.87 636.607 1685.94 496.516 c 0,0,1
EndSplineSet
Substitution2: "'init' Initial Forms in Arabic lookup 13 subtable" uni066E.init
Substitution2: "'medi' Medial Forms in Arabic lookup 11 subtable" uni066E.medi
Substitution2: "'fina' Terminal Forms in Arabic lookup 9 subtable" uni066E.fina
EndChar

StartChar: uni066F
Encoding: 1647 1647 103
Width: 1450
VWidth: 2237
GlyphClass: 2
Flags: W
AnchorPoint: "Anchor-10" 315 1101.5 basechar 0
AnchorPoint: "Anchor-7" 472 -484 basechar 0
LayerCount: 2
Fore
SplineSet
1064.02 703.546 m 0,0,1
 1037.24 706.271 1037.24 706.271 1009.4 667.056 c 0,2,3
 965.525 606.997 965.525 606.997 969.419 539.896 c 0,4,5
 970.952 515.122 970.952 515.122 978.027 503.513 c 128,-1,6
 985.103 491.903 985.103 491.903 999.053 485.32 c 0,7,8
 1049.25 463.337 1049.25 463.337 1155.54 475.739 c 1,9,10
 1154.03 578.636 1154.03 578.636 1112.45 655.478 c 0,11,12
 1088.55 700.34 1088.55 700.34 1064.02 703.546 c 0,0,1
1138.84 211.522 m 1,13,-1
 1058.18 204.652 l 1,14,-1
 1056.38 204.627 l 2,15,16
 864.47 201.936 864.47 201.936 770.649 330.211 c 0,17,18
 646.727 501.623 646.727 501.623 761.635 752.076 c 0,19,20
 832.377 907.428 832.377 907.428 941.889 965.587 c 128,-1,21
 1051.4 1023.75 1051.4 1023.75 1185.59 967.952 c 0,22,23
 1284.21 926.947 1284.21 926.947 1356.82 777.557 c 0,24,25
 1413.04 661.887 1413.04 661.887 1419.55 493.782 c 0,26,27
 1424.4 381.338 1424.4 381.338 1416.07 246.812 c 0,28,29
 1398.74 -31.5762 1398.74 -31.5762 1251.1 -191.491 c 0,30,31
 1078.13 -379.917 1078.13 -379.917 702.335 -376.339 c 0,32,33
 421.471 -373.682 421.471 -373.682 238.997 -232.149 c 0,34,35
 34.4854 -72.9004 34.4854 -72.9004 39.1719 226.707 c 0,36,37
 44.0889 478.273 44.0889 478.273 138.646 687.522 c 2,38,-1
 155.386 724.565 l 1,39,-1
 426.231 669.805 l 1,40,-1
 401.759 612.253 l 2,41,42
 291.11 352.056 291.11 352.056 318.296 174.302 c 0,43,44
 340.382 31.8945 340.382 31.8945 429.85 -36.1426 c 128,-1,45
 519.317 -104.181 519.317 -104.181 692.25 -105.463 c 0,46,47
 941.799 -107.276 941.799 -107.276 1058.7 9.68848 c 0,48,49
 1127.65 77.9688 1127.65 77.9688 1138.84 211.522 c 1,13,-1
EndSplineSet
Substitution2: "'init' Initial Forms in Arabic lookup 13 subtable" uni066F.init
Substitution2: "'medi' Medial Forms in Arabic lookup 11 subtable" uni066F.medi
Substitution2: "'fina' Terminal Forms in Arabic lookup 9 subtable" uni066F.fina
EndChar

StartChar: uni0670
Encoding: 1648 1648 104
Width: 0
VWidth: 2186
GlyphClass: 4
Flags: W
AnchorPoint: "Anchor-10" 547.84 1279.5 mark 0
AnchorPoint: "Anchor-9" 547.84 1279.5 mark 0
AnchorPoint: "Anchor-1" 547.84 1975 basemark 0
AnchorPoint: "Anchor-1" 547.84 1279.5 mark 0
LayerCount: 2
Fore
SplineSet
501.99 1327.81 m 1,0,-1
 501.99 1926.69 l 1,1,-1
 593.69 1926.69 l 1,2,-1
 593.69 1327.81 l 1,3,-1
 501.99 1327.81 l 1,0,-1
EndSplineSet
EndChar

StartChar: uni0674
Encoding: 1652 1652 105
Width: 639
VWidth: 2186
GlyphClass: 2
Flags: W
LayerCount: 2
Fore
SplineSet
143.54 1515.26 m 1,0,-1
 254.306 1540.82 l 1,1,-1
 219.379 1556.7 l 2,2,3
 176.794 1576.05 176.794 1576.05 161.706 1610 c 0,4,5
 145.68 1647.06 145.68 1647.06 145.68 1692.52 c 0,6,7
 145.68 1788.83 145.68 1788.83 200.568 1830.98 c 0,8,9
 259.108 1876.4 259.108 1876.4 353.1 1876.4 c 0,10,11
 411.842 1876.4 411.842 1876.4 462.08 1846.81 c 1,12,-1
 462.08 1769.8 l 1,13,14
 412.732 1795.4 412.732 1795.4 353.1 1795.4 c 0,15,16
 276.875 1795.4 276.875 1795.4 254.747 1771.97 c 0,17,18
 220.26 1733.92 220.26 1733.92 220.26 1701.08 c 0,19,20
 220.26 1608.9 220.26 1608.9 330.161 1577.33 c 0,21,22
 366.368 1566.36 366.368 1566.36 484.55 1593.69 c 1,23,-1
 484.55 1511.4 l 1,24,-1
 143.54 1434.84 l 1,25,-1
 143.54 1515.26 l 1,0,-1
EndSplineSet
EndChar

StartChar: uni06A1
Encoding: 1697 1697 109
Width: 1739
VWidth: 2237
GlyphClass: 2
Flags: W
AnchorPoint: "Anchor-10" 515.55 1281.28 basechar 0
AnchorPoint: "Anchor-7" 622.55 -96.8799 basechar 0
LayerCount: 2
Fore
SplineSet
1366.82 893.327 m 1,0,1
 1343.89 894.286 1343.89 894.286 1328.04 886.267 c 128,-1,2
 1312.19 878.246 1312.19 878.246 1296.69 857.009 c 0,3,4
 1253.01 797.213 1253.01 797.213 1256.91 730.133 c 0,5,6
 1258.45 705.251 1258.45 705.251 1265.51 693.629 c 128,-1,7
 1272.58 682.008 1272.58 682.008 1286.9 675.393 c 0,8,9
 1333.58 653.826 1333.58 653.826 1432.8 665.787 c 1,10,11
 1434.43 779.894 1434.43 779.894 1399.79 846.012 c 0,12,13
 1380.54 882.137 1380.54 882.137 1366.82 893.327 c 1,0,1
1380.32 398.706 m 1,14,-1
 1346.39 394.896 l 1,15,-1
 1343.92 394.859 l 2,16,17
 1191.12 392.542 1191.12 392.542 1102.2 481.876 c 0,18,19
 1013.91 570.581 1013.91 570.581 1001.24 689.945 c 128,-1,20
 988.567 809.311 988.567 809.311 1048.85 941.673 c 1,21,22
 1117.61 1097.58 1117.61 1097.58 1227.25 1155.81 c 128,-1,23
 1336.88 1214.04 1336.88 1214.04 1472.77 1158.31 c 0,24,25
 1574.93 1116.88 1574.93 1116.88 1644.69 967.013 c 0,26,27
 1709.1 828.585 1709.1 828.585 1705.07 680.562 c 0,28,29
 1698.32 410.695 1698.32 410.695 1636.07 289.557 c 0,30,31
 1546.62 113.801 1546.62 113.801 1329.22 48.8535 c 0,32,33
 1156.89 -2.88477 1156.89 -2.88477 872.135 -1.30762 c 0,34,35
 572.027 0.290039 572.027 0.290039 422.326 41.25 c 0,36,37
 254.189 87.8467 254.189 87.8467 157.396 205.391 c 128,-1,38
 60.6016 322.934 60.6016 322.934 41.2881 502.586 c 0,39,40
 27.4951 632.799 27.4951 632.799 80.0684 777.424 c 2,41,-1
 94.9893 818.471 l 1,42,-1
 353.495 767.622 l 1,43,-1
 340.368 715.5 l 2,44,45
 309.229 591.862 309.229 591.862 315.665 534.833 c 0,46,47
 326.774 440.113 326.774 440.113 379.748 384.084 c 128,-1,48
 432.721 328.054 432.721 328.054 536.657 303.649 c 0,49,50
 581.606 293.096 581.606 293.096 806.482 281.748 c 0,51,52
 1064.64 268.72 1064.64 268.72 1267.01 327.93 c 0,53,54
 1346.86 351.166 1346.86 351.166 1380.32 398.706 c 1,14,-1
EndSplineSet
Substitution2: "'init' Initial Forms in Arabic lookup 13 subtable" uni06A1.init
Substitution2: "'medi' Medial Forms in Arabic lookup 11 subtable" uni06A1.medi
Substitution2: "'fina' Terminal Forms in Arabic lookup 9 subtable" uni06A1.fina
EndChar

StartChar: uni06A9
Encoding: 1705 1705 110
Width: 1701
VWidth: 2237
GlyphClass: 2
Flags: W
AnchorPoint: "Anchor-10" 378 1294.34 basechar 0
AnchorPoint: "Anchor-7" 798 -139.68 basechar 0
LayerCount: 2
Fore
SplineSet
804.507 281.812 m 1,0,-1
 1074.92 281.004 l 2,1,2
 1311.03 280.299 1311.03 280.299 1326.96 382.463 c 0,3,4
 1334.63 431.594 1334.63 431.594 1314.96 473.836 c 128,-1,5
 1295.29 516.078 1295.29 516.078 1242.24 557.262 c 2,6,-1
 893.985 827.611 l 2,7,8
 800.533 900.159 800.533 900.159 784.674 991.396 c 0,9,10
 770.075 1075.38 770.075 1075.38 805.785 1141.55 c 128,-1,11
 841.496 1207.73 841.496 1207.73 920.312 1244.64 c 2,12,-1
 1696.65 1608.15 l 1,13,-1
 1696.65 1319.19 l 1,14,-1
 1086.66 1026.45 l 1,15,-1
 1439.42 748.921 l 2,16,17
 1531.86 676.202 1531.86 676.202 1567.49 568.316 c 0,18,19
 1603.21 460.171 1603.21 460.171 1582.76 324.594 c 0,20,21
 1557.97 160.249 1557.97 160.249 1436.97 80.4277 c 0,22,23
 1315.06 0 1315.06 0 1116.1 0 c 2,24,-1
 775.638 0 l 1,25,26
 555.793 3.12207 555.793 3.12207 411.458 43.4092 c 1,27,28
 249.369 89.96 249.369 89.96 155.561 206.889 c 128,-1,29
 61.7529 323.817 61.7529 323.817 41.3232 502.269 c 0,30,31
 26.7935 632.246 26.7935 632.246 76.8066 776.687 c 2,32,-1
 91.4082 818.856 l 1,33,-1
 341.982 768.008 l 1,34,-1
 332.098 718.88 l 2,35,36
 305.597 587.171 305.597 587.171 313.376 536.955 c 0,37,38
 328.813 441 328.813 441 382.774 384.366 c 128,-1,39
 436.734 327.732 436.734 327.732 536.949 303.58 c 0,40,41
 610.521 285.851 610.521 285.851 804.507 281.812 c 1,0,-1
EndSplineSet
Substitution2: "'init' Initial Forms in Arabic lookup 13 subtable" uniFB90
Substitution2: "'medi' Medial Forms in Arabic lookup 11 subtable" uniFB91
Substitution2: "'fina' Terminal Forms in Arabic lookup 9 subtable" uniFB8F
EndChar

StartChar: afii57514
Encoding: 1722 1722 112
Width: 1432
VWidth: 2237
GlyphClass: 2
Flags: W
AnchorPoint: "Anchor-10" 643.11 849 basechar 0
AnchorPoint: "Anchor-7" 665.58 -473.02 basechar 0
LayerCount: 2
Fore
SplineSet
1390.67 221.352 m 0,0,1
 1340.93 -44.6318 1340.93 -44.6318 1167.02 -179.993 c 128,-1,2
 993.124 -315.354 993.124 -315.354 708.97 -311.408 c 1,3,4
 410.397 -309.03 410.397 -309.03 239.238 -171.558 c 128,-1,5
 68.0781 -34.0859 68.0781 -34.0859 41.0635 230.608 c 0,6,7
 15.124 484.049 15.124 484.049 137.735 718.858 c 2,8,-1
 157.266 756.262 l 1,9,-1
 410.835 679.814 l 1,10,-1
 389.822 627.974 l 2,11,12
 289.104 379.489 289.104 379.489 312.967 243.168 c 0,13,14
 337.774 100.613 337.774 100.613 431.323 31.6943 c 128,-1,15
 524.872 -37.2246 524.872 -37.2246 703.506 -38.5273 c 1,16,17
 913.675 -46.0791 913.675 -46.0791 1015.91 53.624 c 128,-1,18
 1118.15 153.327 1118.15 153.327 1127.15 376.575 c 0,19,20
 1131.46 485.1 1131.46 485.1 1055.64 720.542 c 2,21,-1
 1039.1 771.924 l 1,22,-1
 1299.51 839.735 l 1,23,-1
 1315.17 795.67 l 2,24,25
 1434.83 458.779 1434.83 458.779 1390.67 221.352 c 0,0,1
EndSplineSet
Substitution2: "'init' Initial Forms in Arabic lookup 13 subtable" uni06BA.init
Substitution2: "'medi' Medial Forms in Arabic lookup 11 subtable" uni06BA.medi
Substitution2: "'fina' Terminal Forms in Arabic lookup 9 subtable" uniFB9F
EndChar

StartChar: uni06F4
Encoding: 1780 1780 119
Width: 1177
VWidth: 2237
GlyphClass: 2
Flags: W
LayerCount: 2
Fore
SplineSet
395.47 1280.75 m 1,0,1
 478.94 1433.68 478.94 1433.68 603.15 1469.78 c 4,2,3
 756.646 1514.39 756.646 1514.39 973.429 1468.36 c 2,4,-1
 1013.84 1459.78 l 1,5,-1
 1013.84 1208.45 l 1,6,-1
 947.467 1229.43 l 2,7,8
 913.665 1240.11 913.665 1240.11 827.147 1251.08 c 0,9,10
 690.606 1268.38 690.606 1268.38 625.742 1202.19 c 0,11,12
 581.675 1157.5 581.675 1157.5 574.865 1120.36 c 128,-1,13
 568.055 1083.22 568.055 1083.22 592.49 1046.56 c 0,14,15
 606.729 1023.95 606.729 1023.95 655.751 1007.96 c 128,-1,16
 704.773 991.966 704.773 991.966 791.295 991.86 c 0,17,18
 841.719 991.813 841.719 991.813 1012.86 1017.09 c 2,19,-1
 1070.41 1025.59 l 1,20,-1
 1074.28 776.161 l 1,21,-1
 1029.26 770.213 l 2,22,23
 827.752 743.59 827.752 743.59 761.84 743.59 c 0,24,25
 632.477 743.59 632.477 743.59 536.177 781.386 c 1,26,27
 539.448 762.837 539.448 762.837 542.596 742.447 c 0,28,29
 581.08 493.081 581.08 493.081 577.398 59.0674 c 2,30,-1
 576.969 8.5 l 1,31,-1
 308.736 8.5 l 1,32,-1
 308.672 59.4365 l 2,33,34
 308.117 501.445 308.117 501.445 269.62 730.324 c 0,35,36
 219.195 1027.7 219.195 1027.7 60.3701 1404.7 c 2,37,-1
 30.543 1475.5 l 1,38,-1
 327.608 1475.5 l 1,39,-1
 339.578 1441.39 l 2,40,41
 373.157 1345.7 373.157 1345.7 395.47 1280.75 c 1,0,1
EndSplineSet
EndChar

StartChar: uni06F5
Encoding: 1781 1781 120
Width: 1177
VWidth: 2237
GlyphClass: 2
Flags: W
LayerCount: 2
Fore
SplineSet
704.146 377.229 m 2,0,1
 716.448 330.643 716.448 330.643 738.973 312.892 c 128,-1,2
 761.496 295.141 761.496 295.141 804.692 296.371 c 0,3,4
 835.979 297.117 835.979 297.117 857.162 304.5 c 0,5,6
 874.559 310.563 874.559 310.563 885.162 322.274 c 128,-1,7
 895.766 333.985 895.766 333.985 901.205 356.223 c 128,-1,8
 906.645 378.461 906.645 378.461 900.228 416.865 c 128,-1,9
 893.812 455.27 893.812 455.27 875.214 508.423 c 0,10,11
 771.241 803.681 771.241 803.681 589.541 1046.04 c 1,12,13
 403.104 781.77 403.104 781.77 313.332 504.696 c 0,14,15
 290.365 433.81 290.365 433.81 290.327 385.971 c 0,16,17
 290.287 337.703 290.287 337.703 311.734 318.824 c 128,-1,18
 333.182 299.945 333.182 299.945 395.245 299.945 c 0,19,20
 429.476 299.945 429.476 299.945 451.306 317.613 c 128,-1,21
 473.135 335.281 473.135 335.281 489.124 380.828 c 2,22,-1
 502.272 418.278 l 1,23,-1
 693.309 418.278 l 1,24,-1
 704.146 377.229 l 2,0,1
367.038 8.36426 m 0,25,26
 210.874 8.36426 210.874 8.36426 121.606 92.5625 c 128,-1,27
 32.3379 176.761 32.3379 176.761 24.0791 332.025 c 0,28,29
 13.6895 527.353 13.6895 527.353 134.084 782.338 c 128,-1,30
 254.478 1037.32 254.478 1037.32 503.928 1360.65 c 0,31,32
 515.919 1376.2 515.919 1376.2 528.938 1386.89 c 0,33,34
 556.854 1409.81 556.854 1409.81 588.942 1410.89 c 0,35,36
 638.989 1412.57 638.989 1412.57 680.444 1361.73 c 0,37,38
 935.316 1049.16 935.316 1049.16 1054.23 793.766 c 128,-1,39
 1173.14 538.371 1173.14 538.371 1152.73 333.469 c 0,40,41
 1137.59 180.918 1137.59 180.918 1051.88 96.2705 c 128,-1,42
 966.175 11.6221 966.175 11.6221 820.8 8.875 c 0,43,44
 670.635 5.8291 670.635 5.8291 591.343 104.201 c 1,45,46
 513.586 8.36621 513.586 8.36621 367.038 8.36426 c 0,25,26
EndSplineSet
EndChar

StartChar: uni06F6
Encoding: 1782 1782 121
Width: 1177
VWidth: 2237
GlyphClass: 2
Flags: W
LayerCount: 2
Fore
SplineSet
190.028 72.4727 m 2,0,1
 260.536 340.562 260.536 340.562 378.477 532.87 c 0,2,3
 432.793 621.537 432.793 621.537 505.948 695.905 c 5,4,5
 467.022 709.773 467.022 709.773 434.09 732.762 c 0,6,7
 276.58 841.338 276.58 841.338 276.58 1040.53 c 0,8,9
 276.58 1242.56 276.58 1242.56 392.703 1357.51 c 0,10,11
 523.627 1487.27 523.627 1487.27 689.08 1487.27 c 0,12,13
 817.333 1487.27 817.333 1487.27 914.597 1455.24 c 2,14,-1
 949.64 1443.7 l 1,15,-1
 949.64 1162.11 l 1,16,-1
 875.438 1200.02 l 2,17,18
 797.047 1240.07 797.047 1240.07 695.5 1240.07 c 0,19,20
 644.673 1240.07 644.673 1240.07 604.407 1200.65 c 0,21,22
 545.18 1142.32 545.18 1142.32 545.18 1053.37 c 0,23,24
 545.18 987.565 545.18 987.565 591.889 944.255 c 0,25,26
 628.073 910.54 628.073 910.54 723.32 910.54 c 0,27,28
 824.363 910.54 824.363 910.54 944.875 941.919 c 2,29,-1
 1013.84 959.876 l 1,30,-1
 1013.84 696.511 l 1,31,-1
 979.033 684.855 l 2,32,33
 756.148 610.216 756.148 610.216 645.865 460.548 c 0,34,35
 510.22 275.312 510.22 275.312 454.446 47.377 c 2,36,-1
 444.933 8.5 l 1,37,-1
 173.203 8.5 l 1,38,-1
 190.028 72.4727 l 2,0,1
EndSplineSet
EndChar

StartChar: uniFB8F
Encoding: 64399 64399 136
Width: 1795
VWidth: 2237
GlyphClass: 2
Flags: W
AnchorPoint: "Anchor-10" 401 1296.5 basechar 0
AnchorPoint: "Anchor-7" 798 -114 basechar 0
LayerCount: 2
Fore
SplineSet
409.558 42.4092 m 0,0,1
 248.502 93.1982 248.502 93.1982 155.092 210.207 c 128,-1,2
 61.6807 327.215 61.6807 327.215 41.3467 502.062 c 0,3,4
 26.033 631.686 26.033 631.686 73.5605 775.957 c 2,5,-1
 87.6523 818.733 l 1,6,-1
 343.694 768.37 l 1,7,-1
 335.16 719.229 l 2,8,9
 309.996 574.328 309.996 574.328 314.659 534.891 c 0,10,11
 325.477 440.297 325.477 440.297 378.617 384.296 c 128,-1,12
 431.759 328.296 431.759 328.296 536.666 303.647 c 0,13,14
 587.484 291.707 587.484 291.707 778.328 280.979 c 1,15,-1
 1075.67 281.004 l 2,16,17
 1309.01 281.024 1309.01 281.024 1324.86 382.462 c 0,18,19
 1332.74 432.933 1332.74 432.933 1313.68 475.074 c 128,-1,20
 1294.62 517.215 1294.62 517.215 1243.1 557.292 c 2,21,-1
 878.844 840.641 l 2,22,23
 802.18 900.276 802.18 900.276 785.457 1005.11 c 0,24,25
 771.982 1089.57 771.982 1089.57 806.654 1155.68 c 128,-1,26
 841.323 1221.78 841.323 1221.78 918.288 1257.67 c 2,27,-1
 1625 1587.18 l 2,28,29
 1636.8 1592.89 1636.8 1592.89 1660.98 1604.14 c 128,-1,30
 1685.16 1615.38 1685.16 1615.38 1697.55 1621.01 c 1,31,-1
 1697.55 1329.05 l 1,32,-1
 1089.99 1040.27 l 1,33,34
 1284.71 892.698 1284.71 892.698 1443.39 746.31 c 0,35,36
 1604.97 597.248 1604.97 597.248 1585.62 345.627 c 1,37,38
 1631.79 281.38 1631.79 281.38 1686.42 281.38 c 2,39,-1
 1831.45 281.38 l 5,40,-1
 1831.45 0.5 l 5,41,-1
 1676.71 0.5 l 2,42,43
 1583.84 0.5 1583.84 0.5 1511.91 41.7686 c 0,44,45
 1506.15 45.0732 1506.15 45.0732 1446.1 90.1172 c 1,46,-1
 1438.84 85.083 l 2,47,48
 1316.14 0 1316.14 0 1117 0 c 2,49,-1
 776.204 0 l 1,50,51
 522.019 6.94531 522.019 6.94531 409.558 42.4092 c 0,0,1
EndSplineSet
EndChar

StartChar: uniFB9F
Encoding: 64415 64415 144
Width: 1570
VWidth: 2237
GlyphClass: 2
Flags: W
AnchorPoint: "Anchor-10" 618.9 742 basechar 0
AnchorPoint: "Anchor-7" 740.88 -597.5 basechar 0
LayerCount: 2
Fore
SplineSet
1326.86 633.366 m 0,0,1
 1346.28 527.671 1346.28 527.671 1371.25 416.785 c 0,2,3
 1388.21 342.549 1388.21 342.549 1421.38 311.965 c 128,-1,4
 1454.56 281.38 1454.56 281.38 1511.28 281.38 c 2,5,-1
 1597.53 281.38 l 5,6,-1
 1597.53 0.5 l 5,7,-1
 1452.43 0.5 l 2,8,9
 1404.55 0.5 1404.55 0.5 1360.74 30.2773 c 1,10,11
 1302.89 -178.854 1302.89 -178.854 1160.62 -296.978 c 0,12,13
 989.116 -439.42 989.116 -439.42 668.481 -423.234 c 0,14,15
 310.881 -405.457 310.881 -405.457 144.577 -178.149 c 0,16,17
 11.6904 2.37695 11.6904 2.37695 48.1504 341.984 c 0,18,19
 59.0377 442.288 59.0377 442.288 116.315 581.462 c 2,20,-1
 132.531 620.864 l 1,21,-1
 393.294 564.848 l 1,22,-1
 374.472 510.415 l 2,23,24
 319.015 350.033 319.015 350.033 313.424 236.949 c 0,25,26
 312.631 222.869 312.631 222.869 312.36 209.463 c 0,27,28
 309.06 34.7568 309.06 34.7568 387.025 -39.3164 c 0,29,30
 500.371 -145.821 500.371 -145.821 681.508 -153.617 c 0,31,32
 906.875 -163.32 906.875 -163.32 1001.72 -68.126 c 1,33,34
 1103.64 37.0938 1103.64 37.0938 1110.56 255.237 c 0,35,36
 1113.94 368.896 1113.94 368.896 1061.05 578.43 c 2,37,-1
 1047.93 630.408 l 1,38,-1
 1317.5 684.323 l 1,39,40
 1319.07 676.016 1319.07 676.016 1322.16 658.944 c 128,-1,41
 1325.26 641.873 1325.26 641.873 1326.86 633.366 c 0,0,1
EndSplineSet
EndChar

StartChar: uniFBE8
Encoding: 64488 64488 147
Width: 558
VWidth: 2237
GlyphClass: 2
Flags: W
AnchorPoint: "Anchor-10" 319.93 1116.5 basechar 0
AnchorPoint: "Anchor-7" 293.93 -60.5 basechar 0
LayerCount: 2
Fore
SplineSet
334.044 103.948 m 0,0,1
 212.625 0 212.625 0 4.90039 0 c 2,2,-1
 -80.4004 0 l 5,3,-1
 -80.4004 280.98 l 5,4,-1
 13.0498 280.98 l 2,5,6
 32.6949 280.98 32.6949 280.98 44.166 282.465 c 0,7,8
 139.015 293.258 139.015 293.258 172.311 337.338 c 0,9,10
 229.426 412.952 229.426 412.952 216.197 566.584 c 0,11,12
 206.896 672.873 206.896 672.873 184.676 760.471 c 2,13,-1
 171.627 811.914 l 1,14,-1
 423.471 865.221 l 1,15,-1
 438.205 822.712 l 2,16,17
 473.319 721.404 473.319 721.404 479.948 577.023 c 0,18,19
 496.335 242.889 496.335 242.889 334.044 103.948 c 0,0,1
EndSplineSet
EndChar

StartChar: uniFBE9
Encoding: 64489 64489 148
Width: 657
VWidth: 2237
GlyphClass: 2
Flags: W
AnchorPoint: "Anchor-10" 249.93 1066.5 basechar 0
AnchorPoint: "Anchor-7" 227.93 -116.5 basechar 0
LayerCount: 2
Fore
SplineSet
320.196 85.2734 m 1,0,1
 223.182 0 223.182 0 74.9004 0 c 2,2,-1
 -23.4004 0 l 5,3,-1
 -23.4004 280.98 l 5,4,-1
 28.0498 280.98 l 2,5,6
 118.339 280.979 118.339 280.979 148.239 310.678 c 0,7,8
 182.413 344.624 182.413 344.624 188.773 404.681 c 2,9,-1
 216.605 667.5 l 1,10,-1
 425.254 667.5 l 1,11,-1
 453.086 404.681 l 2,12,13
 459.489 344.215 459.489 344.215 495.286 312.856 c 0,14,15
 531.675 280.979 531.675 280.979 623.811 280.98 c 2,16,-1
 678.66 280.98 l 1,17,-1
 678.66 0 l 1,18,-1
 564.96 0 l 2,19,20
 418.216 0 418.216 0 320.196 85.2734 c 1,0,1
EndSplineSet
EndChar

StartChar: uniFE73
Encoding: 65139 65139 156
Width: 573
VWidth: 2186
GlyphClass: 2
Flags: W
AnchorPoint: "Anchor-10" 210.79 1279.5 basechar 0
AnchorPoint: "Anchor-7" 210.79 -111.5 basechar 0
LayerCount: 2
Fore
SplineSet
296.23 350.74 m 2,0,1
 296.23 286.506 296.23 286.506 352.468 230.268 c 0,2,3
 403.354 179.38 403.354 179.38 514.67 179.38 c 2,4,-1
 581.92 179.38 l 1,5,-1
 581.92 8.5 l 1,6,-1
 455.82 8.5 l 2,7,8
 309.266 8.5 309.266 8.5 214.633 103.133 c 0,9,10
 125.35 192.415 125.35 192.415 125.35 337.9 c 2,11,-1
 125.35 370.91 l 1,12,-1
 296.23 370.91 l 1,13,-1
 296.23 350.74 l 2,0,1
EndSplineSet
EndChar

StartChar: uniFE8E
Encoding: 65166 65166 182
Width: 640
VWidth: 2237
GlyphClass: 2
Flags: W
AnchorPoint: "Anchor-10" 280.95 1504 basechar 0
AnchorPoint: "Anchor-7" 262.95 -60.5 basechar 0
LayerCount: 2
Fore
SplineSet
142.51 459.94 m 2,0,-1
 142.51 1400.03 l 1,1,-1
 411.39 1400.03 l 1,2,-1
 411.39 472.78 l 2,3,4
 411.39 391.486 411.39 391.486 433.814 349.359 c 0,5,6
 452.007 315.183 452.007 315.183 486.059 298.081 c 128,-1,7
 520.11 280.98 520.11 280.98 578.83 280.98 c 2,8,-1
 672.08 280.98 l 5,9,-1
 672.08 0 l 5,10,-1
 558.98 0 l 2,11,12
 436.434 0 436.434 0 345.684 48.6152 c 128,-1,13
 254.934 97.2305 254.934 97.2305 203.679 193.604 c 1,14,15
 142.51 315.737 142.51 315.737 142.51 459.94 c 2,0,-1
EndSplineSet
EndChar

StartChar: uniFEA2
Encoding: 65186 65186 202
Width: 1367
VWidth: 2237
GlyphClass: 2
Flags: W
AnchorPoint: "Anchor-10" 602.5 1116.5 basechar 0
AnchorPoint: "Anchor-7" 565.84 -629.64 basechar 0
LayerCount: 2
Fore
SplineSet
1300.13 281.38 m 2,0,-1
 1407.94 281.38 l 5,1,-1
 1407.94 0.5 l 5,2,-1
 1290.51 0.5 l 2,3,4
 1029.18 0.5 1029.18 0.5 836.877 304.248 c 0,5,6
 809.082 348.145 809.082 348.145 758.196 488.995 c 1,7,8
 576.693 446.561 576.693 446.561 474.794 365.201 c 128,-1,9
 372.895 283.842 372.895 283.842 340.271 162.319 c 1,10,11
 315.133 63.4102 315.133 63.4102 333.626 -7.48926 c 128,-1,12
 352.118 -78.3877 352.118 -78.3877 415.63 -135.413 c 0,13,14
 554.436 -260.111 554.436 -260.111 863.366 -219.934 c 0,15,16
 980.538 -204.42 980.538 -204.42 1183.26 -106.727 c 2,17,-1
 1256.4 -71.4805 l 1,18,-1
 1256.4 -349.624 l 1,19,-1
 1231.47 -364.451 l 2,20,21
 1093.78 -446.34 1093.78 -446.34 896.752 -473.051 c 0,22,23
 445.362 -532.462 445.362 -532.462 210.667 -319.244 c 0,24,25
 108.513 -226.588 108.513 -226.588 75.3613 -94.7812 c 128,-1,26
 42.21 37.0244 42.21 37.0244 78.1934 194.466 c 1,27,28
 132.211 439.814 132.211 439.814 405.074 595.155 c 1,29,30
 367.003 591.052 367.003 591.052 326.261 585.523 c 0,31,32
 199.41 567.673 199.41 567.673 106.759 531.002 c 2,33,-1
 36.9902 503.388 l 1,34,-1
 36.9902 792.9 l 1,35,-1
 72.6582 804.143 l 2,36,37
 231.713 854.279 231.713 854.279 572.611 853.26 c 1,38,39
 915.098 853.26 915.098 853.26 1100.98 804.835 c 2,40,-1
 1139.12 794.899 l 1,41,-1
 1139.12 563.03 l 1,42,-1
 1088.5 562.656 l 2,43,44
 1036.78 562.274 1036.78 562.274 1000.51 557.572 c 1,45,-1
 1018.55 500.958 l 2,46,47
 1054.95 386.72 1054.95 386.72 1123.13 334.047 c 128,-1,48
 1191.3 281.38 1191.3 281.38 1300.13 281.38 c 2,0,-1
EndSplineSet
EndChar

StartChar: uniFEA3
Encoding: 65187 65187 203
Width: 1340
VWidth: 2237
GlyphClass: 2
Flags: W
AnchorPoint: "Anchor-10" 480 1236.73 basechar 0
AnchorPoint: "Anchor-7" 594 -60.5 basechar 0
LayerCount: 2
Fore
SplineSet
1020.73 351.137 m 1,0,1
 914.738 274.937 914.738 274.937 706.987 156.22 c 0,2,3
 433.608 0 433.608 0 71.2549 -0 c 2,4,-1
 -59.4004 0 l 1,5,-1
 -59.4004 280.98 l 5,6,-1
 37.5996 280.98 l 2,7,8
 153.127 280.98 153.127 280.98 299.461 304.848 c 0,9,10
 512.719 339.631 512.719 339.631 781.479 519.541 c 1,11,12
 698.992 542.647 698.992 542.647 563.979 585.961 c 0,13,14
 422.547 631.335 422.547 631.335 355.95 625.701 c 0,15,16
 333.163 624.015 333.163 624.015 289.625 591.837 c 128,-1,17
 246.087 559.659 246.087 559.659 191.814 495.711 c 2,18,-1
 158.848 456.866 l 1,19,-1
 -41.8877 626.871 l 1,20,-1
 -13.9824 665.459 l 2,21,22
 25.7676 720.228 25.7676 720.228 118.19 811.354 c 0,23,24
 203.735 895.713 203.735 895.713 336.93 903.947 c 0,25,26
 456.29 910.982 456.29 910.982 618.507 858.745 c 0,27,28
 746.567 816.634 746.567 816.634 1228.73 677.517 c 2,29,-1
 1285.59 661.108 l 1,30,-1
 1201.15 476.586 l 1,31,-1
 1189.67 468.618 l 2,32,33
 1156.17 445.381 1156.17 445.381 1020.73 351.137 c 1,0,1
EndSplineSet
EndChar

StartChar: uniFEA4
Encoding: 65188 65188 204
Width: 1372
VWidth: 2237
GlyphClass: 2
Flags: W
AnchorPoint: "Anchor-10" 473 1224.69 basechar 0
AnchorPoint: "Anchor-7" 605 -114.5 basechar 0
LayerCount: 2
Fore
SplineSet
837.402 234.321 m 1,0,1
 770.588 192.962 770.588 192.962 707.196 156.34 c 0,2,3
 436.569 0 436.569 0 71.2549 0 c 2,4,-1
 -59.4004 0 l 5,5,-1
 -59.4004 280.98 l 5,6,-1
 37.5996 280.98 l 2,7,8
 153.127 280.98 153.127 280.98 299.461 304.848 c 0,9,10
 512.719 339.632 512.719 339.632 782.143 519.986 c 1,11,12
 700.212 542.984 700.212 542.984 564.101 585.922 c 0,13,14
 422.547 631.335 422.547 631.335 355.95 625.701 c 0,15,16
 333.163 624.015 333.163 624.015 289.625 591.837 c 128,-1,17
 246.078 559.653 246.078 559.653 191.814 495.711 c 2,18,-1
 158.848 456.866 l 1,19,-1
 -40.2998 625.526 l 1,20,-1
 -15.3008 663.578 l 2,21,22
 17.2016 713.051 17.2016 713.051 118.831 811.979 c 1,23,24
 209.102 896.045 209.102 896.045 336.93 903.947 c 0,25,26
 456.29 910.982 456.29 910.982 618.507 858.745 c 0,27,28
 745.844 816.872 745.844 816.872 1228.73 677.517 c 2,29,-1
 1285.59 661.108 l 1,30,-1
 1201.24 476.789 l 1,31,-1
 1190.01 468.856 l 2,32,33
 1118.22 418.145 1118.22 418.145 1047.76 370.598 c 1,34,35
 1065.57 331.395 1065.57 331.395 1132.36 306.637 c 128,-1,36
 1199.14 281.88 1199.14 281.88 1322.32 281.88 c 2,37,-1
 1413.94 281.88 l 1,38,-1
 1413.94 0 l 1,39,-1
 1300.92 0 l 2,40,41
 1130.93 0 1130.93 0 1012.49 58.4834 c 128,-1,42
 894.056 116.967 894.056 116.967 837.402 234.321 c 1,0,1
EndSplineSet
EndChar

StartChar: uniFEAA
Encoding: 65194 65194 210
Width: 995
VWidth: 2237
GlyphClass: 2
Flags: W
AnchorPoint: "Anchor-10" 447.99 1164.65 basechar 0
AnchorPoint: "Anchor-7" 333.5 -114 basechar 0
LayerCount: 2
Fore
SplineSet
489.227 487.35 m 2,0,-1
 302.238 917.588 l 1,1,-1
 554.77 1024.92 l 1,2,-1
 575.149 979.074 l 2,3,4
 637.507 838.788 637.507 838.788 799.715 464.815 c 1,5,6
 869.179 307.898 869.179 307.898 976.625 281.38 c 1,7,-1
 1037.65 281.38 l 5,8,-1
 1037.65 0.5 l 5,9,-1
 974.439 0.5 l 2,10,11
 814.88 0.5 814.88 0.5 722.183 92.9287 c 1,12,13
 658.933 40.4287 658.933 40.4287 558.284 19.7012 c 128,-1,14
 457.637 -1.02734 457.637 -1.02734 314.36 3.73145 c 0,15,16
 119.823 10.1862 119.823 10.1862 57.7109 26.6104 c 2,17,-1
 19.75 36.6484 l 1,18,-1
 19.75 321.563 l 1,19,-1
 81.9219 307.605 l 2,20,21
 216.306 277.435 216.306 277.435 341.258 281.153 c 0,22,23
 418.866 283.329 418.866 283.329 473.711 289.94 c 128,-1,24
 528.556 296.552 528.556 296.552 541.45 302.412 c 0,25,26
 542.515 302.896 542.515 302.896 545.476 304.128 c 128,-1,27
 548.437 305.361 548.437 305.361 549.183 305.802 c 128,-1,28
 549.93 306.242 549.93 306.242 551.937 307.637 c 128,-1,29
 553.944 309.032 553.944 309.032 554.12 310.299 c 128,-1,30
 554.296 311.565 554.296 311.565 555.029 313.963 c 128,-1,31
 555.762 316.359 555.762 316.359 555.047 319.291 c 128,-1,32
 554.332 322.223 554.332 322.223 553.469 326.46 c 128,-1,33
 552.606 330.696 552.606 330.696 550.68 336.132 c 128,-1,34
 548.753 341.567 548.753 341.567 546.042 348.515 c 0,35,36
 525.086 404.843 525.086 404.843 489.227 487.35 c 2,0,-1
EndSplineSet
EndChar

StartChar: uniFEAE
Encoding: 65198 65198 214
Width: 936
VWidth: 2237
GlyphClass: 2
Flags: W
AnchorPoint: "Anchor-10" 489 869 basechar 0
AnchorPoint: "Anchor-7" 461.925 -504.55 basechar 0
LayerCount: 2
Fore
SplineSet
388.645 512.272 m 1,0,-1
 626.746 640.354 l 1,1,-1
 650.049 592.772 l 2,2,3
 683.726 524.008 683.726 524.008 742.705 412.476 c 0,4,5
 779.323 343.23 779.323 343.23 824.469 312.106 c 128,-1,6
 869.617 280.979 869.617 280.979 927.84 280.98 c 2,7,-1
 963.6 280.98 l 5,8,-1
 963.6 0 l 5,9,-1
 941.99 0 l 2,10,11
 817.701 0 817.701 0 745.565 29.7432 c 1,12,13
 690.372 -188.559 690.372 -188.559 510.984 -312.262 c 128,-1,14
 331.592 -435.969 331.592 -435.969 39.5371 -465.402 c 2,15,-1
 -7.55664 -470.148 l 1,16,-1
 -54.5293 -204.506 l 1,17,-1
 1.7666 -199.787 l 2,18,19
 233.819 -180.335 233.819 -180.335 353.616 -91.4102 c 0,20,21
 473.103 -2.71484 473.103 -2.71484 496.79 157.758 c 0,22,23
 516.208 293.033 516.208 293.033 415.166 466.691 c 2,24,-1
 388.645 512.272 l 1,0,-1
EndSplineSet
PairPos2: "'kern' Horizontal Kerning lookup 15-1" uniFEDF dx=-70 dy=0 dh=-70 dv=0 dx=0 dy=0 dh=0 dv=0
PairPos2: "'kern' Horizontal Kerning lookup 15-1" uniFBAC dx=-70 dy=0 dh=-70 dv=0 dx=0 dy=0 dh=0 dv=0
PairPos2: "'kern' Horizontal Kerning lookup 15-1" uniFB90 dx=-70 dy=0 dh=-70 dv=0 dx=0 dy=0 dh=0 dv=0
PairPos2: "'kern' Horizontal Kerning lookup 15-1" uni06A9 dx=-70 dy=0 dh=-70 dv=0 dx=0 dy=0 dh=0 dv=0
PairPos2: "'kern' Horizontal Kerning lookup 15-1" uni0649 dx=-70 dy=0 dh=-70 dv=0 dx=0 dy=0 dh=0 dv=0
PairPos2: "'kern' Horizontal Kerning lookup 15-1" uni0647 dx=-70 dy=0 dh=-70 dv=0 dx=0 dy=0 dh=0 dv=0
PairPos2: "'kern' Horizontal Kerning lookup 15-1" uniFEE7 dx=-70 dy=0 dh=-70 dv=0 dx=0 dy=0 dh=0 dv=0
PairPos2: "'kern' Horizontal Kerning lookup 15-1" uniFEE3 dx=-70 dy=0 dh=-70 dv=0 dx=0 dy=0 dh=0 dv=0
PairPos2: "'kern' Horizontal Kerning lookup 15-1" uni0645 dx=-70 dy=0 dh=-70 dv=0 dx=0 dy=0 dh=0 dv=0
PairPos2: "'kern' Horizontal Kerning lookup 15-1" uniFEDB dx=-70 dy=0 dh=-70 dv=0 dx=0 dy=0 dh=0 dv=0
PairPos2: "'kern' Horizontal Kerning lookup 15-1" uniFED7 dx=-70 dy=0 dh=-70 dv=0 dx=0 dy=0 dh=0 dv=0
PairPos2: "'kern' Horizontal Kerning lookup 15-1" uniFED3 dx=-70 dy=0 dh=-70 dv=0 dx=0 dy=0 dh=0 dv=0
PairPos2: "'kern' Horizontal Kerning lookup 15-1" uni0641 dx=-70 dy=0 dh=-70 dv=0 dx=0 dy=0 dh=0 dv=0
PairPos2: "'kern' Horizontal Kerning lookup 15-1" uniFECF dx=-70 dy=0 dh=-70 dv=0 dx=0 dy=0 dh=0 dv=0
PairPos2: "'kern' Horizontal Kerning lookup 15-1" uniFECB dx=-70 dy=0 dh=-70 dv=0 dx=0 dy=0 dh=0 dv=0
PairPos2: "'kern' Horizontal Kerning lookup 15-1" uniFEC7 dx=-70 dy=0 dh=-70 dv=0 dx=0 dy=0 dh=0 dv=0
PairPos2: "'kern' Horizontal Kerning lookup 15-1" uni0638 dx=-70 dy=0 dh=-70 dv=0 dx=0 dy=0 dh=0 dv=0
PairPos2: "'kern' Horizontal Kerning lookup 15-1" uniFEC3 dx=-70 dy=0 dh=-70 dv=0 dx=0 dy=0 dh=0 dv=0
PairPos2: "'kern' Horizontal Kerning lookup 15-1" uni0637 dx=-70 dy=0 dh=-70 dv=0 dx=0 dy=0 dh=0 dv=0
PairPos2: "'kern' Horizontal Kerning lookup 15-1" uniFEBF dx=-70 dy=0 dh=-70 dv=0 dx=0 dy=0 dh=0 dv=0
PairPos2: "'kern' Horizontal Kerning lookup 15-1" uni0636 dx=-70 dy=0 dh=-70 dv=0 dx=0 dy=0 dh=0 dv=0
PairPos2: "'kern' Horizontal Kerning lookup 15-1" uniFEBB dx=-70 dy=0 dh=-70 dv=0 dx=0 dy=0 dh=0 dv=0
PairPos2: "'kern' Horizontal Kerning lookup 15-1" uni0635 dx=-70 dy=0 dh=-70 dv=0 dx=0 dy=0 dh=0 dv=0
PairPos2: "'kern' Horizontal Kerning lookup 15-1" uniFEB7 dx=-70 dy=0 dh=-70 dv=0 dx=0 dy=0 dh=0 dv=0
PairPos2: "'kern' Horizontal Kerning lookup 15-1" uni0634 dx=-70 dy=0 dh=-70 dv=0 dx=0 dy=0 dh=0 dv=0
PairPos2: "'kern' Horizontal Kerning lookup 15-1" uniFEB3 dx=-70 dy=0 dh=-70 dv=0 dx=0 dy=0 dh=0 dv=0
PairPos2: "'kern' Horizontal Kerning lookup 15-1" uni0633 dx=-70 dy=0 dh=-70 dv=0 dx=0 dy=0 dh=0 dv=0
PairPos2: "'kern' Horizontal Kerning lookup 15-1" uni0630 dx=-70 dy=0 dh=-70 dv=0 dx=0 dy=0 dh=0 dv=0
PairPos2: "'kern' Horizontal Kerning lookup 15-1" uni062F dx=-70 dy=0 dh=-70 dv=0 dx=0 dy=0 dh=0 dv=0
PairPos2: "'kern' Horizontal Kerning lookup 15-1" uniFEA7 dx=-70 dy=0 dh=-70 dv=0 dx=0 dy=0 dh=0 dv=0
PairPos2: "'kern' Horizontal Kerning lookup 15-1" uniFEA3 dx=-70 dy=0 dh=-70 dv=0 dx=0 dy=0 dh=0 dv=0
PairPos2: "'kern' Horizontal Kerning lookup 15-1" uniFE9F dx=-70 dy=0 dh=-70 dv=0 dx=0 dy=0 dh=0 dv=0
PairPos2: "'kern' Horizontal Kerning lookup 15-1" uniFE9B dx=-70 dy=0 dh=-70 dv=0 dx=0 dy=0 dh=0 dv=0
PairPos2: "'kern' Horizontal Kerning lookup 15-1" uni062B dx=-70 dy=0 dh=-70 dv=0 dx=0 dy=0 dh=0 dv=0
PairPos2: "'kern' Horizontal Kerning lookup 15-1" uniFE97 dx=-70 dy=0 dh=-70 dv=0 dx=0 dy=0 dh=0 dv=0
PairPos2: "'kern' Horizontal Kerning lookup 15-1" uni062A dx=-70 dy=0 dh=-70 dv=0 dx=0 dy=0 dh=0 dv=0
PairPos2: "'kern' Horizontal Kerning lookup 15-1" uni0629 dx=-70 dy=0 dh=-70 dv=0 dx=0 dy=0 dh=0 dv=0
PairPos2: "'kern' Horizontal Kerning lookup 15-1" uni0628 dx=-70 dy=0 dh=-70 dv=0 dx=0 dy=0 dh=0 dv=0
PairPos2: "'kern' Horizontal Kerning lookup 15-1" uni0627 dx=-70 dy=0 dh=-70 dv=0 dx=0 dy=0 dh=0 dv=0
PairPos2: "'kern' Horizontal Kerning lookup 15-1" uni0622 dx=-70 dy=0 dh=-70 dv=0 dx=0 dy=0 dh=0 dv=0
PairPos2: "'kern' Horizontal Kerning lookup 15-1" uniFB94 dx=-70 dy=0 dh=-70 dv=0 dx=0 dy=0 dh=0 dv=0
PairPos2: "'kern' Horizontal Kerning lookup 15-1" afii57509 dx=-70 dy=0 dh=-70 dv=0 dx=0 dy=0 dh=0 dv=0
PairPos2: "'kern' Horizontal Kerning lookup 15-1" uniFB56 dx=-70 dy=0 dh=-70 dv=0 dx=0 dy=0 dh=0 dv=0
PairPos2: "'kern' Horizontal Kerning lookup 15-1" afii57506 dx=-70 dy=0 dh=-70 dv=0 dx=0 dy=0 dh=0 dv=0
EndChar

StartChar: uniFEB2
Encoding: 65202 65202 218
Width: 2450
VWidth: 2237
GlyphClass: 2
Flags: W
AnchorPoint: "Anchor-10" 553 902.5 basechar 0
AnchorPoint: "Anchor-7" 523 -530.5 basechar 0
LayerCount: 2
Fore
SplineSet
1303 37.1191 m 1,0,1
 1280.31 -69.7832 1280.31 -69.7832 1219.87 -172.783 c 0,2,3
 1069.97 -428.242 1069.97 -428.242 695.494 -424.974 c 0,4,5
 363.206 -422.834 363.206 -422.834 203.278 -258.49 c 0,6,7
 40.8799 -90.6064 40.8799 -90.6064 40.8799 166.025 c 0,8,9
 40.8799 409.404 40.8799 409.404 153.455 609.073 c 2,10,-1
 173.402 644.452 l 1,11,-1
 435.617 566.874 l 1,12,-1
 414.021 514.563 l 2,13,14
 327.965 306.113 327.965 306.113 325.877 164.505 c 1,15,16
 325.303 12.7988 325.303 12.7988 411.389 -62.5283 c 0,17,18
 503.351 -142.344 503.351 -142.344 689.953 -145.986 c 0,19,20
 830.357 -149.16 830.357 -149.16 912.514 -101.968 c 128,-1,21
 994.67 -54.7754 994.67 -54.7754 1030.94 44.415 c 0,22,23
 1063.8 134.119 1063.8 134.119 1054.05 251.867 c 0,24,25
 1043.2 386.897 1043.2 386.897 978.217 589.069 c 2,26,-1
 956.804 655.687 l 1,27,-1
 1240.16 655.645 l 1,28,-1
 1251.12 619.41 l 2,29,30
 1262.74 580.991 1262.74 580.991 1314.84 394.692 c 0,31,32
 1320.37 374.734 1320.37 374.734 1328.46 358.554 c 0,33,34
 1347.84 319.867 1347.84 319.867 1382.51 301.186 c 128,-1,35
 1417.18 282.505 1417.18 282.505 1476.29 282.505 c 0,36,37
 1479.25 282.505 1479.25 282.505 1482.12 282.62 c 0,38,39
 1614.98 287.954 1614.98 287.954 1602.73 592.602 c 0,40,41
 1602.38 601.446 1602.38 601.446 1601.66 619.093 c 128,-1,42
 1600.94 636.74 1600.94 636.74 1600.6 645.65 c 1,43,-1
 1823.61 645.65 l 1,44,-1
 1826.87 598.14 l 2,45,46
 1838.17 433.41 1838.17 433.41 1848.46 380.199 c 0,47,48
 1860.58 317.065 1860.58 317.065 1885.17 293.978 c 128,-1,49
 1909.76 270.889 1909.76 270.889 1955.19 272.48 c 0,50,51
 1986.49 273.354 1986.49 273.354 2005.16 300.639 c 128,-1,52
 2023.83 327.923 2023.83 327.923 2028.51 404.529 c 2,53,-1
 2047.56 716.36 l 1,54,-1
 2259.8 716.36 l 1,55,-1
 2293.56 409.64 l 2,56,57
 2297.32 375.508 2297.32 375.508 2305.16 350.433 c 128,-1,58
 2313.01 325.367 2313.01 325.367 2319.28 315.873 c 128,-1,59
 2325.54 306.379 2325.54 306.379 2330.68 303.479 c 0,60,61
 2369.84 281.38 2369.84 281.38 2449.46 281.38 c 2,62,-1
 2492.33 281.38 l 5,63,-1
 2492.33 0.5 l 5,64,-1
 2420.92 0.5 l 2,65,66
 2255.97 0.5 2255.97 0.5 2167.47 85.5566 c 1,67,68
 2090.22 -1.13477 2090.22 -1.13477 1986.22 0.00195312 c 0,69,70
 1802.05 1.19727 1802.05 1.19727 1712.74 89.8896 c 1,71,72
 1633.48 -0.887695 1633.48 -0.887695 1485.47 0.000976562 c 0,73,74
 1372.4 0.679688 1372.4 0.679688 1303 37.1191 c 1,0,1
EndSplineSet
EndChar

StartChar: uniFEB3
Encoding: 65203 65203 219
Width: 1611
VWidth: 2237
GlyphClass: 2
Flags: W
AnchorPoint: "Anchor-10" 695.5 1033.5 basechar 0
AnchorPoint: "Anchor-7" 675.5 -214 basechar 0
LayerCount: 2
Fore
SplineSet
308.968 56.416 m 0,0,1
 224.146 -0 224.146 -0 117.7 0 c 2,2,-1
 -59.4004 0 l 1,3,-1
 -59.4004 280.98 l 1,4,-1
 58.8496 280.98 l 2,5,6
 144.171 280.98 144.171 280.98 187.047 316.611 c 128,-1,7
 229.924 352.242 229.924 352.242 243.303 433.359 c 2,8,-1
 276.736 636.07 l 1,9,-1
 469.656 636.07 l 1,10,-1
 490.9 430.078 l 2,11,12
 499.604 345.692 499.604 345.692 534.621 310.509 c 128,-1,13
 569.639 275.325 569.639 275.325 641.062 274.495 c 0,14,15
 711.971 273.669 711.971 273.669 740.306 293.463 c 128,-1,16
 768.641 313.258 768.641 313.258 773.635 357.426 c 2,17,-1
 805.143 636.07 l 1,18,-1
 1012.23 636.07 l 1,19,-1
 1040.85 379.404 l 2,20,21
 1048.16 313.927 1048.16 313.927 1073.98 291.021 c 128,-1,22
 1099.81 268.115 1099.81 268.115 1157.38 272.588 c 0,23,24
 1219.24 277.679 1219.24 277.679 1242.33 427.727 c 0,25,26
 1251.19 486.231 1251.19 486.231 1240.25 562.787 c 0,27,28
 1223.72 677.882 1223.72 677.882 1199.7 735.335 c 2,29,-1
 1175.83 792.472 l 1,30,-1
 1432.7 845.333 l 1,31,-1
 1449.12 807.136 l 2,32,33
 1495.05 700.239 1495.05 700.239 1503.05 501.857 c 0,34,35
 1512.18 289.477 1512.18 289.477 1415.44 148.908 c 0,36,37
 1312.43 0.870117 1312.43 0.870117 1152.87 0.5 c 0,38,39
 981.043 0.0888672 981.043 0.0888672 901.389 84.9492 c 1,40,41
 820.608 -0.955078 820.608 -0.955078 643.061 0.00585938 c 0,42,43
 451.319 1.81641 451.319 1.81641 363.724 94.6826 c 1,44,45
 341.692 78.1807 341.692 78.1807 308.968 56.416 c 0,0,1
EndSplineSet
EndChar

StartChar: uniFEB4
Encoding: 65204 65204 220
Width: 1671
VWidth: 2232
GlyphClass: 2
Flags: W
AnchorPoint: "Anchor-10" 720.5 1004.5 basechar 0
AnchorPoint: "Anchor-7" 712.5 -171 basechar 0
LayerCount: 2
Fore
SplineSet
1148.44 2.28027 m 0,0,1
 993.006 -9.25879 993.006 -9.25879 908.51 88.4355 c 1,2,3
 824.606 1.89844 824.606 1.89844 635.252 3.21094 c 0,4,5
 453.253 4.5752 453.253 4.5752 366.718 96.751 c 1,6,7
 347.747 82.0938 347.747 82.0938 321.348 64.5352 c 0,8,9
 224.32 0 224.32 0 72.207 0 c 2,10,-1
 -49.2744 0 l 5,11,-1
 -49.2744 280.979 l 5,12,-1
 36.4385 280.979 l 2,13,14
 137.329 280.98 137.329 280.98 184.78 309.384 c 0,15,16
 230.785 336.922 230.785 336.922 239.102 389.037 c 2,17,-1
 278.731 637.36 l 1,18,-1
 465.65 637.36 l 1,19,-1
 495.482 425.181 l 2,20,21
 506.552 346.444 506.552 346.444 539.392 313.094 c 128,-1,22
 572.23 279.743 572.23 279.743 634.981 277.649 c 0,23,24
 706.586 275.469 706.586 275.469 737.737 299.065 c 128,-1,25
 768.89 322.663 768.89 322.663 776.311 379.679 c 2,26,-1
 809.85 637.36 l 1,27,-1
 1011.58 637.36 l 1,28,-1
 1045.32 364.681 l 2,29,30
 1051.48 314.868 1051.48 314.868 1071.4 296.34 c 128,-1,31
 1091.32 277.808 1091.32 277.808 1136.55 277.606 c 0,32,33
 1178.14 277.422 1178.14 277.422 1198.41 300.493 c 128,-1,34
 1218.69 323.561 1218.69 323.561 1224.16 388.963 c 2,35,-1
 1250.69 706 l 1,36,-1
 1459.03 706 l 1,37,-1
 1484.04 421.021 l 2,38,39
 1491.73 333.413 1491.73 333.413 1534.01 301.884 c 0,40,41
 1560.83 281.88 1560.83 281.88 1621.45 281.88 c 2,42,-1
 1713.64 281.88 l 1,43,-1
 1713.64 0 l 1,44,-1
 1576.66 0 l 2,45,46
 1439.8 0 1439.8 0 1361.7 81.8301 c 1,47,48
 1293.94 13.1416 1293.94 13.1416 1148.44 2.28027 c 0,0,1
EndSplineSet
EndChar

StartChar: uniFEBA
Encoding: 65210 65210 226
Width: 2472
VWidth: 2237
GlyphClass: 2
Flags: W
AnchorPoint: "Anchor-10" 503 1027.5 basechar 0
AnchorPoint: "Anchor-7" 473 -545.5 basechar 0
LayerCount: 2
Fore
SplineSet
1301.82 40.5908 m 1,0,1
 1272.93 -102.321 1272.93 -102.321 1219.48 -193.699 c 0,2,3
 1070.02 -449.222 1070.02 -449.222 695.073 -445.948 c 0,4,5
 362.786 -443.809 362.786 -443.809 202.857 -279.465 c 0,6,7
 40.46 -111.582 40.46 -111.582 40.46 145.05 c 0,8,9
 40.46 388.436 40.46 388.436 153.035 588.099 c 2,10,-1
 172.982 623.477 l 1,11,-1
 435.197 545.898 l 1,12,-1
 413.601 493.588 l 2,13,14
 327.545 285.142 327.545 285.142 325.457 143.53 c 1,15,16
 324.883 -8.17676 324.883 -8.17676 410.969 -83.5029 c 0,17,18
 502.931 -163.318 502.931 -163.318 689.531 -166.961 c 0,19,20
 832.814 -170.195 832.814 -170.195 915.217 -122.257 c 128,-1,21
 997.618 -74.3174 997.618 -74.3174 1032.22 26.5908 c 0,22,23
 1053.46 88.5469 1053.46 88.5469 1053.46 233.05 c 0,24,25
 1053.46 356.748 1053.46 356.748 1017.28 502.732 c 2,26,-1
 1001.6 566 l 1,27,-1
 1263.77 566 l 1,28,-1
 1270.48 522.827 l 2,29,30
 1280.64 457.434 1280.64 457.434 1310.6 412.529 c 1,31,32
 1434.27 613.191 1434.27 613.191 1493.22 673.299 c 0,33,34
 1629.96 812.679 1629.96 812.679 1746.96 862.925 c 0,35,36
 1970.86 958.529 1970.86 958.529 2145.59 879.322 c 0,37,38
 2339.8 790.661 2339.8 790.661 2339.8 485.455 c 0,39,40
 2339.8 404.383 2339.8 404.383 2309.21 334.231 c 1,41,42
 2319.41 326.03 2319.41 326.03 2325.97 321.305 c 0,43,44
 2381.46 281.38 2381.46 281.38 2456.78 281.38 c 2,45,-1
 2517.1 281.38 l 5,46,-1
 2517.1 0.5 l 5,47,-1
 2397.93 0.5 l 2,48,49
 2242.4 0.5 2242.4 0.5 2118.9 123.451 c 1,50,51
 1906.33 0.525935 1906.33 0.525935 1665.06 -0.0654297 c 2,52,-1
 1424.41 -0.655273 l 2,53,54
 1356.92 -0.820693 1356.92 -0.820693 1301.82 40.5908 c 1,0,1
1521.02 289.744 m 1,55,-1
 1616.46 289.744 l 2,56,57
 1785.88 289.744 1785.88 289.744 1924.79 354.255 c 0,58,59
 2047.42 411.202 2047.42 411.202 2063.24 503.82 c 1,60,61
 2071.33 559.873 2071.33 559.873 2049.75 589.823 c 0,62,63
 2028.01 619.978 2028.01 619.978 1972.38 629.641 c 0,64,65
 1864.29 647.936 1864.29 647.936 1751.47 554.501 c 1,66,67
 1623.92 446.023 1623.92 446.023 1521.02 289.744 c 1,55,-1
EndSplineSet
EndChar

StartChar: uniFEBB
Encoding: 65211 65211 227
Width: 1570
VWidth: 2237
GlyphClass: 2
Flags: W
AnchorPoint: "Anchor-10" 548.3 1125.8 basechar 0
AnchorPoint: "Anchor-7" 524.3 -114 basechar 0
LayerCount: 2
Fore
SplineSet
672.194 292.071 m 1,0,-1
 767.638 292.071 l 2,1,2
 937.048 292.071 937.048 292.071 1075.97 356.582 c 0,3,4
 1198.59 413.524 1198.59 413.524 1214.43 506.143 c 1,5,6
 1222.53 562.183 1222.53 562.183 1200.93 592.148 c 128,-1,7
 1179.21 622.302 1179.21 622.302 1123.55 631.971 c 0,8,9
 1015.48 650.26 1015.48 650.26 902.647 556.827 c 1,10,11
 775.092 448.347 775.092 448.347 672.194 292.071 c 1,0,-1
471.555 459.906 m 1,12,13
 529.172 548.677 529.172 548.677 643.385 674.55 c 0,14,15
 757.055 799.824 757.055 799.824 896.96 864.73 c 1,16,17
 1098.52 956.021 1098.52 956.021 1283.62 877.148 c 0,18,19
 1387.95 832.766 1387.95 832.766 1439.46 732.688 c 128,-1,20
 1490.97 632.609 1490.97 632.609 1490.97 487.782 c 0,21,22
 1490.97 275.452 1490.97 275.452 1297.39 141.529 c 0,23,24
 1091.96 -0.984687 1091.96 -0.984687 815.915 0.00195312 c 2,25,-1
 628.756 0.670898 l 2,26,27
 550.826 0.949434 550.826 0.949434 447.818 54.8877 c 0,28,29
 387.558 86.4414 387.558 86.4414 345.782 132.791 c 1,30,31
 227.122 0 227.122 0 60.9902 0 c 2,32,-1
 -45.4004 0 l 5,33,-1
 -45.4004 280.98 l 5,34,-1
 2.13965 280.98 l 2,35,36
 94.5702 280.979 94.5702 280.979 128.292 307.447 c 0,37,38
 184.044 351.218 184.044 351.218 197.753 449.132 c 2,39,-1
 224.903 643.04 l 1,40,-1
 434.286 643.04 l 1,41,-1
 463.227 492.189 l 2,42,43
 466.588 474.672 466.588 474.672 471.555 459.906 c 1,12,13
EndSplineSet
EndChar

StartChar: uniFEBC
Encoding: 65212 65212 228
Width: 1626
VWidth: 2237
GlyphClass: 2
Flags: W
AnchorPoint: "Anchor-10" 580.5 1190.5 basechar 0
AnchorPoint: "Anchor-7" 588.5 -114 basechar 0
LayerCount: 2
Fore
SplineSet
672.194 292.071 m 1,0,-1
 767.638 292.071 l 2,1,2
 937.048 292.071 937.048 292.071 1075.97 356.582 c 0,3,4
 1198.59 413.524 1198.59 413.524 1214.43 506.143 c 1,5,6
 1222.53 562.183 1222.53 562.183 1200.93 592.148 c 128,-1,7
 1179.21 622.302 1179.21 622.302 1123.55 631.971 c 0,8,9
 1015.48 650.26 1015.48 650.26 902.647 556.827 c 1,10,11
 775.092 448.347 775.092 448.347 672.194 292.071 c 1,0,-1
1458 331.754 m 1,12,13
 1464.79 326.535 1464.79 326.535 1472.07 321.28 c 0,14,15
 1527.39 281.38 1527.39 281.38 1597.51 281.38 c 2,16,-1
 1672.8 281.38 l 1,17,-1
 1672.8 0.5 l 1,18,-1
 1576.11 0.5 l 2,19,20
 1422.96 0.5 1422.96 0.5 1337.27 66.749 c 0,21,22
 1291.78 101.907 1291.78 101.907 1269.21 122.881 c 1,23,24
 1073.63 -0.230558 1073.63 -0.230558 816.051 0.00195312 c 2,25,-1
 628.892 0.170898 l 2,26,27
 552.179 0.240145 552.179 0.240145 447.818 54.8877 c 0,28,29
 387.558 86.4414 387.558 86.4414 345.782 132.791 c 1,30,31
 227.122 0 227.122 0 60.9902 0 c 2,32,-1
 -40.4004 0 l 5,33,-1
 -40.4004 280.98 l 5,34,-1
 2.13965 280.98 l 2,35,36
 94.7177 280.979 94.7177 280.979 136.137 322.396 c 0,37,38
 182.621 368.883 182.621 368.883 195.78 460.324 c 2,39,-1
 222.074 643.04 l 1,40,-1
 435.398 643.04 l 1,41,-1
 462.252 501.058 l 2,42,43
 466.466 478.779 466.466 478.779 473.049 460.227 c 1,44,45
 534.947 555.042 534.947 555.042 643.385 674.55 c 0,46,47
 761.573 804.805 761.573 804.805 897.729 865.075 c 0,48,49
 1110.51 957.643 1110.51 957.643 1284.72 883.107 c 0,50,51
 1388.81 838.572 1388.81 838.572 1439.89 737.015 c 128,-1,52
 1490.97 635.457 1490.97 635.457 1490.97 487.782 c 0,53,54
 1490.97 404.517 1490.97 404.517 1458 331.754 c 1,12,13
EndSplineSet
EndChar

StartChar: uniFEC1
Encoding: 65217 65217 233
Width: 1450
VWidth: 2237
GlyphClass: 2
Flags: W
AnchorPoint: "Anchor-7" 287.72 -114 basechar 0
AnchorPoint: "Anchor-10" 287.72 1518.47 basechar 0
LayerCount: 2
Fore
SplineSet
592.821 292.009 m 1,0,-1
 688.264 292.009 l 2,1,2
 857.683 292.009 857.683 292.009 996.599 356.518 c 0,3,4
 1119.21 413.459 1119.21 413.459 1135.05 506.083 c 1,5,6
 1143.15 562.117 1143.15 562.117 1121.55 592.084 c 128,-1,7
 1099.82 622.24 1099.82 622.24 1044.17 631.907 c 0,8,9
 936.102 650.197 936.102 650.197 823.284 556.772 c 1,10,11
 695.652 448.214 695.652 448.214 592.821 292.009 c 1,0,-1
746.048 0 m 2,12,-1
 1.75 0 l 5,13,-1
 1.75 280.979 l 5,14,-1
 156.28 280.979 l 1,15,-1
 156.28 1398.89 l 1,16,-1
 424.16 1398.89 l 1,17,-1
 424.16 497.204 l 1,18,19
 600.75 772.9 600.75 772.9 828.852 880.447 c 0,20,21
 1008.61 964.697 1008.61 964.697 1194.08 886.267 c 0,22,23
 1297.31 842.221 1297.31 842.221 1348.04 742.36 c 128,-1,24
 1398.76 642.499 1398.76 642.499 1398.76 497.639 c 0,25,26
 1398.76 285.411 1398.76 285.411 1211.88 146.764 c 0,27,28
 1014.58 0 1014.58 0 746.048 0 c 2,12,-1
EndSplineSet
EndChar

StartChar: uniFEC2
Encoding: 65218 65218 234
Width: 1562
VWidth: 2237
GlyphClass: 2
Flags: W
AnchorPoint: "Anchor-7" 395.13 -114 basechar 0
AnchorPoint: "Anchor-10" 307.67 1520.79 basechar 0
LayerCount: 2
Fore
SplineSet
606.071 292.009 m 1,0,-1
 701.514 292.009 l 2,1,2
 870.932 292.009 870.932 292.009 1009.85 356.518 c 0,3,4
 1132.46 413.459 1132.46 413.459 1148.3 506.083 c 1,5,6
 1156.4 562.117 1156.4 562.117 1134.8 592.084 c 128,-1,7
 1113.07 622.24 1113.07 622.24 1057.42 631.907 c 0,8,9
 949.352 650.197 949.352 650.197 836.534 556.772 c 1,10,11
 708.903 448.214 708.903 448.214 606.071 292.009 c 1,0,-1
1384.75 351.787 m 1,12,13
 1400.93 328.052 1400.93 328.052 1410.31 321.28 c 0,14,15
 1465.63 281.38 1465.63 281.38 1541.1 281.38 c 2,16,-1
 1600.9 281.38 l 1,17,-1
 1600.9 0.5 l 1,18,-1
 1482.25 0.5 l 2,19,20
 1304.64 0.5 1304.64 0.5 1195.16 125.6 c 1,21,22
 1007.48 0 1007.48 0 759.298 0 c 2,23,-1
 1 0 l 5,24,-1
 1 280.98 l 5,25,-1
 168.53 280.98 l 1,26,-1
 168.53 1399.89 l 1,27,-1
 437.41 1399.89 l 1,28,-1
 437.41 497.581 l 1,29,30
 617.2 779.559 617.2 779.559 842.747 880.737 c 0,31,32
 1039.42 968.414 1039.42 968.414 1216.12 890.415 c 0,33,34
 1412.01 802.791 1412.01 802.791 1412.01 497.639 c 0,35,36
 1412.01 420.407 1412.01 420.407 1384.75 351.787 c 1,12,13
EndSplineSet
EndChar

StartChar: uniFEC3
Encoding: 65219 65219 235
Width: 1432
VWidth: 2237
GlyphClass: 2
Flags: W
AnchorPoint: "Anchor-10" 277.57 1512.47 basechar 0
AnchorPoint: "Anchor-7" 268.57 -114 basechar 0
LayerCount: 2
Fore
SplineSet
573.672 292.009 m 1,0,-1
 669.114 292.009 l 2,1,2
 838.53 292.009 838.53 292.009 977.447 356.518 c 0,3,4
 1100.06 413.46 1100.06 413.46 1115.9 506.082 c 1,5,6
 1124 562.117 1124 562.117 1102.4 592.084 c 128,-1,7
 1080.67 622.239 1080.67 622.239 1025.02 631.906 c 0,8,9
 916.951 650.197 916.951 650.197 804.136 556.773 c 1,10,11
 676.503 448.214 676.503 448.214 573.672 292.009 c 1,0,-1
726.898 0 m 2,12,-1
 -39.4004 0 l 5,13,-1
 -39.4004 280.98 l 5,14,-1
 136.13 280.98 l 1,15,-1
 136.13 1399.89 l 1,16,-1
 405.01 1399.89 l 1,17,-1
 405.01 497.519 l 1,18,19
 584.23 778.467 584.23 778.467 810.155 880.654 c 0,20,21
 1002.06 968.264 1002.06 968.264 1182.79 887.172 c 0,22,23
 1282.46 842.856 1282.46 842.856 1331.04 742.821 c 128,-1,24
 1379.61 642.785 1379.61 642.785 1379.61 497.639 c 0,25,26
 1379.61 285.411 1379.61 285.411 1192.74 146.776 c 0,27,28
 995.435 0 995.435 0 726.898 0 c 2,12,-1
EndSplineSet
EndChar

StartChar: uniFEC4
Encoding: 65220 65220 236
Width: 1530
VWidth: 2237
GlyphClass: 2
Flags: W
AnchorPoint: "Anchor-10" 269.27 1521.79 basechar 0
AnchorPoint: "Anchor-7" 362.73 -114 basechar 0
LayerCount: 2
Fore
SplineSet
573.672 292.009 m 1,0,-1
 669.114 292.009 l 2,1,2
 838.53 292.009 838.53 292.009 977.447 356.518 c 0,3,4
 1100.06 413.46 1100.06 413.46 1115.9 506.082 c 1,5,6
 1124 562.117 1124 562.117 1102.4 592.084 c 128,-1,7
 1080.67 622.239 1080.67 622.239 1025.02 631.906 c 0,8,9
 916.951 650.197 916.951 650.197 804.136 556.773 c 1,10,11
 676.503 448.214 676.503 448.214 573.672 292.009 c 1,0,-1
1352.36 351.787 m 1,12,13
 1368.54 328.045 1368.54 328.045 1377.91 321.28 c 0,14,15
 1433.23 281.38 1433.23 281.38 1508.7 281.38 c 2,16,-1
 1569.5 281.38 l 1,17,-1
 1569.5 0.5 l 1,18,-1
 1449.85 0.5 l 2,19,20
 1272.24 0.5 1272.24 0.5 1162.76 125.6 c 1,21,22
 975.081 0 975.081 0 726.898 0 c 2,23,-1
 -39.4004 0 l 5,24,-1
 -39.4004 280.98 l 5,25,-1
 136.13 280.98 l 1,26,-1
 136.13 1400.89 l 1,27,-1
 405.01 1400.89 l 1,28,-1
 405.01 497.519 l 1,29,30
 584.243 778.417 584.243 778.417 810.173 880.658 c 0,31,32
 1003.29 967.805 1003.29 967.805 1181.57 889.483 c 0,33,34
 1379.61 801.959 1379.61 801.959 1379.61 497.639 c 0,35,36
 1379.61 420.406 1379.61 420.406 1352.36 351.787 c 1,12,13
EndSplineSet
EndChar

StartChar: uniFECA
Encoding: 65226 65226 242
Width: 1189
VWidth: 2237
GlyphClass: 2
Flags: W
AnchorPoint: "Anchor-10" 568 1116.5 basechar 0
AnchorPoint: "Anchor-7" 524.69 -608.64 basechar 0
LayerCount: 2
Fore
SplineSet
606.635 627.039 m 0,0,1
 587.855 627.039 587.855 627.039 569.743 624.377 c 1,2,3
 584.721 612.213 584.721 612.213 606.637 596.312 c 1,4,5
 628.533 612.195 628.533 612.195 643.396 624.268 c 1,6,7
 623.553 627.039 623.553 627.039 606.635 627.039 c 0,0,1
390.977 440.631 m 1,8,9
 328.593 476.951 328.593 476.951 266.748 529.994 c 0,10,11
 233.479 558.528 233.479 558.528 215.503 586.047 c 128,-1,12
 197.526 613.565 197.526 613.565 200.848 648.081 c 0,13,14
 212.863 772.978 212.863 772.978 376.998 851.806 c 0,15,16
 474.071 898.946 474.071 898.946 602.069 898.946 c 128,-1,17
 730.072 898.946 730.072 898.946 827.189 851.784 c 0,18,19
 1006.94 765.455 1006.94 765.455 1006.94 643.197 c 0,20,21
 1006.94 633.519 1006.94 633.519 1005.52 624.892 c 128,-1,22
 1004.1 616.265 1004.1 616.265 999.513 607.104 c 128,-1,23
 994.922 597.941 994.922 597.941 992.361 592.542 c 128,-1,24
 989.801 587.143 989.801 587.143 981.233 577.083 c 128,-1,25
 972.666 567.024 972.666 567.024 969.999 563.893 c 128,-1,26
 967.332 560.762 967.332 560.762 955.821 548.847 c 128,-1,27
 944.311 536.932 944.311 536.932 942.15 534.654 c 0,28,29
 878.101 467.148 878.101 467.148 781.981 420.951 c 1,30,31
 908.009 281.38 908.009 281.38 1049.5 281.38 c 2,32,-1
 1214.7 281.38 l 5,33,-1
 1214.7 0.5 l 5,34,-1
 1066.62 0.5 l 2,35,36
 842.175 0.5 842.175 0.5 595.694 278.738 c 1,37,38
 435.18 206.653 435.18 206.653 369.744 123.791 c 0,39,40
 319.647 61.0254 319.647 61.0254 312.537 0.251953 c 128,-1,41
 305.427 -60.5215 305.427 -60.5215 339.548 -127.856 c 0,42,43
 418.801 -285.01 418.801 -285.01 744.33 -248.866 c 0,44,45
 871.312 -235.062 871.312 -235.062 1019.47 -166.083 c 2,46,-1
 1091.99 -132.319 l 1,47,-1
 1091.99 -408.077 l 1,48,-1
 1067.5 -422.979 l 2,49,50
 946.427 -496.651 946.427 -496.651 748.002 -507.094 c 0,51,52
 226.279 -534.549 226.279 -534.549 91.7959 -248.394 c 1,53,54
 34.5771 -124.213 34.5771 -124.213 49.9199 -0.768555 c 128,-1,55
 65.2617 122.675 65.2617 122.675 151.047 239.594 c 0,56,57
 231.411 349.975 231.411 349.975 390.977 440.631 c 1,8,9
EndSplineSet
EndChar

StartChar: uniFECB
Encoding: 65227 65227 243
Width: 1090
VWidth: 2237
GlyphClass: 2
Flags: W
AnchorPoint: "Anchor-10" 373.265 1272.23 basechar 0
AnchorPoint: "Anchor-7" 513.6 -60.5 basechar 0
LayerCount: 2
Fore
SplineSet
-39.4004 280.979 m 5,0,-1
 171.397 280.979 l 1,1,2
 142.532 324.5 142.532 324.5 126.42 370.352 c 0,3,4
 64.8581 551.362 64.8581 551.362 128.407 711.92 c 0,5,6
 179.761 841.667 179.761 841.667 284.98 910.485 c 128,-1,7
 390.201 979.304 390.201 979.304 539.591 982.696 c 0,8,9
 801.089 988.284 801.089 988.284 927.233 845.066 c 2,10,-1
 948.864 820.507 l 1,11,-1
 853.062 605.387 l 1,12,-1
 801.31 648.09 l 2,13,14
 699.319 732.248 699.319 732.248 543.508 719.028 c 0,15,16
 478.901 713.604 478.901 713.604 439.545 688.021 c 128,-1,17
 400.188 662.439 400.188 662.439 378.224 613.954 c 0,18,19
 337.943 525.04 337.943 525.04 384.588 420.892 c 0,20,21
 418.396 344.176 418.396 344.176 471.212 319.699 c 0,22,23
 480.873 315.222 480.873 315.222 503.045 313.528 c 128,-1,24
 525.217 311.834 525.217 311.834 565.719 315.028 c 128,-1,25
 606.23 318.224 606.23 318.224 654.062 327.495 c 2,26,-1
 1014 397.262 l 1,27,-1
 1014 115.918 l 1,28,-1
 975.745 106.045 l 2,29,30
 564.759 -0.0238531 564.759 -0.0238531 356.355 -0.015625 c 2,31,-1
 -39.4004 0 l 5,32,-1
 -39.4004 280.979 l 5,0,-1
EndSplineSet
EndChar

StartChar: uniFECC
Encoding: 65228 65228 244
Width: 932
VWidth: 2237
GlyphClass: 2
Flags: W
AnchorPoint: "Anchor-10" 464.58 1116.5 basechar 0
AnchorPoint: "Anchor-7" 404.58 -81.5 basechar 0
LayerCount: 2
Fore
SplineSet
476.559 575.954 m 0,0,1
 410.305 575.954 410.305 575.954 345.574 567.306 c 1,2,3
 400.208 524.486 400.208 524.486 476.567 470.37 c 1,4,5
 552.868 524.433 552.868 524.433 607.01 566.874 c 1,6,7
 536.168 575.954 536.168 575.954 476.559 575.954 c 0,0,1
40.8604 0 m 2,8,-1
 -43.4004 0 l 1,9,-1
 -43.4004 280.98 l 1,10,-1
 17.3203 280.98 l 2,11,12
 121.799 280.979 121.799 280.979 206.736 309.715 c 0,13,14
 256.959 326.705 256.959 326.705 288.742 344.795 c 1,15,16
 213.775 384.566 213.775 384.566 136.959 449.003 c 0,17,18
 103.506 477.064 103.506 477.064 85.373 504.202 c 128,-1,19
 67.2412 531.34 67.2412 531.34 70.6416 565.923 c 0,20,21
 82.7412 688.916 82.7412 688.916 247.172 766.143 c 0,22,23
 344.085 812.172 344.085 812.172 471.854 812.172 c 128,-1,24
 599.624 812.172 599.624 812.172 696.575 766.127 c 0,25,26
 876.729 681.517 876.729 681.517 876.729 560.93 c 0,27,28
 876.729 553.281 876.729 553.281 875.873 546.302 c 128,-1,29
 875.018 539.322 875.018 539.322 871.98 531.96 c 128,-1,30
 868.943 524.597 868.943 524.597 867.404 519.837 c 128,-1,31
 865.866 515.077 865.866 515.077 860.004 507.295 c 128,-1,32
 854.143 499.512 854.143 499.512 852.434 496.572 c 128,-1,33
 850.725 493.632 850.725 493.632 842.552 485.029 c 128,-1,34
 834.379 476.427 834.379 476.427 833.012 474.906 c 128,-1,35
 831.645 473.385 831.645 473.385 821.674 463.562 c 128,-1,36
 811.702 453.74 811.702 453.74 810.891 452.934 c 0,37,38
 747.815 390.238 747.815 390.238 657.183 343.978 c 1,39,40
 688.687 322.506 688.687 322.506 732.161 310.018 c 0,41,42
 835.966 280.199 835.966 280.199 911.612 280.979 c 2,43,-1
 972.561 281.607 l 1,44,-1
 972.561 0.5 l 1,45,-1
 888.3 0.5 l 2,46,47
 641.693 0.5 641.693 0.5 466.076 145.219 c 1,48,49
 289.854 0 289.854 0 40.8604 0 c 2,8,-1
EndSplineSet
EndChar

StartChar: uniFEDA
Encoding: 65242 65242 258
Width: 1840
VWidth: 2237
GlyphClass: 2
Flags: W
AnchorPoint: "Anchor-10" 539 1423.5 basechar 0
AnchorPoint: "Anchor-7" 790 -167.5 basechar 0
LayerCount: 2
Fore
SplineSet
1101.77 1296.26 m 1,0,-1
 1101.77 1132.8 l 1,1,-1
 1054.22 1129.58 l 2,2,3
 989.306 1125.18 989.306 1125.18 957.139 1113.33 c 0,4,5
 908.515 1095.09 908.515 1095.09 896.363 1079.21 c 1,6,7
 896.823 1065.62 896.823 1065.62 901.854 1057.7 c 1,8,9
 918.407 1048.87 918.407 1048.87 964.441 1042.1 c 0,10,11
 1030.79 1032.34 1030.79 1032.34 1068.38 998.014 c 0,12,13
 1111.05 959.047 1111.05 959.047 1111.05 894.298 c 0,14,15
 1111.05 831.706 1111.05 831.706 1080.4 781.285 c 128,-1,16
 1049.74 730.864 1049.74 730.864 993.406 699.007 c 0,17,18
 911.949 652.94 911.949 652.94 802.924 651.929 c 0,19,20
 735.243 651.929 735.243 651.929 676.331 662.268 c 2,21,-1
 634.148 669.672 l 1,22,-1
 634.148 839.299 l 1,23,-1
 692.03 831.415 l 2,24,25
 752.66 823.158 752.66 823.158 793.059 823.158 c 0,26,27
 857.241 823.158 857.241 823.158 895.822 838.348 c 0,28,29
 917.781 846.78 917.781 846.78 929.852 855.565 c 128,-1,30
 941.923 864.35 941.923 864.35 943.187 867.422 c 128,-1,31
 944.45 870.495 944.45 870.495 944.45 872.898 c 2,32,33
 944.45 872.898 944.45 872.898 942.537 878.276 c 1,34,35
 933.52 887.603 933.52 887.603 893.793 894.075 c 0,36,37
 818.767 905.508 818.767 905.508 774.924 950.351 c 0,38,39
 727.639 998.712 727.639 998.712 729.389 1079.21 c 0,40,41
 730.69 1131.85 730.69 1131.85 757.758 1173.61 c 128,-1,42
 784.825 1215.36 784.825 1215.36 832.52 1239.53 c 0,43,44
 925.401 1286.52 925.401 1286.52 1047.96 1293.29 c 2,45,-1
 1101.77 1296.26 l 1,0,-1
1275.76 30.0098 m 0,46,47
 1101.75 -1.54297 1101.75 -1.54297 910.056 2.00879 c 0,48,49
 577.513 8.16992 577.513 8.16992 442.301 45.874 c 0,50,51
 264.806 95.3701 264.806 95.3701 162.567 211.371 c 128,-1,52
 60.3301 327.373 60.3301 327.373 41.291 502.559 c 0,53,54
 27.4953 632.797 27.4953 632.797 80.0684 777.424 c 2,55,-1
 94.9893 818.471 l 1,56,-1
 350.633 768.186 l 1,57,-1
 340.985 718.275 l 2,58,59
 312.553 571.189 312.553 571.189 317.5 536.126 c 0,60,61
 330.345 445.087 330.345 445.087 391.113 388.041 c 128,-1,62
 451.882 330.994 451.882 330.994 571.351 303.721 c 0,63,64
 650.018 285.762 650.018 285.762 805.311 281.794 c 0,65,66
 1007.1 275.88 1007.1 275.88 1125.35 288.159 c 0,67,68
 1389.05 315.543 1389.05 315.543 1414.4 457.019 c 0,69,70
 1417.43 473.908 1417.43 473.908 1417.43 492.814 c 2,71,-1
 1417.43 1400.96 l 1,72,-1
 1690.3 1400.96 l 1,73,-1
 1690.3 462.814 l 2,74,75
 1690.3 432.06 1690.3 432.06 1687.39 402.938 c 0,76,77
 1683.03 359.221 1683.03 359.221 1671.86 318.169 c 1,78,79
 1713.6 281.38 1713.6 281.38 1795.97 281.38 c 2,80,-1
 1873.22 281.38 l 5,81,-1
 1873.22 0.5 l 5,82,-1
 1737.12 0.5 l 2,83,84
 1626.19 0.5 1626.19 0.5 1495.72 98.8652 c 1,85,86
 1406.99 53.8057 1406.99 53.8057 1275.76 30.0098 c 0,46,47
EndSplineSet
EndChar

StartChar: uniFEDB
Encoding: 65243 65243 259
Width: 883
VWidth: 2237
GlyphClass: 2
Flags: W
AnchorPoint: "Anchor-10" 192.5 1511 basechar 0
AnchorPoint: "Anchor-7" 321 -114 basechar 0
LayerCount: 2
Fore
SplineSet
293.7 0 m 2,0,-1
 -61.4004 0 l 5,1,-1
 -61.4004 280.976 l 5,2,-1
 252.367 281.004 l 2,3,4
 486.704 281.025 486.704 281.025 502.556 382.47 c 0,5,6
 510.692 434.545 510.692 434.545 491.595 476.356 c 128,-1,7
 472.495 518.169 472.495 518.169 420.719 556.593 c 2,8,-1
 59.9512 824.322 l 2,9,10
 -30.014 891.086 -30.014 891.086 -38.3154 994.041 c 0,11,12
 -45.1221 1078.45 -45.1221 1078.45 -10.7275 1143.08 c 128,-1,13
 23.6656 1207.7 23.6656 1207.7 95.8545 1241.61 c 2,14,-1
 874.25 1607.26 l 1,15,-1
 874.25 1318.23 l 1,16,-1
 266.363 1025.57 l 1,17,18
 447.688 889.225 447.688 889.225 618.229 747.947 c 1,19,20
 788.956 603.839 788.956 603.839 760.656 326.979 c 0,21,22
 743.843 165.714 743.843 165.714 614.572 80.4287 c 0,23,24
 492.661 0 492.661 0 293.7 0 c 2,0,-1
EndSplineSet
EndChar

StartChar: uniFEDC
Encoding: 65244 65244 260
Width: 990
VWidth: 2237
GlyphClass: 2
Flags: W
AnchorPoint: "Anchor-10" 182.5 1505 basechar 0
AnchorPoint: "Anchor-7" 321 -114 basechar 0
LayerCount: 2
Fore
SplineSet
660.803 90.1172 m 1,0,-1
 652.516 84.373 l 1,1,-1
 651.457 83.7139 l 2,2,3
 516.949 0 516.949 0 331.7 0 c 2,4,-1
 -59.4004 0 l 1,5,-1
 -59.4004 280.976 l 1,6,-1
 290.367 281.004 l 2,7,8
 526.701 281.023 526.701 281.023 542.557 382.473 c 0,9,10
 550.255 431.729 550.255 431.729 530.597 473.943 c 128,-1,11
 510.937 516.16 510.937 516.16 457.895 557.218 c 2,12,-1
 108.639 827.567 l 2,13,14
 3.16905 909.208 3.16905 909.208 -0.438477 998.065 c 0,15,16
 -4.35254 1094.23 -4.35254 1094.23 42.667 1166.87 c 128,-1,17
 89.6863 1239.51 89.6863 1239.51 180.808 1280.05 c 2,18,-1
 912.25 1605.47 l 1,19,-1
 912.25 1317.1 l 1,20,-1
 302.867 1026.51 l 1,21,22
 638.084 765.403 638.084 765.403 658.834 745.612 c 0,23,24
 818.714 591.066 818.714 591.066 800.327 345.632 c 1,25,26
 846.157 281.38 846.157 281.38 901.12 281.38 c 2,27,-1
 1016.15 281.38 l 5,28,-1
 1016.15 0.5 l 5,29,-1
 891.41 0.5 l 2,30,31
 798.54 0.5 798.54 0.5 726.619 41.7646 c 0,32,33
 720.877 45.0586 720.877 45.0586 660.803 90.1172 c 1,0,-1
EndSplineSet
EndChar

StartChar: uniFEDE
Encoding: 65246 65246 262
Width: 1402
VWidth: 2237
GlyphClass: 2
Flags: W
AnchorPoint: "Anchor-10" 453.5 1084.5 basechar 0
AnchorPoint: "Anchor-7" 524.34 -535.3 basechar 0
LayerCount: 2
Fore
SplineSet
918.4 423.123 m 1,0,-1
 918.4 1400.83 l 1,1,-1
 1186.28 1400.83 l 1,2,-1
 1186.28 456.31 l 2,3,4
 1186.28 358.628 1186.28 358.628 1227.58 317.331 c 0,5,6
 1263.54 281.38 1263.54 281.38 1343.72 281.38 c 2,7,-1
 1438.97 281.38 l 5,8,-1
 1438.97 0.5 l 5,9,-1
 1357.87 0.5 l 2,10,11
 1263.4 0.5 1263.4 0.5 1181.43 34.2842 c 1,12,13
 1156.77 -171.903 1156.77 -171.903 1024.19 -314.646 c 0,14,15
 883.032 -467.715 883.032 -467.715 645.878 -472.666 c 0,16,17
 369.848 -478.817 369.848 -478.817 211.306 -340.993 c 0,18,19
 53.0986 -203.801 53.0986 -203.801 41.4531 41.501 c 0,20,21
 33.9444 202.143 33.9444 202.143 89.709 344.237 c 2,22,-1
 105.323 384.023 l 1,23,-1
 361.452 332.58 l 1,24,-1
 345.449 278.997 l 2,25,26
 305.994 146.889 305.994 146.889 311.089 68.4873 c 0,27,28
 319.133 -66.168 319.133 -66.168 399.098 -140.495 c 0,29,30
 471.538 -208.254 471.538 -208.254 643.583 -201.963 c 0,31,32
 741.64 -198.593 741.64 -198.593 810.942 -148.63 c 0,33,34
 919.028 -70.6773 919.028 -70.6773 918.83 84.8477 c 2,35,-1
 918.4 423.123 l 1,0,-1
EndSplineSet
EndChar

StartChar: uniFEDF
Encoding: 65247 65247 263
Width: 582
VWidth: 2237
GlyphClass: 2
Flags: W
AnchorPoint: "Anchor-10" 303.73 1521 basechar 0
AnchorPoint: "Anchor-7" 242.73 -60.5 basechar 0
LayerCount: 2
Fore
SplineSet
449.17 492.69 m 2,0,1
 449.17 248.761 449.17 248.761 329.181 120.111 c 0,2,3
 217.151 0 217.151 0 61.7002 0 c 2,4,-1
 -35.4004 0 l 5,5,-1
 -35.4004 280.98 l 5,6,-1
 12.8496 280.98 l 2,7,8
 88.0902 280.979 88.0902 280.979 135.235 339.886 c 0,9,10
 180.29 396.181 180.29 396.181 180.29 505.53 c 2,11,-1
 180.29 1401.03 l 1,12,-1
 449.17 1401.03 l 1,13,-1
 449.17 492.69 l 2,0,1
EndSplineSet
EndChar

StartChar: uniFEE0
Encoding: 65248 65248 264
Width: 650
VWidth: 2237
GlyphClass: 2
Flags: W
AnchorPoint: "Anchor-10" 313.73 1521 basechar 0
AnchorPoint: "Anchor-7" 267.73 -64.5 basechar 0
LayerCount: 2
Fore
SplineSet
325.999 85.2734 m 1,0,1
 228.992 0 228.992 0 80.7002 0 c 2,2,-1
 -26.4004 0 l 5,3,-1
 -26.4004 280.98 l 5,4,-1
 21.8496 280.98 l 2,5,6
 108.672 280.979 108.672 280.979 147.939 318.255 c 0,7,8
 191.29 359.41 191.29 359.41 191.29 456.31 c 2,9,-1
 191.29 1399.96 l 1,10,-1
 460.17 1399.96 l 1,11,-1
 460.17 456.31 l 2,12,13
 460.17 360.632 460.17 360.632 503.469 317.331 c 0,14,15
 539.822 280.979 539.822 280.979 629.61 280.98 c 2,16,-1
 677.86 280.98 l 1,17,-1
 677.86 0 l 1,18,-1
 570.76 0 l 2,19,20
 424.026 0 424.026 0 325.999 85.2734 c 1,0,1
EndSplineSet
EndChar

StartChar: uniFEE2
Encoding: 65250 65250 266
Width: 1158
VWidth: 2237
GlyphClass: 2
Flags: W
AnchorPoint: "Anchor-10" 555.5 1047 basechar 0
AnchorPoint: "Anchor-7" 137.188 -734.422 basechar 0
LayerCount: 2
Fore
SplineSet
528.264 273.549 m 0,0,1
 616.683 268.492 616.683 268.492 664.13 267.428 c 0,2,3
 757.195 265.289 757.195 265.289 800.951 272.041 c 1,4,5
 797.255 364.021 797.255 364.021 764.547 410.57 c 128,-1,6
 731.838 457.119 731.838 457.119 665.933 473.322 c 0,7,8
 573.25 495.562 573.25 495.562 539.194 450.481 c 0,9,10
 502.097 402.534 502.097 402.534 502.124 275.387 c 1,11,12
 513.878 274.372 513.878 274.372 528.264 273.549 c 0,0,1
1039.01 291.703 m 1,13,14
 1063.42 280.945 1063.42 280.945 1117.74 280.713 c 2,15,-1
 1188.99 280.408 l 5,16,-1
 1188.99 0.709961 l 5,17,-1
 1103.5 0.709961 l 2,18,19
 991.535 0.709961 991.535 0.709961 927.913 49.3574 c 1,20,21
 849.392 -0.583008 849.392 -0.583008 686.729 5.14941 c 0,22,23
 507.417 11.4688 507.417 11.4688 407.655 11.2891 c 0,24,25
 365.994 11.1533 365.994 11.1533 333.929 -51.2764 c 0,26,27
 309.54 -98.8574 309.54 -98.8574 309.54 -175.855 c 2,28,-1
 309.54 -660.217 l 1,29,-1
 41.8701 -660.217 l 1,30,-1
 41.8701 -161.947 l 2,31,32
 41.8701 78.7178 41.8701 78.7178 131.213 174.74 c 0,33,34
 186.168 233.804 186.168 233.804 248.896 257.572 c 1,35,36
 247.103 485.756 247.103 485.756 356.041 610.623 c 0,37,38
 422.329 686.254 422.329 686.254 516.366 712.403 c 128,-1,39
 610.403 738.553 610.403 738.553 724.308 716.068 c 0,40,41
 870.208 687.268 870.208 687.268 949.623 577.595 c 128,-1,42
 1029.04 467.923 1029.04 467.923 1039.01 291.703 c 1,13,14
EndSplineSet
EndChar

StartChar: uniFEE3
Encoding: 65251 65251 267
Width: 972
VWidth: 2237
GlyphClass: 2
Flags: W
AnchorPoint: "Anchor-10" 432.69 957.5 basechar 0
AnchorPoint: "Anchor-7" 394.69 -120.5 basechar 0
LayerCount: 2
Fore
SplineSet
793.382 112.927 m 0,0,1
 693.222 3.9541 693.222 3.9541 533.379 3.9541 c 0,2,3
 353.849 3.9541 353.849 3.9541 245.223 71.873 c 1,4,5
 168.435 0 168.435 0 35.9805 0 c 2,6,-1
 -59.4004 0 l 1,7,-1
 -59.4004 280.979 l 1,8,-1
 50.96 280.979 l 2,9,10
 84.2158 280.979 84.2158 280.979 92.4795 288.551 c 1,11,12
 113.152 430.898 113.152 430.898 114.409 439.158 c 2,13,-1
 114.758 441.454 l 1,14,-1
 115.314 443.709 l 2,15,16
 162.724 635.802 162.724 635.802 253.765 708.622 c 1,17,18
 354.975 787.394 354.975 787.394 458.154 797.716 c 1,19,20
 603.469 810.51 603.469 810.51 709.363 729.654 c 0,21,22
 870.408 608.357 870.408 608.357 870.408 344.948 c 0,23,24
 870.408 196.729 870.408 196.729 793.382 112.927 c 0,0,1
516.707 251.303 m 0,25,26
 565.282 251.958 565.282 251.958 594.207 280.481 c 0,27,28
 598.264 284.532 598.264 284.532 601.812 296.63 c 128,-1,29
 605.361 308.729 605.361 308.729 607.5 334.844 c 128,-1,30
 609.638 360.96 609.638 360.96 604.281 398.454 c 0,31,32
 595.919 462.021 595.919 462.021 575.73 491.627 c 128,-1,33
 555.543 521.233 555.543 521.233 524.806 529.051 c 0,34,35
 484.019 538.629 484.019 538.629 455.933 527.582 c 128,-1,36
 427.846 516.535 427.846 516.535 401.773 480.408 c 0,37,38
 358.146 417.67 358.146 417.67 352.014 301.73 c 1,39,40
 439.725 250.264 439.725 250.264 516.707 251.303 c 0,25,26
EndSplineSet
EndChar

StartChar: uniFEE4
Encoding: 65252 65252 268
Width: 1127
VWidth: 2237
GlyphClass: 2
Flags: W
AnchorPoint: "Anchor-10" 531.79 947.5 basechar 0
AnchorPoint: "Anchor-7" 531.79 -122.5 basechar 0
LayerCount: 2
Fore
SplineSet
562.16 260.932 m 0,0,1
 634.261 249.967 634.261 249.967 677.303 284.435 c 0,2,3
 701.986 304.431 701.986 304.431 692.524 384.406 c 0,4,5
 684.474 452.927 684.474 452.927 659.599 480.496 c 128,-1,6
 634.725 508.064 634.725 508.064 586.74 510.363 c 0,7,8
 522.826 513.108 522.826 513.108 482.884 466.842 c 128,-1,9
 442.941 420.574 442.941 420.574 424.864 305.704 c 1,10,11
 477.422 273.818 477.422 273.818 562.16 260.932 c 0,0,1
593.678 -8.96973 m 2,12,13
 422.007 -8.96973 422.007 -8.96973 298.356 79.5781 c 1,14,15
 194.841 0 194.841 0 85.5996 0 c 2,16,-1
 -36.4004 0 l 5,17,-1
 -36.4004 280.979 l 5,18,-1
 92.0195 280.979 l 2,19,20
 159.894 280.979 159.894 280.979 163.938 302.429 c 0,21,22
 184.379 397.799 184.379 397.799 186.146 407.188 c 0,23,24
 214.785 576.538 214.785 576.538 288.047 659.407 c 1,25,26
 370.699 750.89 370.699 750.89 473.549 780.796 c 128,-1,27
 576.397 810.702 576.397 810.702 691.595 776.235 c 0,28,29
 795.312 745.004 795.312 745.004 859.547 656.499 c 128,-1,30
 923.781 567.994 923.781 567.994 948.462 431.492 c 0,31,32
 963.568 347.672 963.568 347.672 994.071 314.381 c 128,-1,33
 1024.57 281.09 1024.57 281.09 1074.28 281.09 c 2,34,-1
 1168.18 281.09 l 1,35,-1
 1168.18 0.209961 l 1,36,-1
 1015.43 0.209961 l 2,37,38
 925.827 0.209961 925.827 0.209961 848.912 90.7578 c 1,39,40
 759.927 -0.18807 759.927 -0.18807 596.394 -8.89746 c 2,41,-1
 595.037 -8.96973 l 1,42,-1
 593.678 -8.96973 l 2,12,13
EndSplineSet
EndChar

StartChar: uniFEEA
Encoding: 65258 65258 274
Width: 990
VWidth: 2237
GlyphClass: 2
Flags: W
AnchorPoint: "Anchor-10" 354.95 1164.81 basechar 0
AnchorPoint: "Anchor-7" 362.88 -179 basechar 0
LayerCount: 2
Fore
SplineSet
571.52 288.759 m 1,0,1
 551.446 384.321 551.446 384.321 536.497 532.735 c 0,2,3
 531.576 581.261 531.576 581.261 517.709 604.22 c 0,4,5
 511.473 614.544 511.473 614.544 504.668 618.604 c 128,-1,6
 497.863 622.664 497.863 622.664 475.365 617.023 c 128,-1,7
 452.866 611.382 452.866 611.382 416.59 589.374 c 0,8,9
 313.081 526.911 313.081 526.911 304.303 431.268 c 0,10,11
 299.635 380.409 299.635 380.409 332.615 338.441 c 0,12,13
 346.764 320.438 346.764 320.438 403.557 305.29 c 128,-1,14
 460.35 290.144 460.35 290.144 554.557 288.97 c 2,15,-1
 571.52 288.759 l 1,0,1
600.031 185.923 m 1,16,-1
 584.814 31.8018 l 1,17,-1
 538.819 30.9248 l 2,18,19
 193.879 24.3477 193.879 24.3477 84.4443 212.264 c 0,20,21
 0.749023 355.985 0.749023 355.985 31.6387 498.801 c 0,22,23
 65.3848 651.853 65.3848 651.853 239.313 793.477 c 0,24,25
 321.667 860.534 321.667 860.534 446.538 887.733 c 0,26,27
 561.496 913.361 561.496 913.361 646.388 865.743 c 128,-1,28
 731.278 818.125 731.278 818.125 770.818 706.186 c 0,29,30
 810.021 595.777 810.021 595.777 817.484 389.723 c 0,31,32
 819.43 333.056 819.43 333.056 854.226 307.561 c 128,-1,33
 888.976 282.099 888.976 282.099 978.338 282 c 2,34,-1
 1030.26 281.942 l 5,35,-1
 1030.26 0 l 5,36,-1
 959.34 0 l 2,37,38
 730.431 0 730.431 0 632.495 124.854 c 0,39,40
 614.722 147.317 614.722 147.317 600.031 185.923 c 1,16,-1
EndSplineSet
EndChar

StartChar: uniFEEB
Encoding: 65259 65259 275
Width: 1331
VWidth: 2237
GlyphClass: 2
Flags: W
AnchorPoint: "Anchor-10" 601.801 1365.23 basechar 0
AnchorPoint: "Anchor-7" 388.41 -114 basechar 0
LayerCount: 2
Fore
SplineSet
566.686 408.794 m 0,0,1
 676.763 521.95 676.763 521.95 611.686 606.794 c 0,2,3
 565.278 667.877 565.278 667.877 460.156 643.788 c 0,4,5
 346.917 618.252 346.917 618.252 313.686 516.794 c 0,6,7
 277.199 408.098 277.199 408.098 402.686 341.794 c 1,8,9
 516.848 357.562 516.848 357.562 566.686 408.794 c 0,0,1
817.195 602.319 m 1,10,11
 833.549 495.718 833.549 495.718 793.686 411.794 c 0,12,13
 755.685 331.794 755.685 331.794 656.686 273.794 c 1,14,15
 755.036 253.523 755.036 253.523 826.186 255.794 c 0,16,17
 960.109 260.142 960.109 260.142 978.522 330.627 c 1,18,19
 1004.68 437.946 1004.68 437.946 817.195 602.319 c 1,10,11
530.647 870.199 m 1,20,21
 486.066 895.838 486.066 895.838 444.766 913.533 c 2,22,-1
 384.363 939.413 l 1,23,-1
 539.259 1144.12 l 1,24,-1
 575.379 1124.15 l 2,25,26
 795.419 1002.5 795.419 1002.5 961.999 873.018 c 0,27,28
 1205.27 688.372 1205.27 688.372 1241.69 463.291 c 0,29,30
 1270.15 290.81 1270.15 290.81 1191.33 169.817 c 128,-1,31
 1112.52 48.8242 1112.52 48.8242 940.264 9.79102 c 0,32,33
 702.322 -44.127 702.322 -44.127 438.807 69.7236 c 1,34,35
 270.038 0 270.038 0 9.62988 -0 c 2,36,-1
 -59.4004 0 l 1,37,-1
 -59.4004 280.979 l 1,38,-1
 94.9805 280.979 l 1,39,40
 68.5723 327.915 68.5723 327.915 59.8633 377.582 c 0,41,42
 26.1055 573.833 26.1055 573.833 130.643 709.607 c 0,43,44
 233.957 843.794 233.957 843.794 387.654 868.371 c 0,45,46
 461.495 879.991 461.495 879.991 530.647 870.199 c 1,20,21
EndSplineSet
EndChar

StartChar: uniFEEC
Encoding: 65260 65260 276
Width: 1055
VWidth: 2237
GlyphClass: 2
Flags: W
AnchorPoint: "Anchor-7" 535 -595.5 basechar 0
AnchorPoint: "Anchor-10" 437.76 1217.74 basechar 0
LayerCount: 2
Fore
SplineSet
382.552 281.541 m 1,0,-1
 395.684 281.711 l 2,1,2
 439.374 282.275 439.374 282.275 480.366 329.608 c 1,3,4
 539.688 413.24 539.688 413.24 539.688 618.296 c 0,5,6
 539.688 671.719 539.688 671.719 523.412 696.418 c 0,7,8
 513.84 710.946 513.84 710.946 480.986 710.946 c 0,9,10
 473.186 710.946 473.186 710.946 464.809 706.196 c 128,-1,11
 456.431 701.447 456.431 701.447 445.571 689.451 c 128,-1,12
 434.713 677.455 434.713 677.455 423.185 651.471 c 128,-1,13
 411.656 625.486 411.656 625.486 401.727 588.321 c 0,14,15
 364.309 450.147 364.309 450.147 382.552 281.541 c 1,0,-1
185.882 757.346 m 0,16,17
 231.926 858.961 231.926 858.961 310.706 912.853 c 128,-1,18
 389.486 966.744 389.486 966.744 493.862 965.999 c 0,19,20
 633.781 965.008 633.781 965.008 715.637 872.861 c 0,21,22
 798.082 779.897 798.082 779.897 798.082 644.893 c 0,23,24
 798.082 252.508 798.082 252.508 606.524 85.2002 c 0,25,26
 529.524 17.9463 529.524 17.9463 404.471 3.50391 c 1,27,28
 413.803 -97.0928 413.803 -97.0928 506.381 -162.839 c 1,29,30
 558.255 32.5605 558.255 32.5605 704.448 155.842 c 1,31,32
 849.182 280.109 849.182 280.109 1017.91 281.98 c 1,33,-1
 1077.64 281.036 l 1,34,-1
 1077.64 0.858398 l 1,35,-1
 1035.97 -0.00195312 l 2,36,37
 903.079 -2.74575 903.079 -2.74575 824.199 -104.963 c 0,38,39
 744.126 -208.727 744.126 -208.727 715.321 -435.896 c 2,40,-1
 709.275 -483.577 l 1,41,-1
 661.32 -480.367 l 2,42,43
 342.504 -459.026 342.504 -459.026 212.115 -231.781 c 0,44,45
 157.78 -137.064 157.78 -137.064 142.375 0 c 1,46,-1
 -38.9355 0 l 5,47,-1
 -38.9355 280.965 l 5,48,-1
 133.962 281.022 l 1,49,50
 124.312 619.971 124.312 619.971 185.882 757.346 c 0,16,17
EndSplineSet
EndChar

StartChar: uniFEEE
Encoding: 65262 65262 278
Width: 862
VWidth: 2237
GlyphClass: 2
Flags: W
AnchorPoint: "Anchor-10" 330 1115 basechar 0
AnchorPoint: "Anchor-7" 451.515 -528.238 basechar 0
LayerCount: 2
Fore
SplineSet
403.754 525.572 m 0,0,1
 381.956 528.111 381.956 528.111 367.928 522.703 c 128,-1,2
 353.899 517.295 353.899 517.295 339.71 500.948 c 0,3,4
 305.161 462.751 305.161 462.751 304.535 377.328 c 0,5,6
 304.213 345.354 304.213 345.354 313.911 326.512 c 128,-1,7
 323.609 307.669 323.609 307.669 345.272 294.5 c 0,8,9
 388.602 268.158 388.602 268.158 498.617 281.33 c 1,10,11
 501.81 424.024 501.81 424.024 454.427 498.225 c 0,12,13
 439.242 522.002 439.242 522.002 403.754 525.572 c 0,0,1
734.811 0.5 m 1,14,15
 683.551 -181.22 683.551 -181.22 523.194 -305.649 c 0,16,17
 358.928 -433.113 358.928 -433.113 40.2695 -465.819 c 2,18,-1
 -6.67285 -470.637 l 1,19,-1
 -55.0527 -204.53 l 1,20,-1
 1.68457 -199.93 l 2,21,22
 336.21 -172.808 336.21 -172.808 443.706 3.0918 c 1,23,24
 425.126 3.11426 425.126 3.11426 404.956 2.7998 c 0,25,26
 217.425 -0.410156 217.425 -0.410156 122.439 127.978 c 0,27,28
 39.3271 240.313 39.3271 240.313 46.6455 401.199 c 0,29,30
 53.4492 557.617 53.4492 557.617 152.182 682.181 c 0,31,32
 255.4 813.633 255.4 813.633 410.579 813.633 c 0,33,34
 517.352 813.633 517.352 813.633 596.77 757.07 c 128,-1,35
 676.188 700.508 676.188 700.508 721.408 594.875 c 0,36,37
 760.367 504.22 760.367 504.22 767.975 314.364 c 0,38,39
 768.623 297.485 768.623 297.485 768.741 280.767 c 1,40,-1
 899.66 281.642 l 5,41,-1
 899.66 0.5 l 5,42,-1
 734.811 0.5 l 1,14,15
EndSplineSet
EndChar

StartChar: uniFEF0
Encoding: 65264 65264 280
Width: 1445
VWidth: 2237
GlyphClass: 2
Flags: W
AnchorPoint: "Anchor-10" 578.73 825.315 basechar 0
AnchorPoint: "Anchor-7" 515.94 -562.88 basechar 0
LayerCount: 2
Fore
SplineSet
908.56 1.05566 m 2,0,1
 862.244 6.63818 862.244 6.63818 832.879 41.2842 c 128,-1,2
 803.511 75.9326 803.511 75.9326 790.322 127.308 c 0,3,4
 783.143 155.271 783.143 155.271 780.563 173.722 c 128,-1,5
 777.984 192.172 777.984 192.172 783.658 217.661 c 128,-1,6
 789.333 243.149 789.333 243.149 807.951 260.626 c 0,7,8
 823.31 275.042 823.31 275.042 844.618 279.771 c 2,9,-1
 850.057 280.978 l 1,10,-1
 1478.89 281.413 l 5,11,-1
 1478.89 0.489258 l 5,12,-1
 1371.54 0.521484 l 1,13,14
 1383.61 -46.0488 1383.61 -46.0488 1373.83 -106.025 c 0,15,16
 1361.07 -183.001 1361.07 -183.001 1295.55 -248.248 c 128,-1,17
 1230.03 -313.494 1230.03 -313.494 1116.27 -373.195 c 0,18,19
 882.513 -496.543 882.513 -496.543 545.055 -465.287 c 0,20,21
 315.452 -444.376 315.452 -444.376 192.72 -311.684 c 128,-1,22
 69.9883 -178.991 69.9883 -178.991 66.2275 52.2686 c 0,23,24
 63.5628 216.618 63.5628 216.618 140.936 416.333 c 2,25,-1
 157.115 458.094 l 1,26,-1
 414.177 395.172 l 1,27,-1
 396.671 342.664 l 2,28,29
 342.393 179.861 342.393 179.861 343.111 67.709 c 0,30,31
 344.471 -72.3486 344.471 -72.3486 423.393 -138.221 c 128,-1,32
 502.314 -204.093 502.314 -204.093 679.315 -205.195 c 0,33,34
 875.179 -206.414 875.179 -206.414 1044.47 -102.045 c 0,35,36
 1073.84 -84.0371 1073.84 -84.0371 1093.12 -66.3584 c 128,-1,37
 1112.4 -48.6807 1112.4 -48.6807 1117.89 -39.749 c 128,-1,38
 1123.37 -30.8174 1123.37 -30.8174 1123.65 -26.123 c 0,39,40
 1124.4 -14.8252 1124.4 -14.8252 1104.29 0.508789 c 1,41,-1
 911.574 0.692383 l 1,42,-1
 908.56 1.05566 l 2,0,1
EndSplineSet
EndChar

StartChar: uniFEFB
Encoding: 65275 65275 291
Width: 1167
VWidth: 2237
GlyphClass: 3
Flags: W
AnchorPoint: "Anchor-9" 911.69 1514 baselig 0
AnchorPoint: "Anchor-6" 908.69 -60.5 baselig 0
AnchorPoint: "Anchor-6" 195 -114 baselig 1
AnchorPoint: "Anchor-9" 122.5 1481.5 baselig 1
LayerCount: 2
Fore
SplineSet
1045.03 938.87 m 2,0,1
 1044.93 526.528 1044.93 526.528 1020.63 420.195 c 0,2,3
 963.366 165.944 963.366 165.944 768.718 67.0205 c 1,4,5
 614.375 -12.8037 614.375 -12.8037 287.398 3.76953 c 0,6,7
 140.645 10.794 140.645 10.794 76.2695 30.7969 c 2,8,-1
 39.9316 42.0879 l 1,9,-1
 43.1436 299.551 l 1,10,-1
 103.766 286.925 l 2,11,12
 234.229 259.753 234.229 259.753 333.957 260.32 c 1,13,-1
 40.0811 1274.41 l 1,14,-1
 276.71 1388.77 l 5,15,-1
 592.395 302.529 l 1,16,17
 666.73 325.627 666.73 325.627 710.611 387.735 c 128,-1,18
 754.493 449.844 754.493 449.844 769.571 561.373 c 0,19,20
 776.672 613.527 776.672 613.527 776.951 977.433 c 2,21,-1
 777.282 1409.96 l 5,22,-1
 1045.14 1400.96 l 1,23,-1
 1045.03 938.87 l 2,0,1
EndSplineSet
LCarets2: 1 0 
Ligature2: "'rlig' Required Ligatures in Arabic lookup 16 subtable" uniFEDF uniFE8E
EndChar

StartChar: uniFEFC
Encoding: 65276 65276 292
Width: 1236
VWidth: 2237
GlyphClass: 3
Flags: W
AnchorPoint: "Anchor-9" 876.69 1500 baselig 0
AnchorPoint: "Anchor-6" 873.69 -60.5 baselig 0
AnchorPoint: "Anchor-6" 160 -114 baselig 1
AnchorPoint: "Anchor-9" 145.5 1453.5 baselig 1
LayerCount: 2
Fore
SplineSet
764.524 170.681 m 0,0,1
 610.741 0.5 610.741 0.5 333.99 0.5 c 0,2,3
 157.124 0.5 157.124 0.5 108.196 11.1875 c 2,4,-1
 68.0801 19.9502 l 1,5,-1
 68.0801 301.762 l 1,6,-1
 128.711 290.102 l 2,7,8
 281.394 260.739 281.394 260.739 364.907 271.204 c 1,9,-1
 29.5723 1261.79 l 1,10,-1
 270.099 1365.08 l 1,11,-1
 605.66 405.87 l 1,12,13
 663.189 482.567 663.189 482.567 694.97 568.638 c 0,14,15
 741.902 695.785 741.902 695.785 742.05 977.422 c 2,16,-1
 742.271 1400.11 l 1,17,-1
 1010.13 1400.11 l 1,18,-1
 1010.13 688.5 l 2,19,20
 1010.13 525.532 1010.13 525.532 1044.73 424.015 c 0,21,22
 1071.14 346.528 1071.14 346.528 1107.42 313.954 c 128,-1,23
 1143.69 281.38 1143.69 281.38 1193.59 281.38 c 2,24,-1
 1312.94 281.38 l 1,25,-1
 1312.94 0.5 l 1,26,-1
 1194.91 0.5 l 2,27,28
 1081.23 0.5 1081.23 0.5 993.727 50.2607 c 128,-1,29
 906.224 100.021 906.224 100.021 852.368 196.053 c 0,30,31
 836.411 224.507 836.411 224.507 824.044 250.501 c 1,32,33
 796.336 205.211 796.336 205.211 764.524 170.681 c 0,0,1
EndSplineSet
LCarets2: 1 0 
Ligature2: "'rlig' Required Ligatures in Arabic lookup 16 subtable" uniFEE0 uniFE8E
EndChar

StartChar: arabic_dot
Encoding: 65536 -1 293
Width: 150
GlyphClass: 2
Flags: W
LayerCount: 2
Fore
SplineSet
74.5 210.84 m 5,0,-1
 202.84 82.5 l 5,1,-1
 74.5 -45.8398 l 5,2,-1
 -53.8398 82.5 l 5,3,-1
 74.5 210.84 l 5,0,-1
EndSplineSet
EndChar

StartChar: arabic_2dots
Encoding: 65537 -1 294
Width: 400
GlyphClass: 2
Flags: W
LayerCount: 2
Fore
SplineSet
348.25 210.84 m 5,0,-1
 476.59 82.5 l 5,1,-1
 348.25 -45.8398 l 5,2,-1
 219.91 82.5 l 5,3,-1
 348.25 210.84 l 5,0,-1
50.75 210.84 m 5,4,-1
 179.09 82.5 l 5,5,-1
 50.75 -45.8398 l 5,6,-1
 -77.5898 82.5 l 5,7,-1
 50.75 210.84 l 5,4,-1
EndSplineSet
EndChar

StartChar: arabic_3dots
Encoding: 65538 -1 295
Width: 400
GlyphClass: 2
Flags: W
LayerCount: 2
Fore
SplineSet
197 464.59 m 1,0,-1
 325.34 336.25 l 1,1,-1
 197 207.91 l 1,2,-1
 68.6602 336.25 l 1,3,-1
 197 464.59 l 1,0,-1
348.25 197.09 m 1,4,-1
 476.59 68.75 l 1,5,-1
 348.25 -59.5898 l 1,6,-1
 219.91 68.75 l 1,7,-1
 348.25 197.09 l 1,4,-1
50.75 197.09 m 1,8,-1
 179.09 68.75 l 1,9,-1
 50.75 -59.5898 l 1,10,-1
 -77.5898 68.75 l 1,11,-1
 50.75 197.09 l 1,8,-1
EndSplineSet
EndChar

StartChar: arabic_3dots_a
Encoding: 65539 -1 296
Width: 400
GlyphClass: 2
Flags: W
LayerCount: 2
Fore
SplineSet
197 -23.624 m 5,0,-1
 325.34 -151.965 l 5,1,-1
 197 -280.305 l 5,2,-1
 68.6602 -151.965 l 5,3,-1
 197 -23.624 l 5,0,-1
348.25 222.004 m 5,4,-1
 476.59 93.665 l 5,5,-1
 348.25 -34.6758 l 5,6,-1
 219.91 93.665 l 5,7,-1
 348.25 222.004 l 5,4,-1
50.75 222.004 m 5,8,-1
 179.09 93.665 l 5,9,-1
 50.75 -34.6758 l 5,10,-1
 -77.5898 93.665 l 5,11,-1
 50.75 222.004 l 5,8,-1
EndSplineSet
EndChar

StartChar: uni066E.fina
Encoding: 65540 -1 297
Width: 1846
VWidth: 2237
GlyphClass: 2
Flags: W
AnchorPoint: "Anchor-10" 703 1116.5 basechar 0
AnchorPoint: "Anchor-7" 703 -123 basechar 0
LayerCount: 2
Fore
SplineSet
1646.51 472.402 m 0,0,1
 1657.67 408.621 1657.67 408.621 1674.23 368.382 c 128,-1,2
 1690.78 328.143 1690.78 328.143 1705.5 315.778 c 0,3,4
 1746.46 281.38 1746.46 281.38 1835.97 281.38 c 2,5,-1
 1872.17 281.38 l 5,6,-1
 1872.17 0.5 l 5,7,-1
 1791.03 0.5 l 2,8,9
 1597.27 0.5 1597.27 0.5 1501.07 137.18 c 1,10,11
 1431.44 69.9375 1431.44 69.9375 1312.03 39.5947 c 0,12,13
 1174.5 4.10645 1174.5 4.10645 984.296 2.91699 c 0,14,15
 905.076 2.49902 905.076 2.49902 837.238 2.12793 c 0,16,17
 578.207 1.41895 578.207 1.41895 435.002 41.959 c 0,18,19
 257.625 93.0156 257.625 93.0156 157.06 210.214 c 128,-1,20
 56.4941 327.411 56.4941 327.411 40.6025 503.199 c 0,21,22
 29.7631 624.491 29.7631 624.491 77.4707 781.474 c 2,23,-1
 91.2451 826.799 l 1,24,-1
 345.893 769.503 l 1,25,-1
 336.307 720.796 l 2,26,27
 309.402 584.088 309.402 584.088 315.973 541.127 c 0,28,29
 329.788 443.923 329.788 443.923 382.998 387.981 c 128,-1,30
 436.207 332.04 436.207 332.04 537.412 309.376 c 128,-1,31
 638.615 286.711 638.615 286.711 806.06 284.008 c 0,32,33
 920.816 281.542 920.816 281.542 969.742 284.49 c 0,34,35
 1150.99 292.84 1150.99 292.84 1212.49 308.148 c 0,36,37
 1285.97 325.982 1285.97 325.982 1326.07 350.342 c 128,-1,38
 1366.17 374.701 1366.17 374.701 1376.39 398.834 c 0,39,40
 1407.22 471.908 1407.22 471.908 1410.47 600.09 c 2,41,-1
 1411.73 649.795 l 1,42,-1
 1627.15 649.795 l 1,43,-1
 1630.7 602.615 l 2,44,45
 1635.97 532.608 1635.97 532.608 1646.51 472.402 c 0,0,1
EndSplineSet
EndChar

StartChar: uni06A1.fina
Encoding: 65543 -1 300
Width: 1953
VWidth: 2237
GlyphClass: 2
Flags: W
AnchorPoint: "Anchor-10" 606 1223.5 basechar 0
AnchorPoint: "Anchor-7" 713 -167.5 basechar 0
LayerCount: 2
Fore
SplineSet
1350.49 573.578 m 128,-1,1
 1350.49 513.836 1350.49 513.836 1392.77 471.549 c 128,-1,2
 1435.07 429.258 1435.07 429.258 1494.81 429.258 c 128,-1,3
 1554.54 429.258 1554.54 429.258 1596.84 471.55 c 128,-1,4
 1639.13 513.834 1639.13 513.834 1639.13 573.578 c 128,-1,5
 1639.13 633.32 1639.13 633.32 1596.84 675.607 c 128,-1,6
 1554.55 717.896 1554.55 717.896 1494.81 717.896 c 128,-1,7
 1435.06 717.896 1435.06 717.896 1392.77 675.609 c 128,-1,0
 1350.49 633.319 1350.49 633.319 1350.49 573.578 c 128,-1,1
432.03 40.2158 m 0,8,9
 259.281 87.7695 259.281 87.7695 159.879 205.473 c 128,-1,10
 60.4766 323.176 60.4766 323.176 41.2861 502.604 c 0,11,12
 27.4953 632.797 27.4953 632.797 80.0684 777.424 c 2,13,-1
 94.9893 818.471 l 1,14,-1
 351.31 768.052 l 1,15,-1
 339.851 729.602 l 2,16,17
 309.503 627.771 309.503 627.771 316.827 533.198 c 0,18,19
 324.277 435.892 324.277 435.892 379.391 380.642 c 0,20,21
 433.418 325.391 433.418 325.391 545.521 304.104 c 0,22,23
 649.708 284.324 649.708 284.324 804.789 281.807 c 0,24,25
 992.921 278.355 992.921 278.355 1101.05 289.161 c 0,26,27
 1159.2 294.686 1159.2 294.686 1207.81 303.551 c 1,28,29
 1193.02 319.132 1193.02 319.132 1181.03 334.589 c 0,30,31
 1033.22 525.264 1033.22 525.264 1117.88 734.705 c 1,32,33
 1188.09 890.485 1188.09 890.485 1349.47 945.729 c 0,34,35
 1528.26 1007.44 1528.26 1007.44 1692.21 918.639 c 0,36,37
 1853.79 830.149 1853.79 830.149 1887.19 651.924 c 0,38,39
 1924.44 451.936 1924.44 451.936 1776.15 308.939 c 1,40,41
 1827.98 281.381 1827.98 281.381 1901.89 281.381 c 2,42,-1
 1984.6 281.381 l 5,43,-1
 1984.6 0.5 l 5,44,-1
 1837.22 0.5 l 2,45,46
 1672.19 0.5 1672.19 0.5 1498.2 119.664 c 1,47,48
 1388.31 69.6035 1388.31 69.6035 1300.63 43.5518 c 0,49,50
 1150.33 -1.47949 1150.33 -1.47949 876.821 0.000976562 c 0,51,52
 574.939 1.21582 574.939 1.21582 432.03 40.2158 c 0,8,9
EndSplineSet
EndChar

StartChar: uni06A1.init
Encoding: 65544 -1 301
Width: 825
VWidth: 2237
GlyphClass: 2
Flags: W
AnchorPoint: "Anchor-10" 405.53 1272.5 basechar 0
AnchorPoint: "Anchor-7" 380.53 -114 basechar 0
LayerCount: 2
Fore
SplineSet
431.743 860.528 m 0,0,1
 404.968 863.254 404.968 863.254 377.123 824.038 c 0,2,3
 333.251 763.978 333.251 763.978 337.146 696.883 c 0,4,5
 338.68 672.104 338.68 672.104 345.755 660.496 c 128,-1,6
 352.831 648.887 352.831 648.887 366.781 642.303 c 0,7,8
 416.975 620.319 416.975 620.319 523.27 632.723 c 1,9,10
 521.763 735.625 521.763 735.625 480.176 812.458 c 0,11,12
 456.278 857.323 456.278 857.323 431.743 860.528 c 0,0,1
481.408 366.361 m 1,13,-1
 425.914 361.635 l 1,14,-1
 424.104 361.609 l 2,15,16
 232.246 358.853 232.246 358.853 138.46 487.083 c 0,17,18
 13.2051 658.348 13.2051 658.348 127.334 908.996 c 0,19,20
 198.34 1064.54 198.34 1064.54 308.302 1122.61 c 128,-1,21
 418.264 1180.68 418.264 1180.68 553.289 1124.94 c 0,22,23
 659.616 1080.74 659.616 1080.74 725.285 932.953 c 0,24,25
 780.307 809.124 780.307 809.124 785.292 650.301 c 0,26,27
 796.729 277.23 796.729 277.23 627.855 135.049 c 0,28,29
 468.683 0 468.683 0 196.23 0 c 2,30,-1
 -37.4004 0 l 5,31,-1
 -37.4004 280.98 l 5,32,-1
 82 280.98 l 2,33,34
 321.28 280.979 321.28 280.979 384.297 304.095 c 0,35,36
 449.903 327.851 449.903 327.851 481.408 366.361 c 1,13,-1
EndSplineSet
EndChar

StartChar: uni06A1.medi
Encoding: 65545 -1 302
Width: 1108
VWidth: 2237
GlyphClass: 2
Flags: W
AnchorPoint: "Anchor-10" 554.26 1063 basechar 0
AnchorPoint: "Anchor-7" 554.26 -114 basechar 0
LayerCount: 2
Fore
SplineSet
438.752 532.126 m 128,-1,1
 438.752 486.034 438.752 486.034 472.383 453.158 c 0,2,3
 506.709 419.603 506.709 419.603 555.553 419.603 c 128,-1,4
 604.396 419.603 604.396 419.603 638.721 453.158 c 0,5,6
 672.352 486.033 672.352 486.033 672.352 532.126 c 128,-1,7
 672.352 578.214 672.352 578.214 638.721 611.09 c 0,8,9
 604.395 644.646 604.395 644.646 555.553 644.646 c 128,-1,10
 506.711 644.646 506.711 644.646 472.382 611.089 c 0,11,0
 438.752 578.218 438.752 578.218 438.752 532.126 c 128,-1,1
745.866 862.72 m 0,12,13
 904.574 772.662 904.574 772.662 931.137 630.636 c 0,14,15
 953.643 509.174 953.643 509.174 916.743 402.726 c 0,16,17
 894.478 338.494 894.478 338.494 843.359 283.004 c 1,18,19
 905.484 280.638 905.484 280.638 993.864 280.979 c 2,20,-1
 1140.92 281.546 l 1,21,-1
 1140.92 0.598633 l 1,22,-1
 857.828 0 l 2,23,24
 706.483 -0.320037 706.483 -0.320037 553.531 96.8838 c 1,25,26
 393.794 0 393.794 0 251.79 0 c 2,27,-1
 -36.4004 0 l 5,28,-1
 -36.4004 280.98 l 5,29,-1
 114.49 280.98 l 2,30,31
 203.451 280.98 203.451 280.98 265.746 286.895 c 1,32,33
 224.136 334.808 224.136 334.808 198.171 394.749 c 0,34,35
 149.317 507.531 149.317 507.531 186.562 635.147 c 1,36,37
 232.868 805.652 232.868 805.652 395.614 872.135 c 0,38,39
 467.917 901.671 467.917 901.671 558.326 901.671 c 0,40,41
 676.761 901.671 676.761 901.671 745.866 862.72 c 0,12,13
EndSplineSet
EndChar

StartChar: uni066F.fina
Encoding: 65546 -1 303
Width: 1405
VWidth: 2237
GlyphClass: 2
Flags: W
AnchorPoint: "Anchor-10" 353 956 basechar 0
AnchorPoint: "Anchor-7" 452.645 -534.82 basechar 0
LayerCount: 2
Fore
SplineSet
1015.5 501.802 m 0,0,1
 988.728 504.526 988.728 504.526 960.884 465.309 c 0,2,3
 917.016 405.251 917.016 405.251 920.908 338.152 c 0,4,5
 922.441 313.378 922.441 313.378 929.518 301.769 c 128,-1,6
 936.593 290.159 936.593 290.159 950.545 283.575 c 0,7,8
 1000.74 261.593 1000.74 261.593 1107.03 273.996 c 1,9,10
 1105.52 376.892 1105.52 376.892 1063.94 453.727 c 0,11,12
 1040.04 498.597 1040.04 498.597 1015.5 501.802 c 0,0,1
1369.07 290.868 m 2,13,-1
 1369.24 281.404 l 1,14,15
 1377.02 281.38 1377.02 281.38 1385.55 281.38 c 2,16,-1
 1491.96 281.38 l 1,17,-1
 1491.96 0.5 l 1,18,-1
 1355.98 0.5 l 1,19,20
 1327.03 -211.573 1327.03 -211.573 1162.08 -359.755 c 0,21,22
 1008.59 -497.643 1008.59 -497.643 705.416 -492.979 c 0,23,24
 375.57 -488.026 375.57 -488.026 217.171 -337.636 c 0,25,26
 35.7656 -165.592 35.7656 -165.592 39.2607 115.073 c 0,27,28
 42.2627 335.618 42.2627 335.618 142.789 540.269 c 2,29,-1
 160.915 577.17 l 1,30,-1
 419.882 513.054 l 1,31,-1
 399.136 459.124 l 2,32,33
 315.35 241.324 315.35 241.324 316.186 113.296 c 0,34,35
 317.848 -58.5195 317.848 -58.5195 408.418 -141.174 c 128,-1,36
 498.988 -223.828 498.988 -223.828 696.401 -229.113 c 0,37,38
 901.353 -234.826 901.353 -234.826 994.922 -148.203 c 0,39,40
 1063.8 -84.4043 1063.8 -84.4043 1084.44 9.27637 c 1,41,-1
 1009.67 2.9082 l 1,42,-1
 1007.24 2.87402 l 2,43,44
 815.643 0.615234 815.643 0.615234 722.302 128.241 c 0,45,46
 594.838 300.565 594.838 300.565 709.125 550.338 c 0,47,48
 780.548 706.433 780.548 706.433 891.08 764.483 c 128,-1,49
 1001.61 822.534 1001.61 822.534 1137.08 766.209 c 0,50,51
 1239.97 723.43 1239.97 723.43 1308.69 575.002 c 0,52,53
 1366.15 451.532 1366.15 451.532 1369.07 290.868 c 2,13,-1
EndSplineSet
EndChar

StartChar: arabic_ring
Encoding: 65549 -1 306
Width: 438
GlyphClass: 2
Flags: W
LayerCount: 2
Fore
SplineSet
316 220 m 0,0,1
 316 260 316 260 288 288 c 0,2,3
 260 317 260 317 219 317 c 128,-1,4
 178 317 178 317 150 289 c 128,-1,5
 122 261 122 261 122 220 c 0,6,7
 122 178 122 178 150 150 c 0,8,9
 178 123 178 123 219 123 c 128,-1,10
 260 123 260 123 288 151 c 128,-1,11
 316 179 316 179 316 220 c 0,0,1
438 220 m 128,-1,13
 438 128 438 128 375 64 c 0,14,15
 311 0 311 0 219 0 c 128,-1,16
 127 0 127 0 64 64 c 0,17,18
 0 128 0 128 0 220 c 128,-1,19
 0 312 0 312 64 376 c 0,20,21
 127 439 127 439 219 439 c 128,-1,22
 311 439 311 439 375 376 c 1,23,12
 438 312 438 312 438 220 c 128,-1,13
EndSplineSet
EndChar

StartChar: arabic_gaf_bar
Encoding: 65550 -1 307
Width: 738
GlyphClass: 2
Flags: W
LayerCount: 2
Fore
SplineSet
728 1686 m 1,0,-1
 0 1333 l 1,1,-1
 0 1442 l 1,2,-1
 728 1795 l 1,3,-1
 728 1686 l 1,0,-1
EndSplineSet
EndChar

StartChar: uni066E.init.math
Encoding: 65560 -1 317
Width: 877
VWidth: 2237
GlyphClass: 2
Flags: W
LayerCount: 2
Fore
SplineSet
616.591 114.155 m 0,0,1
 528.129 8.5 528.129 8.5 342.4 8.5 c 2,2,-1
 -59.4004 8.5 l 1,3,-1
 -59.4004 281.38 l 1,4,-1
 283.55 281.38 l 2,5,6
 373.74 281.38 373.74 281.38 409.689 317.331 c 0,7,8
 450.99 358.629 450.99 358.629 450.99 456.31 c 2,9,-1
 450.99 726.5 l 1,10,-1
 723.87 726.5 l 1,11,-1
 723.87 456.31 l 2,12,13
 723.87 242.428 723.87 242.428 616.591 114.155 c 0,0,1
EndSplineSet
EndChar

StartChar: guillemotleft
Encoding: 171 171 318
Width: 1243
Flags: W
LayerCount: 2
Fore
SplineSet
611.94 999.22 m 1,0,-1
 611.94 771.74 l 1,1,-1
 336.52 564 l 1,2,-1
 611.94 356.26 l 1,3,-1
 611.94 128.78 l 1,4,-1
 148.52 475.64 l 1,5,-1
 148.52 650.48 l 1,6,-1
 611.94 999.22 l 1,0,-1
1062.2 999.22 m 1,7,-1
 1062.2 771.74 l 1,8,-1
 787.72 564 l 1,9,-1
 1062.2 356.26 l 1,10,-1
 1062.2 128.78 l 1,11,-1
 598.78 475.64 l 1,12,-1
 598.78 650.48 l 1,13,-1
 1062.2 999.22 l 1,7,-1
EndSplineSet
EndChar

StartChar: guillemotright
Encoding: 187 187 319
Width: 1243
Flags: W
LayerCount: 2
Fore
SplineSet
631.68 999.22 m 1,0,-1
 1095.1 650.48 l 1,1,-1
 1095.1 475.64 l 1,2,-1
 631.68 128.78 l 1,3,-1
 631.68 356.26 l 1,4,-1
 907.1 564 l 1,5,-1
 631.68 771.74 l 1,6,-1
 631.68 999.22 l 1,0,-1
181.42 999.22 m 1,7,-1
 642.96 650.48 l 1,8,-1
 642.96 475.64 l 1,9,-1
 181.42 128.78 l 1,10,-1
 181.42 356.26 l 1,11,-1
 455.9 564 l 1,12,-1
 181.42 771.74 l 1,13,-1
 181.42 999.22 l 1,7,-1
EndSplineSet
EndChar

StartChar: zero
Encoding: 48 48 320
Width: 1339
Flags: W
LayerCount: 2
Fore
SplineSet
885.48 703.12 m 0,0,1
 885.48 966.32 885.48 966.32 836.13 1073.95 c 128,-1,2
 786.78 1181.58 786.78 1181.58 670.22 1181.58 c 128,-1,3
 553.66 1181.58 553.66 1181.58 503.84 1073.95 c 128,-1,4
 454.02 966.32 454.02 966.32 454.02 703.12 c 0,5,6
 454.02 437.1 454.02 437.1 503.84 328.06 c 128,-1,7
 553.66 219.02 553.66 219.02 670.22 219.02 c 0,8,9
 785.84 219.02 785.84 219.02 835.66 328.06 c 128,-1,10
 885.48 437.1 885.48 437.1 885.48 703.12 c 0,0,1
1247.38 700.3 m 0,11,12
 1247.38 351.56 1247.38 351.56 1096.98 162.15 c 128,-1,13
 946.58 -27.26 946.58 -27.26 670.22 -27.26 c 0,14,15
 392.92 -27.26 392.92 -27.26 242.52 162.15 c 128,-1,16
 92.12 351.56 92.12 351.56 92.12 700.3 c 0,17,18
 92.12 1049.98 92.12 1049.98 242.52 1239.39 c 128,-1,19
 392.92 1428.8 392.92 1428.8 670.22 1428.8 c 0,20,21
 946.58 1428.8 946.58 1428.8 1096.98 1239.39 c 128,-1,22
 1247.38 1049.98 1247.38 1049.98 1247.38 700.3 c 0,11,12
EndSplineSet
EndChar

StartChar: one
Encoding: 49 49 321
Width: 1339
Flags: W
LayerCount: 2
Fore
SplineSet
225.6 250.04 m 1,0,-1
 545.2 250.04 l 1,1,-1
 545.2 1157.14 l 1,2,-1
 217.14 1089.46 l 1,3,-1
 217.14 1335.74 l 1,4,-1
 543.32 1403.42 l 1,5,-1
 887.36 1403.42 l 1,6,-1
 887.36 250.04 l 1,7,-1
 1206.96 250.04 l 1,8,-1
 1206.96 3.90625e-05 l 1,9,-1
 225.6 3.90625e-05 l 1,10,-1
 225.6 250.04 l 1,0,-1
EndSplineSet
EndChar

StartChar: two
Encoding: 50 50 322
Width: 1339
Flags: W
LayerCount: 2
Fore
SplineSet
554.6 266.02 m 1,0,-1
 1172.18 266.02 l 1,1,-1
 1172.18 -1.09863e-05 l 1,2,-1
 152.28 -1.09863e-05 l 1,3,-1
 152.28 266.02 l 1,4,-1
 664.58 718.16 l 1,5,6
 733.2 780.2 733.2 780.2 766.1 839.42 c 128,-1,7
 799 898.64 799 898.64 799 962.56 c 0,8,9
 799 1061.26 799 1061.26 732.73 1121.42 c 128,-1,10
 666.46 1181.58 666.46 1181.58 556.48 1181.58 c 0,11,12
 471.88 1181.58 471.88 1181.58 371.3 1145.39 c 128,-1,13
 270.72 1109.2 270.72 1109.2 156.04 1037.76 c 1,14,-1
 156.04 1346.08 l 1,15,16
 278.24 1386.5 278.24 1386.5 397.62 1407.65 c 128,-1,17
 517 1428.8 517 1428.8 631.68 1428.8 c 0,18,19
 883.6 1428.8 883.6 1428.8 1023.19 1317.88 c 128,-1,20
 1162.78 1206.96 1162.78 1206.96 1162.78 1008.62 c 0,21,22
 1162.78 893.94 1162.78 893.94 1103.56 794.77 c 128,-1,23
 1044.34 695.6 1044.34 695.6 854.46 529.22 c 2,24,-1
 554.6 266.02 l 1,0,-1
EndSplineSet
EndChar

StartChar: three
Encoding: 51 51 323
Width: 1339
Flags: W
LayerCount: 2
Fore
SplineSet
896.76 756.7 m 1,0,1
 1038.7 720.04 1038.7 720.04 1112.49 629.33 c 128,-1,2
 1186.28 538.62 1186.28 538.62 1186.28 398.56 c 0,3,4
 1186.28 189.88 1186.28 189.88 1026.48 81.31 c 128,-1,5
 866.68 -27.259 866.68 -27.259 560.24 -27.259 c 0,6,7
 452.14 -27.259 452.14 -27.259 343.57 -9.86927 c 128,-1,8
 235 7.52043 235 7.52043 128.78 42.3006 c 1,9,-1
 128.78 321.481 l 1,10,11
 230.3 270.721 230.3 270.721 330.41 244.871 c 128,-1,12
 430.52 219.021 430.52 219.021 527.34 219.021 c 0,13,14
 671.16 219.021 671.16 219.021 747.77 268.841 c 128,-1,15
 824.38 318.661 824.38 318.661 824.38 411.721 c 0,16,17
 824.38 507.601 824.38 507.601 745.89 556.951 c 128,-1,18
 667.4 606.301 667.4 606.301 514.18 606.301 c 2,19,-1
 369.42 606.301 l 1,20,-1
 369.42 839.421 l 1,21,-1
 521.7 839.421 l 2,22,23
 658 839.421 658 839.421 724.74 882.191 c 128,-1,24
 791.48 924.961 791.48 924.961 791.48 1012.38 c 0,25,26
 791.48 1093.22 791.48 1093.22 726.62 1137.4 c 128,-1,27
 661.76 1181.58 661.76 1181.58 543.32 1181.58 c 0,28,29
 455.9 1181.58 455.9 1181.58 366.6 1161.84 c 128,-1,30
 277.3 1142.1 277.3 1142.1 188.94 1103.56 c 1,31,-1
 188.94 1368.64 l 1,32,33
 296.1 1398.72 296.1 1398.72 401.38 1413.76 c 128,-1,34
 506.66 1428.8 506.66 1428.8 608.18 1428.8 c 0,35,36
 881.72 1428.8 881.72 1428.8 1017.55 1339.03 c 128,-1,37
 1153.38 1249.26 1153.38 1249.26 1153.38 1068.78 c 0,38,39
 1153.38 945.641 1153.38 945.641 1088.52 867.151 c 128,-1,40
 1023.66 788.661 1023.66 788.661 896.76 756.7 c 1,0,1
EndSplineSet
EndChar

StartChar: four
Encoding: 52 52 324
Width: 1339
Flags: W
LayerCount: 2
Fore
SplineSet
708.76 1105.44 m 1,0,-1
 312.08 517.94 l 1,1,-1
 708.76 517.94 l 1,2,-1
 708.76 1105.44 l 1,0,-1
648.6 1403.42 m 1,3,-1
 1050.92 1403.42 l 1,4,-1
 1050.92 517.94 l 1,5,-1
 1251.14 517.94 l 1,6,-1
 1251.14 255.68 l 1,7,-1
 1050.92 255.68 l 1,8,-1
 1050.92 6.89697e-05 l 1,9,-1
 708.76 6.89697e-05 l 1,10,-1
 708.76 255.68 l 1,11,-1
 86.4799 255.68 l 1,12,-1
 86.4799 565.88 l 1,13,-1
 648.6 1403.42 l 1,3,-1
EndSplineSet
EndChar

StartChar: five
Encoding: 53 53 325
Width: 1339
Flags: W
LayerCount: 2
Fore
SplineSet
203.98 1403.42 m 1,0,-1
 1103.56 1403.42 l 1,1,-1
 1103.56 1137.4 l 1,2,-1
 492.56 1137.4 l 1,3,-1
 492.56 920.26 l 1,4,5
 533.92 931.54 533.92 931.54 575.75 937.65 c 128,-1,6
 617.58 943.76 617.58 943.76 662.7 943.76 c 0,7,8
 919.32 943.76 919.32 943.76 1062.2 815.45 c 128,-1,9
 1205.08 687.14 1205.08 687.14 1205.08 457.78 c 0,10,11
 1205.08 230.3 1205.08 230.3 1049.51 101.52 c 128,-1,12
 893.94 -27.26 893.94 -27.26 617.58 -27.26 c 0,13,14
 498.2 -27.26 498.2 -27.26 381.17 -4.2307 c 128,-1,15
 264.14 18.7996 264.14 18.7996 148.52 65.7996 c 1,16,-1
 148.52 350.62 l 1,17,18
 263.2 284.82 263.2 284.82 366.13 251.92 c 128,-1,19
 469.06 219.02 469.06 219.02 560.24 219.02 c 0,20,21
 691.84 219.02 691.84 219.02 767.51 283.41 c 128,-1,22
 843.18 347.8 843.18 347.8 843.18 457.78 c 0,23,24
 843.18 568.7 843.18 568.7 767.51 632.62 c 128,-1,25
 691.84 696.54 691.84 696.54 560.24 696.54 c 0,26,27
 482.22 696.54 482.22 696.54 393.86 676.33 c 128,-1,28
 305.5 656.12 305.5 656.12 203.98 613.82 c 1,29,-1
 203.98 1403.42 l 1,0,-1
EndSplineSet
EndChar

StartChar: six
Encoding: 54 54 326
Width: 1339
Flags: W
LayerCount: 2
Fore
SplineSet
696.54 692.78 m 0,0,1
 601.6 692.78 601.6 692.78 554.13 631.21 c 128,-1,2
 506.66 569.64 506.66 569.64 506.66 446.5 c 128,-1,3
 506.66 323.36 506.66 323.36 554.13 261.79 c 128,-1,4
 601.6 200.22 601.6 200.22 696.54 200.22 c 0,5,6
 792.42 200.22 792.42 200.22 839.89 261.79 c 128,-1,7
 887.36 323.36 887.36 323.36 887.36 446.5 c 128,-1,8
 887.36 569.64 887.36 569.64 839.89 631.21 c 128,-1,9
 792.42 692.78 792.42 692.78 696.54 692.78 c 0,0,1
1143.98 1366.76 m 1,10,-1
 1143.98 1107.32 l 1,11,12
 1054.68 1149.62 1054.68 1149.62 975.72 1169.83 c 128,-1,13
 896.76 1190.04 896.76 1190.04 821.56 1190.04 c 0,14,15
 659.88 1190.04 659.88 1190.04 569.64 1100.27 c 128,-1,16
 479.4 1010.5 479.4 1010.5 464.36 833.78 c 1,17,18
 526.4 879.84 526.4 879.84 598.78 902.87 c 128,-1,19
 671.16 925.9 671.16 925.9 756.7 925.9 c 0,20,21
 971.96 925.9 971.96 925.9 1104.03 799.94 c 128,-1,22
 1236.1 673.98 1236.1 673.98 1236.1 470 c 0,23,24
 1236.1 244.4 1236.1 244.4 1088.52 108.57 c 128,-1,25
 940.94 -27.2598 940.94 -27.2598 692.78 -27.2598 c 0,26,27
 419.24 -27.2598 419.24 -27.2598 269.31 157.45 c 128,-1,28
 119.38 342.16 119.38 342.16 119.38 681.5 c 0,29,30
 119.38 1029.3 119.38 1029.3 294.69 1228.11 c 128,-1,31
 470 1426.92 470 1426.92 775.5 1426.92 c 0,32,33
 872.32 1426.92 872.32 1426.92 963.5 1411.88 c 128,-1,34
 1054.68 1396.84 1054.68 1396.84 1143.98 1366.76 c 1,10,-1
EndSplineSet
EndChar

StartChar: seven
Encoding: 55 55 327
Width: 1339
Flags: W
LayerCount: 2
Fore
SplineSet
128.78 1403.42 m 1,0,-1
 1186.28 1403.42 l 1,1,-1
 1186.28 1199.44 l 1,2,-1
 639.2 6.34766e-05 l 1,3,-1
 286.7 6.34766e-05 l 1,4,-1
 804.64 1137.4 l 1,5,-1
 128.78 1137.4 l 1,6,-1
 128.78 1403.42 l 1,0,-1
EndSplineSet
EndChar

StartChar: eight
Encoding: 56 56 328
Width: 1339
Flags: W
LayerCount: 2
Fore
SplineSet
670.22 627.92 m 0,0,1
 568.7 627.92 568.7 627.92 514.18 572.46 c 128,-1,2
 459.66 517 459.66 517 459.66 413.6 c 128,-1,3
 459.66 310.2 459.66 310.2 514.18 255.21 c 128,-1,4
 568.7 200.22 568.7 200.22 670.22 200.22 c 0,5,6
 770.8 200.22 770.8 200.22 824.38 255.21 c 128,-1,7
 877.96 310.2 877.96 310.2 877.96 413.6 c 0,8,9
 877.96 517.94 877.96 517.94 824.38 572.93 c 128,-1,10
 770.8 627.92 770.8 627.92 670.22 627.92 c 0,0,1
406.08 747.3 m 1,11,12
 278.24 785.84 278.24 785.84 213.38 865.74 c 128,-1,13
 148.52 945.64 148.52 945.64 148.52 1065.02 c 0,14,15
 148.52 1242.68 148.52 1242.68 281.06 1335.74 c 128,-1,16
 413.6 1428.8 413.6 1428.8 670.22 1428.8 c 0,17,18
 924.96 1428.8 924.96 1428.8 1057.5 1336.21 c 128,-1,19
 1190.04 1243.62 1190.04 1243.62 1190.04 1065.02 c 0,20,21
 1190.04 945.64 1190.04 945.64 1124.71 865.74 c 128,-1,22
 1059.38 785.84 1059.38 785.84 931.54 747.3 c 1,23,24
 1074.42 707.82 1074.42 707.82 1147.27 618.99 c 128,-1,25
 1220.12 530.16 1220.12 530.16 1220.12 394.8 c 0,26,27
 1220.12 186.12 1220.12 186.12 1081.47 79.43 c 128,-1,28
 942.82 -27.259 942.82 -27.259 670.22 -27.259 c 0,29,30
 396.68 -27.259 396.68 -27.259 257.09 79.43 c 128,-1,31
 117.5 186.12 117.5 186.12 117.5 394.8 c 0,32,33
 117.5 530.16 117.5 530.16 190.35 618.99 c 128,-1,34
 263.2 707.82 263.2 707.82 406.08 747.3 c 1,11,12
490.68 1028.36 m 0,35,36
 490.68 944.7 490.68 944.7 537.21 899.58 c 128,-1,37
 583.74 854.46 583.74 854.46 670.22 854.46 c 0,38,39
 754.82 854.46 754.82 854.46 800.88 899.58 c 128,-1,40
 846.94 944.7 846.94 944.7 846.94 1028.36 c 128,-1,41
 846.94 1112.02 846.94 1112.02 800.88 1156.67 c 128,-1,42
 754.82 1201.32 754.82 1201.32 670.22 1201.32 c 0,43,44
 583.74 1201.32 583.74 1201.32 537.21 1156.2 c 128,-1,45
 490.68 1111.08 490.68 1111.08 490.68 1028.36 c 0,35,36
EndSplineSet
EndChar

StartChar: nine
Encoding: 57 57 329
Width: 1339
Flags: W
LayerCount: 2
Fore
SplineSet
192.7 31.0195 m 1,0,-1
 192.7 290.46 l 1,1,2
 279.18 250.04 279.18 250.04 358.14 229.829 c 128,-1,3
 437.1 209.619 437.1 209.619 514.18 209.619 c 0,4,5
 675.86 209.619 675.86 209.619 766.1 299.389 c 128,-1,6
 856.34 389.159 856.34 389.159 872.32 565.88 c 1,7,8
 808.4 518.88 808.4 518.88 736.02 495.38 c 128,-1,9
 663.64 471.88 663.64 471.88 579.04 471.88 c 0,10,11
 363.78 471.88 363.78 471.88 231.71 597.37 c 128,-1,12
 99.64 722.859 99.64 722.859 99.64 927.779 c 0,13,14
 99.64 1154.32 99.64 1154.32 246.75 1290.62 c 128,-1,15
 393.86 1426.92 393.86 1426.92 641.08 1426.92 c 0,16,17
 915.56 1426.92 915.56 1426.92 1065.96 1241.74 c 128,-1,18
 1216.36 1056.56 1216.36 1056.56 1216.36 718.159 c 0,19,20
 1216.36 370.359 1216.36 370.359 1040.58 171.549 c 128,-1,21
 864.8 -27.2605 864.8 -27.2605 558.36 -27.2605 c 0,22,23
 459.66 -27.2605 459.66 -27.2605 369.42 -12.6911 c 128,-1,24
 279.18 1.87918 279.18 1.87918 192.7 31.0188 c 1,25,-1
 192.7 31.0195 l 1,0,-1
639.2 706.88 m 128,-1,27
 734.14 706.88 734.14 706.88 782.08 768.45 c 128,-1,28
 830.02 830.02 830.02 830.02 830.02 953.16 c 0,29,30
 830.02 1075.36 830.02 1075.36 782.08 1137.4 c 128,-1,31
 734.14 1199.44 734.14 1199.44 639.2 1199.44 c 128,-1,32
 544.26 1199.44 544.26 1199.44 496.32 1137.4 c 128,-1,33
 448.38 1075.36 448.38 1075.36 448.38 953.16 c 0,34,35
 448.38 830.02 448.38 830.02 496.32 768.45 c 128,-1,26
 544.26 706.88 544.26 706.88 639.2 706.88 c 128,-1,27
EndSplineSet
EndChar

